Varta-SemiBold.ufo
<glyph name="exclam" format="2">
  <advance width="609.5308641975308"/>
  <unicode hex="0021"/>
  <outline>
    <contour>
      <point x="240.23456790123456" y="417.48148148148147" type="line"/>
      <point x="368.9506172839506" y="417.48148148148147" type="line"/>
      <point x="395.8024691358024" y="1166.283950617284" type="line"/>
      <point x="400.7654320987654" y="1372.0" type="line"/>
      <point x="208.76543209876544" y="1372.0" type="line"/>
      <point x="213.7283950617284" y="1166.283950617284" type="line"/>
    </contour>
    <contour>
      <point x="304.9382716049383" y="-25.0" type="curve" smooth="yes"/>
      <point x="377.641975308642" y="-25.0"/>
      <point x="436.8024691358024" y="33.43209876543209"/>
      <point x="436.8024691358024" y="112.86419753086417" type="curve" smooth="yes"/>
      <point x="436.8024691358024" y="195.29629629629628"/>
      <point x="377.641975308642" y="253.07407407407405"/>
      <point x="304.9382716049383" y="253.07407407407405" type="curve" smooth="yes"/>
      <point x="231.88888888888889" y="253.07407407407405"/>
      <point x="172.7283950617284" y="195.29629629629628"/>
      <point x="172.7283950617284" y="112.86419753086417" type="curve" smooth="yes"/>
      <point x="172.7283950617284" y="33.43209876543209"/>
      <point x="231.88888888888889" y="-25.0"/>
    </contour>
  </outline>
</glyph>
<glyph name="numbersign" format="2">
  <advance width="1028.5185185185185"/>
  <unicode hex="0023"/>
  <outline>
    <contour>
      <point x="182.7283950617284" y="0.0" type="line"/>
      <point x="303.9012345679012" y="0.0" type="line"/>
      <point x="353.9382716049383" y="412.2592592592593" type="line"/>
      <point x="614.7283950617284" y="412.2592592592593" type="line"/>
      <point x="566.0370370370371" y="0.0" type="line"/>
      <point x="686.2098765432098" y="0.0" type="line"/>
      <point x="736.5555555555555" y="412.2592592592593" type="line"/>
      <point x="925.5185185185185" y="412.2592592592593" type="line"/>
      <point x="925.5185185185185" y="541.7037037037037" type="line"/>
      <point x="751.8271604938271" y="541.7037037037037" type="line"/>
      <point x="786.9012345679013" y="831.9506172839506" type="line"/>
      <point x="966.5185185185185" y="831.9506172839506" type="line"/>
      <point x="966.5185185185185" y="962.0493827160494" type="line"/>
      <point x="802.4814814814814" y="962.0493827160494" type="line"/>
      <point x="849.8641975308642" y="1331.0" type="line"/>
      <point x="730.0370370370371" y="1331.0" type="line"/>
      <point x="682.3086419753087" y="962.0493827160494" type="line"/>
      <point x="420.2098765432099" y="962.0493827160494" type="line"/>
      <point x="466.2469135802469" y="1331.0" type="line"/>
      <point x="346.7283950617284" y="1331.0" type="line"/>
      <point x="300.03703703703707" y="962.0493827160494" type="line"/>
      <point x="112.69135802469135" y="962.0493827160494" type="line"/>
      <point x="112.69135802469135" y="831.9506172839506" type="line"/>
      <point x="284.11111111111114" y="831.9506172839506" type="line"/>
      <point x="249.03703703703704" y="541.7037037037037" type="line"/>
      <point x="71.69135802469135" y="541.7037037037037" type="line"/>
      <point x="71.69135802469135" y="412.2592592592593" type="line"/>
      <point x="233.11111111111111" y="412.2592592592593" type="line"/>
    </contour>
    <contour>
      <point x="369.8641975308642" y="541.7037037037037" type="line"/>
      <point x="405.28395061728395" y="831.9506172839506" type="line"/>
      <point x="666.7283950617284" y="831.9506172839506" type="line"/>
      <point x="631.0" y="541.7037037037037" type="line"/>
    </contour>
  </outline>
</glyph>
<glyph name="dollar" format="2">
  <advance width="1028.5185185185185"/>
  <unicode hex="0024"/>
  <outline>
    <contour>
      <point x="452.11111111111114" y="-225.0" type="line"/>
      <point x="588.2098765432098" y="-225.0" type="line"/>
      <point x="588.2098765432098" y="-17.38271604938272" type="line"/>
      <point x="785.0617283950617" y="12.469135802469129"/>
      <point x="905.5185185185185" y="150.01234567901233"/>
      <point x="905.5185185185185" y="345.01234567901236" type="curve" smooth="yes"/>
      <point x="905.5185185185185" y="777.0370370370371"/>
      <point x="339.25925925925924" y="705.8641975308642"/>
      <point x="339.25925925925924" y="985.9876543209876" type="curve" smooth="yes"/>
      <point x="339.25925925925924" y="1100.20987654321"/>
      <point x="416.75308641975306" y="1171.5061728395062"/>
      <point x="536.9753086419753" y="1171.5061728395062" type="curve" smooth="yes"/>
      <point x="644.5061728395061" y="1171.5061728395062"/>
      <point x="704.5432098765432" y="1145.7037037037037"/>
      <point x="780.8888888888889" y="1072.6666666666667" type="curve"/>
      <point x="880.7530864197531" y="1188.0740740740741" type="line"/>
      <point x="806.1358024691358" y="1266.3456790123457"/>
      <point x="719.2098765432098" y="1312.111111111111"/>
      <point x="588.2098765432098" y="1326.7283950617284" type="curve"/>
      <point x="588.2098765432098" y="1531.037037037037" type="line"/>
      <point x="452.11111111111114" y="1531.037037037037" type="line"/>
      <point x="452.11111111111114" y="1324.4197530864199" type="line"/>
      <point x="271.5679012345679" y="1294.8395061728395"/>
      <point x="153.22222222222223" y="1162.567901234568"/>
      <point x="153.22222222222223" y="976.716049382716" type="curve" smooth="yes"/>
      <point x="153.22222222222223" y="583.1481481481482"/>
      <point x="719.1358024691358" y="643.0123456790124"/>
      <point x="719.1358024691358" y="331.7407407407407" type="curve" smooth="yes"/>
      <point x="719.1358024691358" y="210.1358024691358"/>
      <point x="647.2592592592592" y="133.18518518518516"/>
      <point x="502.30864197530866" y="133.18518518518516" type="curve" smooth="yes"/>
      <point x="381.4320987654321" y="133.18518518518516"/>
      <point x="279.01234567901236" y="176.4074074074074"/>
      <point x="188.46913580246914" y="252.02469135802465" type="curve"/>
      <point x="101.53086419753087" y="117.76543209876543" type="line"/>
      <point x="190.11111111111111" y="36.49382716049384"/>
      <point x="322.34567901234567" y="-9.037037037037038"/>
      <point x="452.11111111111114" y="-22.34567901234568" type="curve"/>
    </contour>
  </outline>
</glyph>
<glyph name="percent" format="2">
  <advance width="1699.4814814814815"/>
  <unicode hex="0025"/>
  <outline>
    <contour>
      <point x="418.5432098765432" y="-25.0" type="line"/>
      <point x="541.4074074074074" y="-25.0" type="line"/>
      <point x="1278.9012345679012" y="1366.7283950617284" type="line"/>
      <point x="1156.037037037037" y="1366.7283950617284" type="line"/>
    </contour>
    <contour>
      <point x="378.2716049382716" y="518.7283950617284" type="curve" smooth="yes"/>
      <point x="562.1975308641976" y="518.7283950617284"/>
      <point x="688.0493827160494" y="675.0370370370371"/>
      <point x="688.0493827160494" y="944.7283950617284" type="curve" smooth="yes"/>
      <point x="688.0493827160494" y="1214.4197530864199"/>
      <point x="562.1975308641976" y="1366.7283950617284"/>
      <point x="378.2716049382716" y="1366.7283950617284" type="curve" smooth="yes"/>
      <point x="193.0" y="1366.7283950617284"/>
      <point x="68.80246913580247" y="1214.4197530864199"/>
      <point x="68.80246913580247" y="944.7283950617284" type="curve" smooth="yes"/>
      <point x="68.80246913580247" y="675.0370370370371"/>
      <point x="193.0" y="518.7283950617284"/>
    </contour>
    <contour>
      <point x="378.2716049382716" y="634.2469135802469" type="curve" smooth="yes"/>
      <point x="277.9753086419753" y="634.2469135802469"/>
      <point x="209.5185185185185" y="735.8888888888889"/>
      <point x="209.5185185185185" y="944.7283950617284" type="curve" smooth="yes"/>
      <point x="209.5185185185185" y="1155.2592592592594"/>
      <point x="277.9753086419753" y="1252.5555555555557"/>
      <point x="378.2716049382716" y="1252.5555555555557" type="curve" smooth="yes"/>
      <point x="476.22222222222223" y="1252.5555555555557"/>
      <point x="545.679012345679" y="1155.2592592592594"/>
      <point x="545.679012345679" y="944.7283950617284" type="curve" smooth="yes"/>
      <point x="545.679012345679" y="735.8888888888889"/>
      <point x="476.22222222222223" y="634.2469135802469"/>
    </contour>
    <contour>
      <point x="1322.5555555555554" y="-25.0" type="curve" smooth="yes"/>
      <point x="1506.4814814814815" y="-25.0"/>
      <point x="1632.3333333333333" y="129.96296296296296"/>
      <point x="1632.3333333333333" y="401.0" type="curve" smooth="yes"/>
      <point x="1632.3333333333333" y="669.6913580246913"/>
      <point x="1506.4814814814815" y="823.0"/>
      <point x="1322.5555555555554" y="823.0" type="curve" smooth="yes"/>
      <point x="1136.6296296296296" y="823.0"/>
      <point x="1012.4320987654321" y="669.6913580246913"/>
      <point x="1012.4320987654321" y="401.0" type="curve" smooth="yes"/>
      <point x="1012.4320987654321" y="129.96296296296296"/>
      <point x="1136.6296296296296" y="-25.0"/>
    </contour>
    <contour>
      <point x="1322.5555555555554" y="90.5185185185185" type="curve" smooth="yes"/>
      <point x="1223.6049382716049" y="90.5185185185185"/>
      <point x="1153.8024691358025" y="191.8148148148148"/>
      <point x="1153.8024691358025" y="401.0" type="curve" smooth="yes"/>
      <point x="1153.8024691358025" y="610.8395061728395"/>
      <point x="1223.6049382716049" y="708.4814814814815"/>
      <point x="1322.5555555555554" y="708.4814814814815" type="curve" smooth="yes"/>
      <point x="1420.5061728395062" y="708.4814814814815"/>
      <point x="1489.962962962963" y="610.8395061728395"/>
      <point x="1489.962962962963" y="401.0" type="curve" smooth="yes"/>
      <point x="1489.962962962963" y="191.8148148148148"/>
      <point x="1420.5061728395062" y="90.5185185185185"/>
    </contour>
  </outline>
</glyph>
<glyph name="ampersand" format="2">
  <advance width="1266.7654320987654"/>
  <unicode hex="0026"/>
  <outline>
    <contour>
      <point x="1235.8024691358025" y="132.53086419753083" type="line"/>
      <point x="1162.4197530864196" y="151.29629629629628"/>
      <point x="1078.037037037037" y="194.06172839506172"/>
      <point x="987.6543209876543" y="254.20987654320987" type="curve"/>
      <point x="1092.6913580246912" y="394.2098765432099"/>
      <point x="1168.037037037037" y="555.6666666666666"/>
      <point x="1219.7283950617284" y="729.7777777777777" type="curve"/>
      <point x="1042.962962962963" y="729.7777777777777" type="line"/>
      <point x="1003.2345679012345" y="580.2098765432098"/>
      <point x="940.8148148148148" y="450.98765432098764"/>
      <point x="860.0123456790124" y="344.8395061728395" type="curve"/>
      <point x="738.4814814814814" y="440.1728395061728"/>
      <point x="612.3703703703703" y="573.4320987654321"/>
      <point x="534.1481481481482" y="701.2222222222223" type="curve"/>
      <point x="681.8765432098766" y="806.3333333333334"/>
      <point x="831.9876543209876" y="910.0246913580247"/>
      <point x="831.9876543209876" y="1097.679012345679" type="curve" smooth="yes"/>
      <point x="831.9876543209876" y="1259.8024691358025"/>
      <point x="725.5555555555555" y="1366.7283950617284"/>
      <point x="553.1604938271605" y="1366.7283950617284" type="curve" smooth="yes"/>
      <point x="361.11111111111114" y="1366.7283950617284"/>
      <point x="237.22222222222223" y="1227.4938271604938"/>
      <point x="237.22222222222223" y="1046.9135802469136" type="curve" smooth="yes"/>
      <point x="237.22222222222223" y="951.1481481481482"/>
      <point x="267.2962962962963" y="841.8024691358024"/>
      <point x="329.4938271604938" y="731.7654320987655" type="curve"/>
      <point x="194.11111111111111" y="638.3456790123457"/>
      <point x="63.111111111111114" y="537.4320987654321"/>
      <point x="63.111111111111114" y="349.2716049382716" type="curve" smooth="yes"/>
      <point x="63.111111111111114" y="134.50617283950618"/>
      <point x="226.87654320987656" y="-25.0"/>
      <point x="478.5061728395062" y="-25.0" type="curve" smooth="yes"/>
      <point x="643.9753086419753" y="-25.0"/>
      <point x="769.9382716049382" y="34.76543209876544"/>
      <point x="873.2098765432098" y="126.18518518518519" type="curve"/>
      <point x="983.8271604938271" y="50.76543209876544"/>
      <point x="1088.4444444444443" y="1.3827160493827177"/>
      <point x="1185.3333333333333" y="-25.0" type="curve"/>
    </contour>
    <contour>
      <point x="501.358024691358" y="126.25925925925924" type="curve" smooth="yes"/>
      <point x="357.7901234567901" y="126.25925925925924"/>
      <point x="246.8395061728395" y="219.82716049382714"/>
      <point x="246.8395061728395" y="360.5432098765432" type="curve" smooth="yes"/>
      <point x="246.8395061728395" y="466.0740740740741"/>
      <point x="313.5185185185185" y="537.716049382716"/>
      <point x="402.8148148148148" y="606.9753086419753" type="curve"/>
      <point x="493.2345679012346" y="470.60493827160496"/>
      <point x="617.4197530864197" y="334.61728395061726"/>
      <point x="744.2592592592592" y="224.74074074074073" type="curve"/>
      <point x="677.3456790123457" y="163.48148148148147"/>
      <point x="591.8518518518518" y="126.25925925925924"/>
    </contour>
    <contour>
      <point x="461.55555555555554" y="817.4320987654321" type="curve"/>
      <point x="424.4444444444444" y="894.9629629629629"/>
      <point x="399.09876543209873" y="976.1111111111111"/>
      <point x="399.09876543209873" y="1045.9876543209878" type="curve" smooth="yes"/>
      <point x="399.09876543209873" y="1153.1358024691358"/>
      <point x="456.59259259259255" y="1233.0123456790125"/>
      <point x="551.5061728395061" y="1233.0123456790125" type="curve" smooth="yes"/>
      <point x="636.7283950617284" y="1233.0123456790125"/>
      <point x="679.0370370370371" y="1168.4444444444446"/>
      <point x="679.0370370370371" y="1092.9876543209878" type="curve" smooth="yes"/>
      <point x="679.0370370370371" y="968.7654320987655"/>
      <point x="579.7407407407408" y="895.6172839506173"/>
    </contour>
  </outline>
</glyph>
<glyph name="quotesingle" format="2">
  <advance width="527.5308641975308"/>
  <unicode hex="0027"/>
  <outline>
    <contour>
      <point x="206.16049382716048" y="832.1358024691358" type="line"/>
      <point x="319.02469135802465" y="832.1358024691358" type="line"/>
      <point x="356.4938271604938" y="1209.7037037037037" type="line"/>
      <point x="362.7654320987654" y="1411.7283950617284" type="line"/>
      <point x="162.7283950617284" y="1411.7283950617284" type="line"/>
      <point x="169.03703703703704" y="1209.7037037037037" type="line"/>
    </contour>
  </outline>
</glyph>
<glyph name="parenleft" format="2">
  <advance width="634.679012345679"/>
  <unicode hex="0028"/>
  <outline>
    <contour>
      <point x="553.5185185185185" y="-307.8395061728395" type="line"/>
      <point x="396.7901234567901" y="-46.22222222222223"/>
      <point x="324.02469135802465" y="232.83950617283952"/>
      <point x="324.02469135802465" y="568.3086419753087" type="curve" smooth="yes"/>
      <point x="324.02469135802465" y="905.1234567901234"/>
      <point x="396.7901234567901" y="1185.2222222222222"/>
      <point x="553.5185185185185" y="1446.1851851851852" type="curve"/>
      <point x="434.4938271604938" y="1499.962962962963" type="line"/>
      <point x="264.8395061728395" y="1225.0"/>
      <point x="164.49382716049382" y="962.5555555555555"/>
      <point x="164.49382716049382" y="568.3086419753087" type="curve" smooth="yes"/>
      <point x="164.49382716049382" y="174.40740740740742"/>
      <point x="264.8395061728395" y="-86.0"/>
      <point x="434.4938271604938" y="-361.61728395061726" type="curve"/>
    </contour>
  </outline>
</glyph>
<glyph name="asterisk" format="2">
  <advance width="869.716049382716"/>
  <unicode hex="002A"/>
  <outline>
    <contour>
      <point x="492.61728395061715" y="826.2962962962963" type="line"/>
      <point x="604.827160493827" y="932.9012345679014" type="line"/>
      <point x="569.7777777777777" y="1013.432098765432" type="line"/>
      <point x="737.9259259259259" y="1091.6049382716049" type="line"/>
      <point x="674.6543209876543" y="1231.8395061728395" type="line"/>
      <point x="588.2592592592594" y="1223.469135802469" type="line"/>
      <point x="565.530864197531" y="1411.7777777777776" type="line"/>
      <point x="415.1851851851852" y="1394.4938271604938" type="line"/>
      <point x="394.56790123456796" y="1308.1604938271605" type="line"/>
      <point x="212.7283950617285" y="1344.8024691358025" type="line"/>
      <point x="182.29629629629642" y="1194.888888888889" type="line"/>
      <point x="256.4197530864197" y="1151.3580246913582" type="line"/>
      <point x="164.98765432098764" y="984.6419753086421" type="line"/>
      <point x="295.8271604938272" y="910.567901234568" type="line"/>
      <point x="362.07407407407396" y="970.5555555555555" type="line"/>
    </contour>
  </outline>
</glyph>
<glyph name="comma" format="2">
  <advance width="527.5308641975308"/>
  <unicode hex="002C"/>
  <outline>
    <contour>
      <point x="140.19753086419752" y="-375.2469135802469" type="line"/>
      <point x="318.29629629629625" y="-305.9382716049383"/>
      <point x="425.7654320987654" y="-143.88888888888889"/>
      <point x="425.7654320987654" y="40.74074074074073" type="curve" smooth="yes"/>
      <point x="425.7654320987654" y="172.98765432098764"/>
      <point x="368.91358024691357" y="253.07407407407405"/>
      <point x="271.9382716049383" y="253.07407407407405" type="curve" smooth="yes"/>
      <point x="198.88888888888889" y="253.07407407407405"/>
      <point x="136.41975308641975" y="204.91358024691357"/>
      <point x="136.41975308641975" y="126.48148148148147" type="curve" smooth="yes"/>
      <point x="136.41975308641975" y="44.74074074074073"/>
      <point x="197.85185185185185" y="0.2345679012345645"/>
      <point x="268.28395061728395" y="0.2345679012345645" type="curve" smooth="yes"/>
      <point x="274.6296296296296" y="0.2345679012345645"/>
      <point x="281.32098765432096" y="0.2345679012345645"/>
      <point x="288.66666666666663" y="2.2345679012345645" type="curve"/>
      <point x="288.32098765432096" y="-107.80246913580247"/>
      <point x="216.04938271604937" y="-216.80246913580248"/>
      <point x="95.34567901234568" y="-268.11111111111114" type="curve"/>
    </contour>
  </outline>
</glyph>
<glyph name="hyphen" format="2">
  <advance width="644.0123456790124"/>
  <unicode hex="002D"/>
  <outline>
    <contour>
      <point x="84.96296296296296" y="442.95061728395063" type="line"/>
      <point x="561.0493827160494" y="442.95061728395063" type="line"/>
      <point x="561.0493827160494" y="585.9753086419753" type="line"/>
      <point x="84.96296296296296" y="585.9753086419753" type="line"/>
    </contour>
  </outline>
</glyph>
<glyph name="period" format="2">
  <advance width="527.5308641975308"/>
  <unicode hex="002E"/>
  <outline>
    <contour>
      <point x="263.9382716049383" y="-25.0" type="curve" smooth="yes"/>
      <point x="336.98765432098764" y="-25.0"/>
      <point x="395.8024691358024" y="33.43209876543209"/>
      <point x="395.8024691358024" y="112.86419753086417" type="curve" smooth="yes"/>
      <point x="395.8024691358024" y="195.29629629629628"/>
      <point x="336.98765432098764" y="253.07407407407405"/>
      <point x="263.9382716049383" y="253.07407407407405" type="curve" smooth="yes"/>
      <point x="190.88888888888889" y="253.07407407407405"/>
      <point x="131.7283950617284" y="195.29629629629628"/>
      <point x="131.7283950617284" y="112.86419753086417" type="curve" smooth="yes"/>
      <point x="131.7283950617284" y="33.43209876543209"/>
      <point x="190.88888888888889" y="-25.0"/>
    </contour>
  </outline>
</glyph>
<glyph name="zero" format="2">
  <advance width="1028.5185185185185"/>
  <unicode hex="0030"/>
  <outline>
    <contour>
      <point x="514.0864197530864" y="-25.0" type="curve" smooth="yes"/>
      <point x="783.9382716049382" y="-25.0"/>
      <point x="941.0617283950617" y="234.83950617283952"/>
      <point x="941.0617283950617" y="678.1481481481482" type="curve" smooth="yes"/>
      <point x="941.0617283950617" y="1122.7654320987654"/>
      <point x="783.9382716049382" y="1366.7283950617284"/>
      <point x="514.0864197530864" y="1366.7283950617284" type="curve" smooth="yes"/>
      <point x="243.23456790123456" y="1366.7283950617284"/>
      <point x="87.76543209876543" y="1122.7654320987654"/>
      <point x="87.76543209876543" y="678.1481481481482" type="curve" smooth="yes"/>
      <point x="87.76543209876543" y="234.83950617283952"/>
      <point x="243.23456790123456" y="-25.0"/>
    </contour>
    <contour>
      <point x="514.0864197530864" y="126.91358024691355" type="curve" smooth="yes"/>
      <point x="366.3703703703703" y="126.91358024691355"/>
      <point x="271.18518518518516" y="295.9259259259259"/>
      <point x="271.18518518518516" y="678.1481481481482" type="curve" smooth="yes"/>
      <point x="271.18518518518516" y="1061.0246913580247"/>
      <point x="366.3703703703703" y="1215.8148148148148"/>
      <point x="514.0864197530864" y="1215.8148148148148" type="curve" smooth="yes"/>
      <point x="662.1481481481482" y="1215.8148148148148"/>
      <point x="756.9876543209876" y="1061.0246913580247"/>
      <point x="756.9876543209876" y="678.1481481481482" type="curve" smooth="yes"/>
      <point x="756.9876543209876" y="295.9259259259259"/>
      <point x="662.1481481481482" y="126.91358024691355"/>
    </contour>
  </outline>
</glyph>
<glyph name="one" format="2">
  <advance width="1028.5185185185185"/>
  <unicode hex="0031"/>
  <outline>
    <contour>
      <point x="158.80246913580248" y="0.0" type="line"/>
      <point x="910.4444444444445" y="0.0" type="line"/>
      <point x="910.4444444444445" y="154.25925925925924" type="line"/>
      <point x="646.2222222222222" y="154.25925925925924" type="line"/>
      <point x="646.2222222222222" y="1345.0740740740741" type="line"/>
      <point x="500.30864197530866" y="1345.0740740740741" type="line"/>
      <point x="425.11111111111114" y="1299.8395061728395"/>
      <point x="338.8024691358025" y="1266.8765432098764"/>
      <point x="215.64197530864197" y="1244.9135802469136" type="curve"/>
      <point x="215.64197530864197" y="1118.5432098765432" type="line"/>
      <point x="454.91358024691357" y="1132.5432098765432" type="line"/>
      <point x="454.91358024691357" y="154.25925925925924" type="line"/>
      <point x="158.80246913580248" y="154.25925925925924" type="line"/>
    </contour>
  </outline>
</glyph>
<glyph name="two" format="2">
  <advance width="1028.5185185185185"/>
  <unicode hex="0032"/>
  <outline>
    <contour>
      <point x="81.03703703703704" y="0.0" type="line"/>
      <point x="936.8271604938271" y="0.0" type="line"/>
      <point x="936.8271604938271" y="163.4938271604938" type="line"/>
      <point x="576.9382716049382" y="163.4938271604938" type="line"/>
      <point x="510.5555555555555" y="163.4938271604938"/>
      <point x="428.62962962962956" y="156.8395061728395"/>
      <point x="358.59259259259255" y="150.53086419753083" type="curve"/>
      <point x="650.9876543209876" y="457.65432098765433"/>
      <point x="871.4814814814814" y="729.8395061728395"/>
      <point x="871.4814814814814" y="975.3703703703704" type="curve" smooth="yes"/>
      <point x="871.4814814814814" y="1215.4938271604938"/>
      <point x="718.0123456790124" y="1366.7283950617284"/>
      <point x="472.12345679012344" y="1366.7283950617284" type="curve" smooth="yes"/>
      <point x="299.58024691358025" y="1366.7283950617284"/>
      <point x="181.6172839506173" y="1294.3086419753085"/>
      <point x="69.76543209876543" y="1172.4567901234568" type="curve"/>
      <point x="177.59259259259258" y="1065.283950617284" type="line"/>
      <point x="251.320987654321" y="1150.432098765432"/>
      <point x="341.8148148148148" y="1214.1604938271605"/>
      <point x="448.2716049382716" y="1214.1604938271605" type="curve" smooth="yes"/>
      <point x="607.0246913580247" y="1214.1604938271605"/>
      <point x="687.0987654320987" y="1115.1728395061727"/>
      <point x="687.0987654320987" y="963.7901234567902" type="curve" smooth="yes"/>
      <point x="687.0987654320987" y="757.5679012345679"/>
      <point x="463.51851851851853" y="490.38271604938274"/>
      <point x="81.03703703703704" y="111.44444444444443" type="curve"/>
    </contour>
  </outline>
</glyph>
<glyph name="three" format="2">
  <advance width="1028.5185185185185"/>
  <unicode hex="0033"/>
  <outline>
    <contour>
      <point x="646.2962962962963" y="693.0370370370371" type="line"/>
      <point x="786.9876543209876" y="746.6543209876543"/>
      <point x="879.7901234567901" y="866.1111111111111"/>
      <point x="879.7901234567901" y="1019.2962962962963" type="curve" smooth="yes"/>
      <point x="879.7901234567901" y="1233.4938271604938"/>
      <point x="724.5925925925926" y="1366.7283950617284"/>
      <point x="482.85185185185185" y="1366.7283950617284" type="curve" smooth="yes"/>
      <point x="328.2345679012346" y="1366.7283950617284"/>
      <point x="202.69135802469137" y="1306.3086419753085"/>
      <point x="98.49382716049384" y="1210.3827160493827" type="curve"/>
      <point x="199.35802469135803" y="1090.9753086419753" type="line"/>
      <point x="277.32098765432096" y="1168.0123456790125"/>
      <point x="365.8148148148148" y="1214.1604938271605"/>
      <point x="471.96296296296293" y="1214.1604938271605" type="curve" smooth="yes"/>
      <point x="605.5679012345679" y="1214.1604938271605"/>
      <point x="686.1358024691358" y="1135.0864197530864"/>
      <point x="686.1358024691358" y="1005.716049382716" type="curve" smooth="yes"/>
      <point x="686.1358024691358" y="873.4567901234568"/>
      <point x="599.2592592592592" y="754.0864197530864"/>
      <point x="326.96296296296293" y="754.0864197530864" type="curve"/>
      <point x="326.96296296296293" y="611.0617283950618" type="line"/>
      <point x="634.8024691358024" y="611.0617283950618"/>
      <point x="732.4814814814815" y="510.1851851851852"/>
      <point x="732.4814814814815" y="361.1975308641975" type="curve" smooth="yes"/>
      <point x="732.4814814814815" y="217.1728395061728"/>
      <point x="627.2222222222223" y="132.53086419753083"/>
      <point x="474.65432098765433" y="132.53086419753083" type="curve" smooth="yes"/>
      <point x="327.9753086419753" y="132.53086419753083"/>
      <point x="224.320987654321" y="202.33333333333331"/>
      <point x="146.320987654321" y="283.71604938271605" type="curve"/>
      <point x="51.7283950617284" y="160.0" type="line"/>
      <point x="140.69135802469137" y="61.111111111111114"/>
      <point x="278.85185185185185" y="-25.0"/>
      <point x="488.5061728395062" y="-25.0" type="curve" smooth="yes"/>
      <point x="737.320987654321" y="-25.0"/>
      <point x="924.4814814814814" y="122.65432098765432"/>
      <point x="924.4814814814814" y="355.58024691358025" type="curve" smooth="yes"/>
      <point x="924.4814814814814" y="533.0"/>
      <point x="802.0246913580247" y="648.1111111111111"/>
      <point x="646.2962962962963" y="685.0370370370371" type="curve"/>
    </contour>
  </outline>
</glyph>
<glyph name="four" format="2">
  <advance width="1028.5185185185185"/>
  <unicode hex="0034"/>
  <outline>
    <contour>
      <point x="619.4938271604939" y="0.0" type="line"/>
      <point x="799.2222222222222" y="0.0" type="line"/>
      <point x="799.2222222222222" y="352.0617283950617" type="line"/>
      <point x="972.4444444444445" y="352.0617283950617" type="line"/>
      <point x="972.4444444444445" y="503.32098765432096" type="line"/>
      <point x="799.2222222222222" y="503.32098765432096" type="line"/>
      <point x="799.2222222222222" y="1345.4197530864199" type="line"/>
      <point x="580.283950617284" y="1345.4197530864199" type="line"/>
      <point x="35.96296296296296" y="478.9753086419753" type="line"/>
      <point x="35.96296296296296" y="352.0617283950617" type="line"/>
      <point x="619.4938271604939" y="352.0617283950617" type="line"/>
    </contour>
    <contour>
      <point x="231.76543209876542" y="503.32098765432096" type="line"/>
      <point x="514.8024691358024" y="953.1111111111112" type="line"/>
      <point x="551.8024691358024" y="1019.0370370370371"/>
      <point x="588.8024691358024" y="1087.7407407407409"/>
      <point x="621.8024691358024" y="1152.0123456790125" type="curve"/>
      <point x="629.8024691358024" y="1152.0123456790125" type="line"/>
      <point x="625.8024691358024" y="1080.7777777777778"/>
      <point x="619.4938271604939" y="957.0370370370371"/>
      <point x="619.4938271604939" y="885.1481481481482" type="curve" smooth="yes"/>
      <point x="619.4938271604939" y="503.32098765432096" type="line"/>
    </contour>
  </outline>
</glyph>
<glyph name="five" format="2">
  <advance width="1028.5185185185185"/>
  <unicode hex="0035"/>
  <outline>
    <contour>
      <point x="364.25925925925924" y="1181.9259259259259" type="line"/>
      <point x="865.7901234567901" y="1181.9259259259259" type="line"/>
      <point x="865.7901234567901" y="1345.4197530864199" type="line"/>
      <point x="198.11111111111111" y="1345.4197530864199" type="line"/>
      <point x="156.7283950617284" y="704.5308641975308" type="line"/>
      <point x="254.04938271604937" y="643.0987654320987" type="line"/>
      <point x="332.04938271604937" y="694.4444444444445"/>
      <point x="384.5061728395062" y="720.2098765432099"/>
      <point x="471.96296296296293" y="720.2098765432099" type="curve" smooth="yes"/>
      <point x="643.2222222222223" y="720.2098765432099"/>
      <point x="738.5185185185186" y="599.641975308642"/>
      <point x="738.5185185185186" y="426.9259259259259" type="curve" smooth="yes"/>
      <point x="738.5185185185186" y="246.55555555555554"/>
      <point x="618.5308641975308" y="132.53086419753083"/>
      <point x="463.0" y="132.53086419753083" type="curve" smooth="yes"/>
      <point x="316.01234567901236" y="132.53086419753083"/>
      <point x="227.55555555555554" y="197.98765432098764"/>
      <point x="149.55555555555554" y="274.3703703703703" type="curve"/>
      <point x="58.96296296296296" y="151.30864197530863" type="line"/>
      <point x="151.19753086419752" y="58.074074074074076"/>
      <point x="273.8148148148148" y="-25.0"/>
      <point x="483.4691358024691" y="-25.0" type="curve" smooth="yes"/>
      <point x="715.5925925925926" y="-25.0"/>
      <point x="930.5185185185185" y="141.96296296296296"/>
      <point x="930.5185185185185" y="432.2345679012346" type="curve" smooth="yes"/>
      <point x="930.5185185185185" y="720.1604938271605"/>
      <point x="752.8271604938271" y="861.8888888888889"/>
      <point x="523.2469135802469" y="861.8888888888889" type="curve" smooth="yes"/>
      <point x="447.71604938271605" y="861.8888888888889"/>
      <point x="390.91358024691357" y="843.4691358024692"/>
      <point x="331.4938271604938" y="812.0493827160494" type="curve"/>
    </contour>
  </outline>
</glyph>
<glyph name="six" format="2">
  <advance width="1028.5185185185185"/>
  <unicode hex="0036"/>
  <outline>
    <contour>
      <point x="921.4444444444445" y="1236.8024691358025" type="line"/>
      <point x="847.1728395061729" y="1316.7654320987654"/>
      <point x="744.320987654321" y="1366.7283950617284"/>
      <point x="598.2345679012345" y="1366.7283950617284" type="curve" smooth="yes"/>
      <point x="336.0" y="1366.7283950617284"/>
      <point x="95.76543209876543" y="1161.4938271604938"/>
      <point x="95.76543209876543" y="637.5061728395061" type="curve" smooth="yes"/>
      <point x="95.76543209876543" y="203.1851851851852"/>
      <point x="297.7407407407407" y="-25.0"/>
      <point x="553.4691358024692" y="-25.0" type="curve" smooth="yes"/>
      <point x="767.9382716049382" y="-25.0"/>
      <point x="947.4444444444445" y="147.41975308641975"/>
      <point x="947.4444444444445" y="403.5432098765432" type="curve" smooth="yes"/>
      <point x="947.4444444444445" y="693.8148148148148"/>
      <point x="797.5925925925926" y="837.1604938271605"/>
      <point x="572.5555555555555" y="837.1604938271605" type="curve" smooth="yes"/>
      <point x="471.02469135802465" y="837.1604938271605"/>
      <point x="354.98765432098764" y="781.6666666666666"/>
      <point x="275.2222222222222" y="683.2098765432098" type="curve"/>
      <point x="283.18518518518516" y="1085.4074074074074"/>
      <point x="430.82716049382714" y="1208.851851851852"/>
      <point x="606.4691358024692" y="1208.851851851852" type="curve" smooth="yes"/>
      <point x="687.5061728395061" y="1208.851851851852"/>
      <point x="767.5061728395061" y="1178.1975308641975"/>
      <point x="819.2345679012345" y="1116.432098765432" type="curve"/>
    </contour>
    <contour>
      <point x="552.5061728395061" y="123.95061728395059" type="curve" smooth="yes"/>
      <point x="398.91358024691357" y="123.95061728395059"/>
      <point x="294.6049382716049" y="273.0"/>
      <point x="279.53086419753083" y="536.7654320987655" type="curve"/>
      <point x="362.75308641975306" y="655.3333333333334"/>
      <point x="460.32098765432096" y="695.4814814814815"/>
      <point x="539.7777777777777" y="695.4814814814815" type="curve" smooth="yes"/>
      <point x="690.604938271605" y="695.4814814814815"/>
      <point x="768.9876543209876" y="589.1111111111111"/>
      <point x="768.9876543209876" y="403.5432098765432" type="curve" smooth="yes"/>
      <point x="768.9876543209876" y="233.39506172839506"/>
      <point x="674.8024691358024" y="123.95061728395059"/>
    </contour>
  </outline>
</glyph>
<glyph name="seven" format="2">
  <advance width="1028.5185185185185"/>
  <unicode hex="0037"/>
  <outline>
    <contour>
      <point x="552.2962962962963" y="0.0" type="line"/>
      <point x="570.2962962962963" y="509.69135802469134"/>
      <point x="634.7901234567901" y="837.7901234567902"/>
      <point x="942.5185185185185" y="1228.0493827160494" type="curve"/>
      <point x="942.5185185185185" y="1345.4197530864199" type="line"/>
      <point x="90.0" y="1345.4197530864199" type="line"/>
      <point x="90.0" y="1181.9259259259259" type="line"/>
      <point x="729.5185185185186" y="1181.9259259259259" type="line"/>
      <point x="474.0987654320988" y="826.7777777777778"/>
      <point x="374.60493827160496" y="482.1358024691358"/>
      <point x="355.95061728395063" y="0.0" type="curve"/>
    </contour>
  </outline>
</glyph>
<glyph name="eight" format="2">
  <advance width="1028.5185185185185"/>
  <unicode hex="0038"/>
  <outline>
    <contour>
      <point x="718.1358024691358" y="691.9259259259259" type="line"/>
      <point x="799.4074074074074" y="752.2716049382716"/>
      <point x="896.5555555555555" y="882.6543209876543"/>
      <point x="896.5555555555555" y="1017.0740740740741" type="curve" smooth="yes"/>
      <point x="896.5555555555555" y="1222.6543209876543"/>
      <point x="755.358024691358" y="1366.7283950617284"/>
      <point x="526.7407407407408" y="1366.7283950617284" type="curve" smooth="yes"/>
      <point x="298.34567901234567" y="1366.7283950617284"/>
      <point x="145.11111111111111" y="1228.037037037037"/>
      <point x="145.11111111111111" y="1023.5308641975308" type="curve" smooth="yes"/>
      <point x="145.11111111111111" y="886.1851851851852"/>
      <point x="227.14814814814815" y="778.5679012345679"/>
      <point x="324.8024691358025" y="709.2962962962963" type="curve"/>
      <point x="324.8024691358025" y="701.2962962962963" type="line"/>
      <point x="197.22222222222223" y="636.2962962962963"/>
      <point x="84.30864197530865" y="510.41975308641975"/>
      <point x="84.30864197530865" y="343.0" type="curve" smooth="yes"/>
      <point x="84.30864197530865" y="135.34567901234567"/>
      <point x="268.2345679012346" y="-25.0"/>
      <point x="516.4691358024692" y="-25.0" type="curve" smooth="yes"/>
      <point x="785.9382716049382" y="-25.0"/>
      <point x="944.8271604938271" y="136.0"/>
      <point x="944.8271604938271" y="332.9259259259259" type="curve" smooth="yes"/>
      <point x="944.8271604938271" y="507.61728395061726"/>
      <point x="835.7530864197531" y="615.9259259259259"/>
      <point x="718.1358024691358" y="682.9259259259259" type="curve"/>
    </contour>
    <contour>
      <point x="520.7777777777777" y="114.02469135802467" type="curve" smooth="yes"/>
      <point x="369.71604938271605" y="114.02469135802467"/>
      <point x="253.8395061728395" y="219.66666666666666"/>
      <point x="253.8395061728395" y="359.88888888888886" type="curve" smooth="yes"/>
      <point x="253.8395061728395" y="471.87654320987656"/>
      <point x="323.71604938271605" y="579.0617283950618"/>
      <point x="421.08641975308643" y="645.5185185185186" type="curve"/>
      <point x="605.2716049382716" y="570.7901234567902"/>
      <point x="763.4074074074074" y="498.641975308642"/>
      <point x="763.4074074074074" y="338.88888888888886" type="curve" smooth="yes"/>
      <point x="763.4074074074074" y="209.35802469135803"/>
      <point x="676.8395061728395" y="114.02469135802467"/>
    </contour>
    <contour>
      <point x="606.5432098765432" y="741.7037037037037" type="curve"/>
      <point x="450.59259259259255" y="800.7777777777777"/>
      <point x="318.6049382716049" y="875.8148148148148"/>
      <point x="318.6049382716049" y="1023.5308641975308" type="curve" smooth="yes"/>
      <point x="318.6049382716049" y="1146.0617283950617"/>
      <point x="396.1358024691358" y="1228.0493827160494"/>
      <point x="522.7777777777777" y="1228.0493827160494" type="curve" smooth="yes"/>
      <point x="658.4567901234568" y="1228.0493827160494"/>
      <point x="733.9876543209876" y="1131.7160493827162"/>
      <point x="733.9876543209876" y="1006.8395061728395" type="curve" smooth="yes"/>
      <point x="733.9876543209876" y="915.6172839506173"/>
      <point x="688.4938271604939" y="816.8518518518518"/>
    </contour>
  </outline>
</glyph>
<glyph name="nine" format="2">
  <advance width="1028.5185185185185"/>
  <unicode hex="0039"/>
  <outline>
    <contour>
      <point x="144.7283950617284" y="111.19753086419753" type="line"/>
      <point x="230.96296296296296" y="26.234567901234563"/>
      <point x="327.88888888888886" y="-25.0"/>
      <point x="472.9753086419753" y="-25.0" type="curve" smooth="yes"/>
      <point x="740.9012345679013" y="-25.0"/>
      <point x="930.4074074074074" y="197.54320987654322"/>
      <point x="930.4074074074074" y="703.1851851851852" type="curve" smooth="yes"/>
      <point x="930.4074074074074" y="1176.7777777777778"/>
      <point x="742.1604938271605" y="1368.037037037037"/>
      <point x="479.12345679012344" y="1368.037037037037" type="curve" smooth="yes"/>
      <point x="265.65432098765433" y="1368.037037037037"/>
      <point x="79.41975308641976" y="1186.0740740740741"/>
      <point x="79.41975308641976" y="932.9135802469136" type="curve" smooth="yes"/>
      <point x="79.41975308641976" y="663.9506172839506"/>
      <point x="228.2716049382716" y="504.11111111111114"/>
      <point x="453.96296296296293" y="504.11111111111114" type="curve" smooth="yes"/>
      <point x="556.8395061728395" y="504.11111111111114"/>
      <point x="678.8765432098766" y="557.2592592592592"/>
      <point x="752.641975308642" y="657.3703703703704" type="curve"/>
      <point x="748.2962962962963" y="270.5185185185185"/>
      <point x="642.0370370370371" y="132.53086419753083"/>
      <point x="464.08641975308643" y="132.53086419753083" type="curve" smooth="yes"/>
      <point x="383.358024691358" y="132.53086419753083"/>
      <point x="285.66666666666663" y="174.8395061728395"/>
      <point x="241.93827160493825" y="229.29629629629628" type="curve"/>
    </contour>
    <contour>
      <point x="487.08641975308643" y="645.4444444444445" type="curve" smooth="yes"/>
      <point x="335.91358024691357" y="645.4444444444445"/>
      <point x="257.53086419753083" y="768.3086419753087"/>
      <point x="257.53086419753083" y="932.9135802469136" type="curve" smooth="yes"/>
      <point x="257.53086419753083" y="1101.0987654320988"/>
      <point x="358.09876543209873" y="1220.0864197530864"/>
      <point x="481.7407407407407" y="1220.0864197530864" type="curve" smooth="yes"/>
      <point x="641.9876543209876" y="1220.0864197530864"/>
      <point x="748.3333333333334" y="1078.8024691358025"/>
      <point x="748.3333333333334" y="802.5061728395061" type="curve"/>
      <point x="664.7654320987655" y="682.9382716049382"/>
      <point x="567.5432098765432" y="645.4444444444445"/>
    </contour>
  </outline>
</glyph>
<glyph name="less" format="2">
  <advance width="1028.5185185185185"/>
  <unicode hex="003C"/>
  <outline>
    <contour>
      <point x="958.5185185185185" y="258.7530864197531" type="line"/>
      <point x="958.5185185185185" y="421.9753086419753" type="line"/>
      <point x="264.3086419753086" y="676.0" type="line"/>
      <point x="264.3086419753086" y="684.0" type="line"/>
      <point x="958.5185185185185" y="938.0246913580247" type="line"/>
      <point x="958.5185185185185" y="1101.2469135802469" type="line"/>
      <point x="70.0" y="754.0493827160494" type="line"/>
      <point x="70.0" y="605.9506172839506" type="line"/>
    </contour>
  </outline>
</glyph>
<glyph name="equal" format="2">
  <advance width="1028.5185185185185"/>
  <unicode hex="003D"/>
  <outline>
    <contour>
      <point x="70.0" y="827.8395061728395" type="line"/>
      <point x="958.5185185185185" y="827.8395061728395" type="line"/>
      <point x="958.5185185185185" y="968.8641975308642" type="line"/>
      <point x="70.0" y="968.8641975308642" type="line"/>
    </contour>
    <contour>
      <point x="70.0" y="382.7901234567901" type="line"/>
      <point x="958.5185185185185" y="382.7901234567901" type="line"/>
      <point x="958.5185185185185" y="523.8148148148148" type="line"/>
      <point x="70.0" y="523.8148148148148" type="line"/>
    </contour>
  </outline>
</glyph>
<glyph name="question" format="2">
  <advance width="883.0617283950617"/>
  <unicode hex="003F"/>
  <outline>
    <contour>
      <point x="492.8765432098765" y="417.48148148148147" type="line"/>
      <point x="450.91358024691357" y="701.5432098765432"/>
      <point x="786.9876543209876" y="767.5308641975308"/>
      <point x="786.9876543209876" y="1071.7283950617284" type="curve" smooth="yes"/>
      <point x="786.9876543209876" y="1295.0864197530864"/>
      <point x="652.8271604938271" y="1397.0"/>
      <point x="430.9753086419753" y="1397.0" type="curve" smooth="yes"/>
      <point x="283.8148148148148" y="1397.0"/>
      <point x="161.23456790123456" y="1333.3086419753085"/>
      <point x="73.96296296296296" y="1233.4197530864199" type="curve"/>
      <point x="182.09876543209873" y="1128.9012345679012" type="line"/>
      <point x="244.48148148148147" y="1198.7037037037037"/>
      <point x="314.77777777777777" y="1237.469135802469"/>
      <point x="411.4691358024691" y="1237.469135802469" type="curve" smooth="yes"/>
      <point x="539.1851851851852" y="1237.469135802469"/>
      <point x="602.2592592592592" y="1179.0617283950617"/>
      <point x="602.2592592592592" y="1059.1851851851852" type="curve" smooth="yes"/>
      <point x="602.2592592592592" y="813.6172839506173"/>
      <point x="268.2962962962963" y="738.5432098765432"/>
      <point x="325.41975308641975" y="417.48148148148147" type="curve"/>
    </contour>
    <contour>
      <point x="414.9753086419753" y="-25.0" type="curve" smooth="yes"/>
      <point x="488.679012345679" y="-25.0"/>
      <point x="547.8395061728395" y="33.43209876543209"/>
      <point x="547.8395061728395" y="112.86419753086417" type="curve" smooth="yes"/>
      <point x="547.8395061728395" y="195.29629629629628"/>
      <point x="488.679012345679" y="253.07407407407405"/>
      <point x="414.9753086419753" y="253.07407407407405" type="curve" smooth="yes"/>
      <point x="341.58024691358025" y="253.07407407407405"/>
      <point x="284.41975308641975" y="195.29629629629628"/>
      <point x="284.41975308641975" y="112.86419753086417" type="curve" smooth="yes"/>
      <point x="284.41975308641975" y="33.43209876543209"/>
      <point x="341.58024691358025" y="-25.0"/>
    </contour>
  </outline>
</glyph>
<glyph name="at" format="2">
  <advance width="1754.111111111111"/>
  <unicode hex="0040"/>
  <outline>
    <contour>
      <point x="1176.0123456790122" y="-77.66666666666666" type="line"/>
      <point x="1084.6296296296296" y="-129.74074074074073"/>
      <point x="969.6666666666666" y="-168.0864197530864"/>
      <point x="847.8641975308642" y="-168.0864197530864" type="curve" smooth="yes"/>
      <point x="497.4074074074074" y="-168.0864197530864"/>
      <point x="234.5185185185185" y="59.06172839506174"/>
      <point x="234.5185185185185" y="459.0617283950617" type="curve" smooth="yes"/>
      <point x="234.5185185185185" y="934.5185185185186"/>
      <point x="587.2098765432098" y="1248.1728395061727"/>
      <point x="954.5555555555555" y="1248.1728395061727" type="curve" smooth="yes"/>
      <point x="1332.3333333333333" y="1248.1728395061727"/>
      <point x="1522.9012345679012" y="997.7407407407408"/>
      <point x="1522.9012345679012" y="673.7901234567902" type="curve" smooth="yes"/>
      <point x="1522.9012345679012" y="414.4938271604938"/>
      <point x="1383.4444444444443" y="259.38271604938274"/>
      <point x="1255.4074074074074" y="259.38271604938274" type="curve" smooth="yes"/>
      <point x="1145.9135802469136" y="259.38271604938274"/>
      <point x="1107.8395061728395" y="333.87654320987656"/>
      <point x="1147.2592592592591" y="488.2098765432099" type="curve"/>
      <point x="1229.4938271604938" y="904.5679012345679" type="line"/>
      <point x="1105.3950617283951" y="904.5679012345679" type="line"/>
      <point x="1081.7777777777778" y="821.9135802469136" type="line"/>
      <point x="1077.7777777777778" y="821.9135802469136" type="line"/>
      <point x="1040.0864197530864" y="890.8765432098766"/>
      <point x="984.7407407407408" y="921.2222222222223"/>
      <point x="914.7037037037037" y="921.2222222222223" type="curve" smooth="yes"/>
      <point x="676.0123456790124" y="921.2222222222223"/>
      <point x="518.1975308641976" y="671.7283950617284"/>
      <point x="518.1975308641976" y="442.0987654320988" type="curve" smooth="yes"/>
      <point x="518.1975308641976" y="254.44444444444446"/>
      <point x="624.8518518518518" y="149.90123456790127"/>
      <point x="768.358024691358" y="149.90123456790127" type="curve" smooth="yes"/>
      <point x="868.8641975308642" y="149.90123456790127"/>
      <point x="951.6296296296296" y="208.5925925925926"/>
      <point x="1017.0493827160494" y="287.9382716049383" type="curve"/>
      <point x="1021.7037037037037" y="287.9382716049383" type="line"/>
      <point x="1036.9753086419753" y="186.90123456790127"/>
      <point x="1124.9012345679012" y="132.93827160493828"/>
      <point x="1236.8641975308642" y="132.93827160493828" type="curve" smooth="yes"/>
      <point x="1427.641975308642" y="132.93827160493828"/>
      <point x="1650.111111111111" y="319.24691358024694"/>
      <point x="1650.111111111111" y="679.7901234567902" type="curve" smooth="yes"/>
      <point x="1650.111111111111" y="1088.2592592592594"/>
      <point x="1387.6049382716049" y="1366.7283950617284"/>
      <point x="968.8271604938271" y="1366.7283950617284" type="curve" smooth="yes"/>
      <point x="503.5061728395062" y="1366.7283950617284"/>
      <point x="103.03703703703704" y="1005.8765432098766"/>
      <point x="103.03703703703704" y="453.0617283950617" type="curve" smooth="yes"/>
      <point x="103.03703703703704" y="-32.25925925925923"/>
      <point x="431.01234567901236" y="-286.98765432098764"/>
      <point x="833.9382716049382" y="-286.98765432098764" type="curve" smooth="yes"/>
      <point x="975.9012345679013" y="-286.98765432098764"/>
      <point x="1105.5555555555554" y="-254.95061728395058"/>
      <point x="1224.5185185185185" y="-183.91358024691357" type="curve"/>
    </contour>
    <contour>
      <point x="985.1975308641976" y="392.5679012345679" type="line"/>
      <point x="925.9012345679013" y="313.7283950617284"/>
      <point x="860.5555555555555" y="276.34567901234567"/>
      <point x="805.4444444444445" y="276.34567901234567" type="curve" smooth="yes"/>
      <point x="725.9876543209876" y="276.34567901234567"/>
      <point x="668.4938271604938" y="324.14814814814815"/>
      <point x="668.4938271604938" y="453.3703703703704" type="curve" smooth="yes"/>
      <point x="668.4938271604938" y="605.8641975308642"/>
      <point x="762.679012345679" y="791.4691358024692"/>
      <point x="918.320987654321" y="791.4691358024692" type="curve" smooth="yes"/>
      <point x="971.0864197530864" y="791.4691358024692"/>
      <point x="1007.1234567901234" y="769.1234567901234"/>
      <point x="1042.9259259259259" y="709.9382716049383" type="curve"/>
    </contour>
  </outline>
</glyph>
<glyph name="A" format="2">
  <advance width="1113.4814814814815"/>
  <unicode hex="0041"/>
  <anchor x="556.7407407407408" y="-234.56790123456796" name="btm"/>
  <anchor x="556.7407407407408" y="1073.0864197530868" name="top"/>
  <outline>
    <contour>
      <point x="-2.2345679012345645" y="0.0" type="line"/>
      <point x="193.41975308641972" y="0.0" type="line"/>
      <point x="314.7901234567901" y="394.70370370370375" type="line"/>
      <point x="791.7283950617284" y="394.70370370370375" type="line"/>
      <point x="912.7530864197531" y="0.0" type="line"/>
      <point x="1116.3703703703704" y="0.0" type="line"/>
      <point x="667.1111111111111" y="1342.0740740740741" type="line"/>
      <point x="446.71604938271605" y="1342.0740740740741" type="line"/>
    </contour>
    <contour>
      <point x="360.29629629629625" y="547.6172839506173" type="line"/>
      <point x="421.55555555555554" y="739.2469135802469" type="line"/>
      <point x="466.9753086419753" y="885.7037037037037"/>
      <point x="509.358024691358" y="1034.6296296296296"/>
      <point x="549.4320987654321" y="1188.0864197530864" type="curve"/>
      <point x="557.7777777777777" y="1188.0864197530864" type="line"/>
      <point x="599.1604938271605" y="1035.283950617284"/>
      <point x="641.2345679012345" y="885.7037037037037"/>
      <point x="686.9629629629629" y="739.2469135802469" type="curve" smooth="yes"/>
      <point x="746.2222222222223" y="547.6172839506173" type="line"/>
    </contour>
  </outline>
</glyph>
<glyph name="B" format="2">
  <advance width="1201.0123456790122"/>
  <unicode hex="0042"/>
  <anchor x="600.5061728395061" y="0.0" name="bottom"/>
  <anchor x="594.6296296296296" y="1342.0740740740741" name="top"/>
  <outline>
    <contour>
      <point x="174.83950617283952" y="0.0" type="line"/>
      <point x="621.6296296296296" y="0.0" type="line"/>
      <point x="919.358024691358" y="0.0"/>
      <point x="1125.2469135802469" y="126.41975308641976"/>
      <point x="1125.2469135802469" y="396.30864197530866" type="curve" smooth="yes"/>
      <point x="1125.2469135802469" y="581.6913580246913"/>
      <point x="1013.1358024691358" y="694.6913580246913"/>
      <point x="817.7530864197531" y="713.7283950617284" type="curve"/>
      <point x="817.7530864197531" y="721.7283950617284" type="line"/>
      <point x="985.4444444444445" y="758.7283950617284"/>
      <point x="1050.8271604938273" y="884.9629629629629"/>
      <point x="1050.8271604938273" y="1017.7283950617284" type="curve" smooth="yes"/>
      <point x="1050.8271604938273" y="1260.2345679012346"/>
      <point x="867.5925925925926" y="1342.0740740740741"/>
      <point x="591.358024691358" y="1342.0740740740741" type="curve" smooth="yes"/>
      <point x="174.83950617283952" y="1342.0740740740741" type="line"/>
    </contour>
    <contour>
      <point x="368.4938271604938" y="151.25925925925924" type="line"/>
      <point x="368.4938271604938" y="633.1358024691358" type="line"/>
      <point x="599.9012345679013" y="633.1358024691358" type="line"/>
      <point x="823.7654320987655" y="633.1358024691358"/>
      <point x="936.5555555555555" y="565.9135802469136"/>
      <point x="936.5555555555555" y="407.1975308641975" type="curve" smooth="yes"/>
      <point x="936.5555555555555" y="230.7901234567901"/>
      <point x="815.4567901234568" y="151.25925925925924"/>
      <point x="597.283950617284" y="151.25925925925924" type="curve" smooth="yes"/>
    </contour>
    <contour>
      <point x="368.4938271604938" y="774.4691358024692" type="line"/>
      <point x="368.4938271604938" y="1190.8148148148148" type="line"/>
      <point x="574.5555555555555" y="1190.8148148148148" type="line"/>
      <point x="770.4197530864197" y="1190.8148148148148"/>
      <point x="861.7901234567902" y="1137.320987654321"/>
      <point x="861.7901234567902" y="997.2962962962963" type="curve" smooth="yes"/>
      <point x="861.7901234567902" y="853.9259259259259"/>
      <point x="777.5308641975308" y="774.4691358024692"/>
      <point x="562.9012345679013" y="774.4691358024692" type="curve" smooth="yes"/>
    </contour>
  </outline>
</glyph>
<glyph name="C" format="2">
  <advance width="1163.7777777777778"/>
  <unicode hex="0043"/>
  <anchor x="678.7037037037037" y="0.0" name="bottom"/>
  <anchor x="695.358024691358" y="1426.4197530864199" name="top"/>
  <outline>
    <contour>
      <point x="993.8765432098766" y="285.71604938271605" type="line"/>
      <point x="910.7283950617284" y="193.53086419753083"/>
      <point x="818.2716049382716" y="143.4938271604938"/>
      <point x="693.4691358024692" y="143.4938271604938" type="curve" smooth="yes"/>
      <point x="447.679012345679" y="143.4938271604938"/>
      <point x="297.037037037037" y="340.2469135802469"/>
      <point x="297.037037037037" y="676.0370370370371" type="curve" smooth="yes"/>
      <point x="297.037037037037" y="1006.8641975308642"/>
      <point x="457.6049382716049" y="1199.2345679012346"/>
      <point x="701.4691358024692" y="1199.2345679012346" type="curve" smooth="yes"/>
      <point x="809.6172839506173" y="1199.2345679012346"/>
      <point x="897.7283950617284" y="1153.8148148148148"/>
      <point x="968.4197530864197" y="1081.0493827160494" type="curve"/>
      <point x="1076.5555555555554" y="1202.111111111111" type="line"/>
      <point x="994.9753086419753" y="1290.7283950617284"/>
      <point x="860.1234567901234" y="1366.7283950617284"/>
      <point x="699.1604938271605" y="1366.7283950617284" type="curve" smooth="yes"/>
      <point x="355.1604938271605" y="1366.7283950617284"/>
      <point x="98.72839506172839" y="1115.3086419753085"/>
      <point x="98.72839506172839" y="669.4197530864197" type="curve" smooth="yes"/>
      <point x="98.72839506172839" y="219.22222222222223"/>
      <point x="350.1975308641975" y="-25.0"/>
      <point x="689.4691358024692" y="-25.0" type="curve" smooth="yes"/>
      <point x="858.8518518518518" y="-25.0"/>
      <point x="996.0493827160494" y="44.69135802469136"/>
      <point x="1102.0123456790122" y="168.30864197530863" type="curve"/>
    </contour>
  </outline>
</glyph>
<glyph name="D" format="2">
  <advance width="1260.320987654321"/>
  <unicode hex="0044"/>
  <anchor x="630.1604938271605" y="0.0" name="bottom"/>
  <anchor x="630.1604938271605" y="671.0370370370371" name="center"/>
  <anchor x="630.1604938271605" y="1342.0740740740741" name="top"/>
  <outline>
    <contour>
      <point x="174.83950617283952" y="0.0" type="line"/>
      <point x="532.395061728395" y="0.0" type="line"/>
      <point x="935.8518518518518" y="0.0"/>
      <point x="1157.5925925925926" y="240.87654320987656"/>
      <point x="1157.5925925925926" y="678.3456790123457" type="curve" smooth="yes"/>
      <point x="1157.5925925925926" y="1119.0493827160494"/>
      <point x="944.4691358024692" y="1342.0740740740741"/>
      <point x="528.8148148148148" y="1342.0740740740741" type="curve" smooth="yes"/>
      <point x="174.83950617283952" y="1342.0740740740741" type="line"/>
    </contour>
    <contour>
      <point x="368.4938271604938" y="156.8765432098765" type="line"/>
      <point x="368.4938271604938" y="1185.1975308641975" type="line"/>
      <point x="515.8518518518518" y="1185.1975308641975" type="line"/>
      <point x="818.1358024691358" y="1185.1975308641975"/>
      <point x="959.9382716049383" y="1021.4567901234568"/>
      <point x="959.9382716049383" y="678.3456790123457" type="curve" smooth="yes"/>
      <point x="959.9382716049383" y="337.1975308641975"/>
      <point x="809.8641975308642" y="156.8765432098765"/>
      <point x="509.85185185185185" y="156.8765432098765" type="curve" smooth="yes"/>
    </contour>
  </outline>
</glyph>
<glyph name="E" format="2">
  <advance width="1076.9382716049383"/>
  <unicode hex="0045"/>
  <anchor x="577.2716049382716" y="-234.56790123456796" name="btm"/>
  <anchor x="566.1481481481482" y="1073.0864197530868" name="top"/>
  <outline>
    <contour>
      <point x="174.83950617283952" y="0.0" type="line"/>
      <point x="980.358024691358" y="0.0" type="line"/>
      <point x="980.358024691358" y="163.4938271604938" type="line"/>
      <point x="368.4938271604938" y="163.4938271604938" type="line"/>
      <point x="368.4938271604938" y="621.5555555555555" type="line"/>
      <point x="867.2469135802469" y="621.5555555555555" type="line"/>
      <point x="867.2469135802469" y="783.7407407407408" type="line"/>
      <point x="368.4938271604938" y="783.7407407407408" type="line"/>
      <point x="368.4938271604938" y="1180.2345679012346" type="line"/>
      <point x="959.358024691358" y="1180.2345679012346" type="line"/>
      <point x="959.358024691358" y="1342.0740740740741" type="line"/>
      <point x="174.83950617283952" y="1342.0740740740741" type="line"/>
    </contour>
  </outline>
</glyph>
<glyph name="F" format="2">
  <advance width="1013.1358024691358"/>
  <unicode hex="0046"/>
  <anchor x="506.7407407407407" y="0.0" name="bottom"/>
  <anchor x="540.962962962963" y="1342.0740740740741" name="top"/>
  <outline>
    <contour>
      <point x="174.83950617283952" y="0.0" type="line"/>
      <point x="368.4938271604938" y="0.0" type="line"/>
      <point x="368.4938271604938" y="587.6296296296297" type="line"/>
      <point x="871.5555555555555" y="587.6296296296297" type="line"/>
      <point x="871.5555555555555" y="749.4691358024692" type="line"/>
      <point x="368.4938271604938" y="749.4691358024692" type="line"/>
      <point x="368.4938271604938" y="1180.2345679012346" type="line"/>
      <point x="961.320987654321" y="1180.2345679012346" type="line"/>
      <point x="961.320987654321" y="1342.0740740740741" type="line"/>
      <point x="174.83950617283952" y="1342.0740740740741" type="line"/>
    </contour>
  </outline>
</glyph>
<glyph name="G" format="2">
  <advance width="1261.2839506172838"/>
  <unicode hex="0047"/>
  <anchor x="694.283950617284" y="0.0" name="bottom"/>
  <anchor x="714.0617283950617" y="1358.432098765432" name="top"/>
  <outline>
    <contour>
      <point x="1132.8271604938273" y="705.2469135802469" type="line"/>
      <point x="690.1975308641976" y="705.2469135802469" type="line"/>
      <point x="690.1975308641976" y="546.716049382716" type="line"/>
      <point x="959.0246913580247" y="546.716049382716" type="line"/>
      <point x="959.0246913580247" y="216.7901234567901" type="line"/>
      <point x="908.5308641975308" y="171.25925925925924"/>
      <point x="820.2716049382716" y="143.4938271604938"/>
      <point x="731.5925925925926" y="143.4938271604938" type="curve" smooth="yes"/>
      <point x="449.679012345679" y="143.4938271604938"/>
      <point x="297.3827160493827" y="335.9382716049383"/>
      <point x="297.3827160493827" y="672.3827160493827" type="curve" smooth="yes"/>
      <point x="297.3827160493827" y="1013.5185185185186"/>
      <point x="465.6049382716049" y="1199.2345679012346"/>
      <point x="727.0864197530864" y="1199.2345679012346" type="curve" smooth="yes"/>
      <point x="857.2716049382716" y="1199.2345679012346"/>
      <point x="938.7283950617284" y="1153.469135802469"/>
      <point x="1006.7283950617284" y="1084.3950617283951" type="curve"/>
      <point x="1115.8641975308642" y="1205.4567901234568" type="line"/>
      <point x="1034.2839506172838" y="1288.7283950617284"/>
      <point x="908.4320987654321" y="1366.7283950617284"/>
      <point x="724.7777777777777" y="1366.7283950617284" type="curve" smooth="yes"/>
      <point x="363.1604938271605" y="1366.7283950617284"/>
      <point x="98.72839506172839" y="1126.6172839506173"/>
      <point x="98.72839506172839" y="667.7654320987655" type="curve" smooth="yes"/>
      <point x="98.72839506172839" y="213.9135802469136"/>
      <point x="355.1604938271605" y="-25.0"/>
      <point x="709.7407407407408" y="-25.0" type="curve" smooth="yes"/>
      <point x="891.358024691358" y="-25.0"/>
      <point x="1043.5555555555554" y="46.2716049382716"/>
      <point x="1132.8271604938273" y="131.96296296296296" type="curve"/>
    </contour>
  </outline>
</glyph>
<glyph name="H" format="2">
  <advance width="1332.9382716049383"/>
  <unicode hex="0048"/>
  <anchor x="666.4691358024692" y="0.0" name="bottom"/>
  <anchor x="666.4691358024692" y="671.0370370370371" name="center"/>
  <anchor x="666.4691358024692" y="1342.0740740740741" name="top"/>
  <outline>
    <contour>
      <point x="174.83950617283952" y="0.0" type="line"/>
      <point x="368.4938271604938" y="0.0" type="line"/>
      <point x="368.4938271604938" y="620.2469135802469" type="line"/>
      <point x="966.0987654320987" y="620.2469135802469" type="line"/>
      <point x="966.0987654320987" y="0.0" type="line"/>
      <point x="1157.7530864197531" y="0.0" type="line"/>
      <point x="1157.7530864197531" y="1342.0740740740741" type="line"/>
      <point x="966.0987654320987" y="1342.0740740740741" type="line"/>
      <point x="966.0987654320987" y="787.358024691358" type="line"/>
      <point x="368.4938271604938" y="787.358024691358" type="line"/>
      <point x="368.4938271604938" y="1342.0740740740741" type="line"/>
      <point x="174.83950617283952" y="1342.0740740740741" type="line"/>
    </contour>
  </outline>
</glyph>
<glyph name="I" format="2">
  <advance width="542.3333333333333"/>
  <unicode hex="0049"/>
  <anchor x="271.66666666666663" y="0.0" name="bottom"/>
  <anchor x="488.0617283950617" y="10.0" name="ogonek"/>
  <anchor x="271.66666666666663" y="1342.0740740740741" name="top"/>
  <outline>
    <contour>
      <point x="174.83950617283952" y="0.0" type="line"/>
      <point x="368.4938271604938" y="0.0" type="line"/>
      <point x="368.4938271604938" y="1342.0740740740741" type="line"/>
      <point x="174.83950617283952" y="1342.0740740740741" type="line"/>
    </contour>
  </outline>
</glyph>
<glyph name="J" format="2">
  <advance width="982.4814814814814"/>
  <unicode hex="004A"/>
  <anchor x="491.7407407407407" y="0.0" name="bottom"/>
  <anchor x="491.7407407407407" y="1342.0740740740741" name="top"/>
  <outline>
    <contour>
      <point x="814.2962962962963" y="1342.0740740740741" type="line"/>
      <point x="621.641975308642" y="1342.0740740740741" type="line"/>
      <point x="621.641975308642" y="414.2469135802469" type="line"/>
      <point x="621.641975308642" y="213.71604938271602"/>
      <point x="554.5308641975308" y="143.4938271604938"/>
      <point x="416.9259259259259" y="143.4938271604938" type="curve" smooth="yes"/>
      <point x="325.04938271604937" y="143.4938271604938"/>
      <point x="249.320987654321" y="188.4938271604938"/>
      <point x="188.9012345679012" y="290.9506172839506" type="curve"/>
      <point x="54.22222222222223" y="194.12345679012344" type="line"/>
      <point x="134.76543209876544" y="49.96296296296296"/>
      <point x="260.0" y="-25.0"/>
      <point x="435.7407407407407" y="-25.0" type="curve" smooth="yes"/>
      <point x="704.8271604938271" y="-25.0"/>
      <point x="814.2962962962963" y="160.50617283950618"/>
      <point x="814.2962962962963" y="396.32098765432096" type="curve" smooth="yes"/>
    </contour>
  </outline>
</glyph>
<glyph name="K" format="2">
  <advance width="1188.716049382716"/>
  <unicode hex="004B"/>
  <anchor x="594.358024691358" y="0.0" name="bottom"/>
  <anchor x="594.358024691358" y="1342.0740740740741" name="top"/>
  <outline>
    <contour>
      <point x="174.83950617283952" y="0.0" type="line"/>
      <point x="368.4938271604938" y="0.0" type="line"/>
      <point x="368.4938271604938" y="414.51851851851853" type="line"/>
      <point x="585.7407407407408" y="675.3827160493828" type="line"/>
      <point x="973.9876543209876" y="0.0" type="line"/>
      <point x="1187.9135802469136" y="0.0" type="line"/>
      <point x="703.5308641975308" y="826.5679012345679" type="line"/>
      <point x="1121.9876543209875" y="1342.0740740740741" type="line"/>
      <point x="905.0617283950618" y="1342.0740740740741" type="line"/>
      <point x="372.4938271604938" y="686.8024691358024" type="line"/>
      <point x="368.4938271604938" y="686.8024691358024" type="line"/>
      <point x="368.4938271604938" y="1342.0740740740741" type="line"/>
      <point x="174.83950617283952" y="1342.0740740740741" type="line"/>
    </contour>
  </outline>
</glyph>
<glyph name="L" format="2">
  <advance width="996.4444444444445"/>
  <unicode hex="004C"/>
  <anchor x="541.604938271605" y="-234.56790123456796" name="btm"/>
  <anchor x="676.8765432098766" y="1020.0123456790124" name="car"/>
  <anchor x="711.6419753086419" y="774.6172839506173" name="dot"/>
  <anchor x="277.28395061728395" y="1073.0864197530868" name="top"/>
  <outline>
    <contour>
      <point x="174.83950617283952" y="0.0" type="line"/>
      <point x="944.283950617284" y="0.0" type="line"/>
      <point x="944.283950617284" y="163.4938271604938" type="line"/>
      <point x="368.4938271604938" y="163.4938271604938" type="line"/>
      <point x="368.4938271604938" y="1342.0740740740741" type="line"/>
      <point x="174.83950617283952" y="1342.0740740740741" type="line"/>
    </contour>
  </outline>
</glyph>
<glyph name="M" format="2">
  <advance width="1492.716049382716"/>
  <unicode hex="004D"/>
  <anchor x="746.358024691358" y="0.0" name="bottom"/>
  <anchor x="746.358024691358" y="1342.0740740740741" name="top"/>
  <outline>
    <contour>
      <point x="166.22222222222223" y="0.0" type="line"/>
      <point x="343.641975308642" y="0.0" type="line"/>
      <point x="343.641975308642" y="697.925925925926" type="line"/>
      <point x="343.641975308642" y="818.8148148148149"/>
      <point x="338.3333333333333" y="984.9012345679013"/>
      <point x="328.71604938271605" y="1104.8271604938273" type="curve"/>
      <point x="336.71604938271605" y="1104.8271604938273" type="line"/>
      <point x="443.71604938271605" y="804.2098765432099" type="line"/>
      <point x="692.4691358024692" y="132.14814814814815" type="line"/>
      <point x="794.283950617284" y="132.14814814814815" type="line"/>
      <point x="1042.6913580246915" y="804.2098765432099" type="line"/>
      <point x="1150.0" y="1104.8271604938273" type="line"/>
      <point x="1158.0" y="1104.8271604938273" type="line"/>
      <point x="1148.3827160493827" y="984.9012345679013"/>
      <point x="1141.4197530864199" y="818.8148148148149"/>
      <point x="1141.4197530864199" y="697.925925925926" type="curve" smooth="yes"/>
      <point x="1143.4197530864199" y="0.0" type="line"/>
      <point x="1325.148148148148" y="0.0" type="line"/>
      <point x="1306.2592592592591" y="1342.0740740740741" type="line"/>
      <point x="1094.111111111111" y="1342.0740740740741" type="line"/>
      <point x="844.4691358024692" y="641.8024691358024" type="line"/>
      <point x="752.0123456790124" y="373.8148148148148" type="line"/>
      <point x="744.0123456790124" y="373.8148148148148" type="line"/>
      <point x="650.5555555555555" y="641.8024691358024" type="line"/>
      <point x="396.6049382716049" y="1342.0740740740741" type="line"/>
      <point x="183.45679012345678" y="1342.0740740740741" type="line"/>
    </contour>
  </outline>
</glyph>
<glyph name="N" format="2">
  <advance width="1322.320987654321"/>
  <unicode hex="004E"/>
  <anchor x="661.1604938271605" y="0.0" name="bottom"/>
  <anchor x="661.1604938271605" y="1342.0740740740741" name="top"/>
  <outline>
    <contour>
      <point x="174.83950617283952" y="0.0" type="line"/>
      <point x="357.8765432098765" y="0.0" type="line"/>
      <point x="357.8765432098765" y="664.4320987654321" type="line"/>
      <point x="357.8765432098765" y="808.6296296296297"/>
      <point x="343.29629629629625" y="957.3703703703704"/>
      <point x="333.3333333333333" y="1094.9506172839506" type="curve"/>
      <point x="342.3333333333333" y="1094.9506172839506" type="line"/>
      <point x="484.4444444444444" y="815.716049382716" type="line"/>
      <point x="947.1728395061729" y="0.0" type="line"/>
      <point x="1146.4814814814815" y="0.0" type="line"/>
      <point x="1146.4814814814815" y="1342.0740740740741" type="line"/>
      <point x="963.4444444444445" y="1342.0740740740741" type="line"/>
      <point x="963.4444444444445" y="684.679012345679" type="line"/>
      <point x="963.4444444444445" y="541.1358024691358"/>
      <point x="979.0246913580247" y="383.0864197530864"/>
      <point x="987.9876543209876" y="247.1234567901234" type="curve"/>
      <point x="979.9876543209876" y="247.1234567901234" type="line"/>
      <point x="837.2222222222223" y="528.6666666666666" type="line"/>
      <point x="372.4938271604938" y="1342.0740740740741" type="line"/>
      <point x="174.83950617283952" y="1342.0740740740741" type="line"/>
    </contour>
  </outline>
</glyph>
<glyph name="O" format="2">
  <advance width="1358.2839506172838"/>
  <unicode hex="004F"/>
  <anchor x="677.8148148148148" y="-234.56790123456796" name="btm"/>
  <anchor x="677.8148148148148" y="1073.0864197530868" name="top"/>
  <outline>
    <contour>
      <point x="677.8148148148148" y="-25.0" type="curve" smooth="yes"/>
      <point x="1028.5925925925926" y="-25.0"/>
      <point x="1257.9012345679012" y="231.45679012345678"/>
      <point x="1257.9012345679012" y="675.3456790123457" type="curve" smooth="yes"/>
      <point x="1257.9012345679012" y="1115.9259259259259"/>
      <point x="1028.5925925925926" y="1366.7283950617284"/>
      <point x="677.8148148148148" y="1366.7283950617284" type="curve" smooth="yes"/>
      <point x="326.69135802469134" y="1366.7283950617284"/>
      <point x="98.72839506172839" y="1117.5802469135801"/>
      <point x="98.72839506172839" y="675.3456790123457" type="curve" smooth="yes"/>
      <point x="98.72839506172839" y="231.45679012345678"/>
      <point x="326.69135802469134" y="-25.0"/>
    </contour>
    <contour>
      <point x="677.8148148148148" y="143.4938271604938" type="curve" smooth="yes"/>
      <point x="439.0617283950617" y="143.4938271604938"/>
      <point x="297.037037037037" y="342.2098765432099"/>
      <point x="297.037037037037" y="675.3456790123457" type="curve" smooth="yes"/>
      <point x="297.037037037037" y="1006.1728395061729"/>
      <point x="439.0617283950617" y="1199.2345679012346"/>
      <point x="677.8148148148148" y="1199.2345679012346" type="curve" smooth="yes"/>
      <point x="914.5679012345679" y="1199.2345679012346"/>
      <point x="1059.5925925925926" y="1006.1728395061729"/>
      <point x="1059.5925925925926" y="675.3456790123457" type="curve" smooth="yes"/>
      <point x="1059.5925925925926" y="342.2098765432099"/>
      <point x="914.5679012345679" y="143.4938271604938"/>
    </contour>
  </outline>
</glyph>
<glyph name="P" format="2">
  <advance width="1180.79012345679"/>
  <unicode hex="0050"/>
  <anchor x="590.395061728395" y="0.0" name="bottom"/>
  <anchor x="590.395061728395" y="1342.0740740740741" name="top"/>
  <outline>
    <contour>
      <point x="174.83950617283952" y="0.0" type="line"/>
      <point x="368.4938271604938" y="0.0" type="line"/>
      <point x="368.4938271604938" y="504.01234567901236" type="line"/>
      <point x="610.5555555555555" y="504.01234567901236" type="line"/>
      <point x="908.9382716049382" y="504.01234567901236"/>
      <point x="1100.0617283950617" y="648.2469135802469"/>
      <point x="1100.0617283950617" y="935.0246913580247" type="curve" smooth="yes"/>
      <point x="1100.0617283950617" y="1235.4567901234568"/>
      <point x="914.8641975308642" y="1342.0740740740741"/>
      <point x="608.5555555555555" y="1342.0740740740741" type="curve" smooth="yes"/>
      <point x="174.83950617283952" y="1342.0740740740741" type="line"/>
    </contour>
    <contour>
      <point x="368.4938271604938" y="660.2345679012345" type="line"/>
      <point x="368.4938271604938" y="1187.5061728395062" type="line"/>
      <point x="589.4814814814814" y="1187.5061728395062" type="line"/>
      <point x="815.6913580246913" y="1187.5061728395062"/>
      <point x="910.0246913580247" y="1120.7777777777778"/>
      <point x="910.0246913580247" y="935.0246913580247" type="curve" smooth="yes"/>
      <point x="910.0246913580247" y="753.6172839506173"/>
      <point x="819.3827160493827" y="660.2345679012345"/>
      <point x="588.8641975308642" y="660.2345679012345" type="curve" smooth="yes"/>
    </contour>
  </outline>
</glyph>
<glyph name="Q" format="2">
  <advance width="1358.2839506172838"/>
  <unicode hex="0051"/>
  <anchor x="679.4691358024692" y="0.0" name="bottom"/>
  <anchor x="679.4691358024692" y="1342.0740740740741" name="top"/>
  <outline>
    <contour>
      <point x="1254.4444444444443" y="-160.2098765432099" type="line"/>
      <point x="1217.79012345679" y="-170.8641975308642"/>
      <point x="1164.20987654321" y="-181.51851851851853"/>
      <point x="1104.8641975308642" y="-181.51851851851853" type="curve" smooth="yes"/>
      <point x="964.2592592592592" y="-181.51851851851853"/>
      <point x="832.3333333333333" y="-127.64197530864199"/>
      <point x="788.8765432098766" y="-13.111111111111114" type="curve"/>
      <point x="1069.4074074074074" y="39.66666666666666"/>
      <point x="1255.2839506172838" y="285.1975308641975"/>
      <point x="1255.2839506172838" y="677.0370370370371" type="curve" smooth="yes"/>
      <point x="1255.2839506172838" y="1115.2716049382716"/>
      <point x="1025.6296296296296" y="1366.7283950617284"/>
      <point x="674.5061728395061" y="1366.7283950617284" type="curve" smooth="yes"/>
      <point x="324.38271604938274" y="1366.7283950617284"/>
      <point x="95.41975308641976" y="1117.2716049382716"/>
      <point x="95.41975308641976" y="677.0370370370371" type="curve" smooth="yes"/>
      <point x="95.41975308641976" y="276.61728395061726"/>
      <point x="290.87654320987656" y="27.12345679012345"/>
      <point x="581.9135802469136" y="-16.7283950617284" type="curve"/>
      <point x="650.5679012345679" y="-208.8148148148148"/>
      <point x="829.9259259259259" y="-340.4320987654321"/>
      <point x="1083.6666666666667" y="-340.4320987654321" type="curve" smooth="yes"/>
      <point x="1167.4814814814815" y="-340.4320987654321"/>
      <point x="1249.0246913580247" y="-323.4691358024691"/>
      <point x="1290.9506172839506" y="-307.5432098765432" type="curve"/>
    </contour>
    <contour>
      <point x="674.5061728395061" y="143.4938271604938" type="curve" smooth="yes"/>
      <point x="438.4074074074074" y="143.4938271604938"/>
      <point x="294.074074074074" y="345.55555555555554"/>
      <point x="294.074074074074" y="677.0370370370371" type="curve" smooth="yes"/>
      <point x="294.074074074074" y="1006.5185185185186"/>
      <point x="438.4074074074074" y="1199.2345679012346"/>
      <point x="674.5061728395061" y="1199.2345679012346" type="curve" smooth="yes"/>
      <point x="910.604938271605" y="1199.2345679012346"/>
      <point x="1055.283950617284" y="1006.5185185185186"/>
      <point x="1055.283950617284" y="677.0370370370371" type="curve" smooth="yes"/>
      <point x="1055.283950617284" y="345.55555555555554"/>
      <point x="910.604938271605" y="143.4938271604938"/>
    </contour>
  </outline>
</glyph>
<glyph name="R" format="2">
  <advance width="1193.716049382716"/>
  <unicode hex="0052"/>
  <anchor x="597.358024691358" y="0.0" name="bottom"/>
  <anchor x="597.358024691358" y="1342.0740740740741" name="top"/>
  <outline>
    <contour>
      <point x="174.83950617283952" y="0.0" type="line"/>
      <point x="368.4938271604938" y="0.0" type="line"/>
      <point x="368.4938271604938" y="553.0123456790124" type="line"/>
      <point x="605.0493827160494" y="553.0123456790124" type="line"/>
      <point x="908.9506172839506" y="0.0" type="line"/>
      <point x="1127.8395061728395" y="0.0" type="line"/>
      <point x="800.1234567901234" y="579.4444444444445" type="line"/>
      <point x="975.8024691358024" y="627.604938271605"/>
      <point x="1083.3703703703704" y="742.9135802469136"/>
      <point x="1083.3703703703704" y="961.3333333333334" type="curve" smooth="yes"/>
      <point x="1083.3703703703704" y="1253.037037037037"/>
      <point x="893.5555555555555" y="1342.0740740740741"/>
      <point x="619.6296296296296" y="1342.0740740740741" type="curve" smooth="yes"/>
      <point x="174.83950617283952" y="1342.0740740740741" type="line"/>
    </contour>
    <contour>
      <point x="368.4938271604938" y="708.8888888888889" type="line"/>
      <point x="368.4938271604938" y="1187.5061728395062" type="line"/>
      <point x="594.6296296296296" y="1187.5061728395062" type="line"/>
      <point x="795.0370370370371" y="1187.5061728395062"/>
      <point x="891.9876543209876" y="1136.0123456790125"/>
      <point x="891.9876543209876" y="961.3333333333334" type="curve" smooth="yes"/>
      <point x="891.9876543209876" y="782.6913580246913"/>
      <point x="793.0740740740741" y="708.8888888888889"/>
      <point x="592.0123456790124" y="708.8888888888889" type="curve" smooth="yes"/>
    </contour>
  </outline>
</glyph>
<glyph name="S" format="2">
  <advance width="1091.9382716049383"/>
  <unicode hex="0053"/>
  <anchor x="546.4691358024692" y="0.0" name="bottom"/>
  <anchor x="546.4691358024692" y="1342.0740740740741" name="top"/>
  <outline>
    <contour>
      <point x="551.2962962962963" y="802.5061728395061" type="line"/>
      <point x="444.71604938271605" y="848.1604938271605"/>
      <point x="333.4938271604938" y="901.9259259259259"/>
      <point x="333.4938271604938" y="1022.9506172839506" type="curve" smooth="yes"/>
      <point x="333.4938271604938" y="1136.6296296296296"/>
      <point x="429.4444444444444" y="1199.2345679012346"/>
      <point x="572.4691358024692" y="1199.2345679012346" type="curve" smooth="yes"/>
      <point x="694.5802469135803" y="1199.2345679012346"/>
      <point x="789.6913580246913" y="1157.8148148148148"/>
      <point x="872.3086419753087" y="1082.3950617283951" type="curve"/>
      <point x="973.1728395061729" y="1205.4567901234568" type="line"/>
      <point x="875.0123456790124" y="1306.6543209876543"/>
      <point x="733.4691358024692" y="1366.7283950617284"/>
      <point x="573.7777777777777" y="1366.7283950617284" type="curve" smooth="yes"/>
      <point x="323.0740740740741" y="1366.7283950617284"/>
      <point x="139.1851851851852" y="1218.567901234568"/>
      <point x="139.1851851851852" y="1011.0246913580247" type="curve" smooth="yes"/>
      <point x="139.1851851851852" y="813.679012345679"/>
      <point x="281.2962962962963" y="708.1728395061729"/>
      <point x="409.1851851851852" y="654.8641975308642" type="curve" smooth="yes"/>
      <point x="597.679012345679" y="572.0987654320987" type="line"/>
      <point x="723.0987654320987" y="516.0617283950618"/>
      <point x="822.5925925925926" y="473.91358024691357"/>
      <point x="822.5925925925926" y="345.5061728395062" type="curve" smooth="yes"/>
      <point x="822.5925925925926" y="223.44444444444443"/>
      <point x="727.2222222222223" y="143.4938271604938"/>
      <point x="556.8888888888889" y="143.4938271604938" type="curve" smooth="yes"/>
      <point x="420.01234567901236" y="143.4938271604938"/>
      <point x="292.55555555555554" y="201.91358024691357"/>
      <point x="195.86419753086417" y="299.0617283950617" type="curve"/>
      <point x="82.41975308641976" y="165.41975308641975" type="line"/>
      <point x="203.2716049382716" y="43.4567901234568"/>
      <point x="365.4691358024691" y="-25.0"/>
      <point x="553.2345679012345" y="-25.0" type="curve" smooth="yes"/>
      <point x="843.5925925925926" y="-25.0"/>
      <point x="1019.5555555555555" y="146.8148148148148"/>
      <point x="1019.5555555555555" y="361.08641975308643" type="curve" smooth="yes"/>
      <point x="1019.5555555555555" y="558.5061728395061"/>
      <point x="896.4074074074074" y="655.395061728395"/>
      <point x="739.7901234567901" y="722.395061728395" type="curve" smooth="yes"/>
    </contour>
  </outline>
</glyph>
<glyph name="T" format="2">
  <advance width="1095.6296296296296"/>
  <unicode hex="0054"/>
  <anchor x="547.8148148148148" y="0.0" name="bottom"/>
  <anchor x="547.8148148148148" y="671.0370370370371" name="center"/>
  <anchor x="547.8148148148148" y="1342.0740740740741" name="top"/>
  <outline>
    <contour>
      <point x="451.98765432098764" y="0.0" type="line"/>
      <point x="643.9876543209876" y="0.0" type="line"/>
      <point x="643.9876543209876" y="1180.2345679012346" type="line"/>
      <point x="1044.2839506172838" y="1180.2345679012346" type="line"/>
      <point x="1044.2839506172838" y="1342.0740740740741" type="line"/>
      <point x="50.69135802469136" y="1342.0740740740741" type="line"/>
      <point x="50.69135802469136" y="1180.2345679012346" type="line"/>
      <point x="451.98765432098764" y="1180.2345679012346" type="line"/>
    </contour>
  </outline>
</glyph>
<glyph name="U" format="2">
  <advance width="1318.9753086419753"/>
  <unicode hex="0055"/>
  <anchor x="659.8148148148148" y="0.0" name="bottom"/>
  <anchor x="1187.0123456790122" y="10.0" name="ogonek"/>
  <anchor x="659.8148148148148" y="1342.0740740740741" name="top"/>
  <anchor x="1298.9753086419753" y="1342.0740740740741" name="topright"/>
  <outline>
    <contour>
      <point x="1150.79012345679" y="1342.0740740740741" type="line"/>
      <point x="966.0987654320987" y="1342.0740740740741" type="line"/>
      <point x="966.0987654320987" y="549.7407407407408" type="line"/>
      <point x="966.0987654320987" y="237.6049382716049"/>
      <point x="833.6913580246913" y="143.4938271604938"/>
      <point x="659.4691358024692" y="143.4938271604938" type="curve" smooth="yes"/>
      <point x="489.28395061728395" y="143.4938271604938"/>
      <point x="361.8395061728395" y="238.6049382716049"/>
      <point x="361.8395061728395" y="549.7407407407408" type="curve" smooth="yes"/>
      <point x="361.8395061728395" y="1342.0740740740741" type="line"/>
      <point x="168.83950617283952" y="1342.0740740740741" type="line"/>
      <point x="168.83950617283952" y="558.2098765432098" type="line"/>
      <point x="168.83950617283952" y="127.01234567901233"/>
      <point x="373.67901234567904" y="-25.0"/>
      <point x="659.4691358024692" y="-25.0" type="curve" smooth="yes"/>
      <point x="945.9135802469135" y="-25.0"/>
      <point x="1150.79012345679" y="125.01234567901233"/>
      <point x="1150.79012345679" y="558.2098765432098" type="curve" smooth="yes"/>
    </contour>
  </outline>
</glyph>
<glyph name="V" format="2">
  <advance width="1059.2962962962963"/>
  <unicode hex="0056"/>
  <anchor x="529.9753086419753" y="0.0" name="bottom"/>
  <anchor x="529.9753086419753" y="1342.0740740740741" name="top"/>
  <outline>
    <contour>
      <point x="417.95061728395063" y="0.0" type="line"/>
      <point x="644.037037037037" y="0.0" type="line"/>
      <point x="1066.530864197531" y="1342.0740740740741" type="line"/>
      <point x="869.9135802469136" y="1342.0740740740741" type="line"/>
      <point x="663.4691358024692" y="633.604938271605" type="line"/>
      <point x="619.7407407407408" y="477.18518518518516"/>
      <point x="587.358024691358" y="348.2222222222222"/>
      <point x="538.6296296296296" y="192.14814814814812" type="curve"/>
      <point x="530.6296296296296" y="192.14814814814812" type="line"/>
      <point x="482.55555555555554" y="348.2222222222222"/>
      <point x="450.5185185185185" y="477.18518518518516"/>
      <point x="404.7901234567901" y="633.604938271605" type="curve" smooth="yes"/>
      <point x="197.037037037037" y="1342.0740740740741" type="line"/>
      <point x="-6.580246913580244" y="1342.0740740740741" type="line"/>
    </contour>
  </outline>
</glyph>
<glyph name="W" format="2">
  <advance width="1609.5185185185185"/>
  <unicode hex="0057"/>
  <anchor x="805.0864197530864" y="0.0" name="bottom"/>
  <anchor x="805.0864197530864" y="1342.0740740740741" name="top"/>
  <outline>
    <contour>
      <point x="317.0617283950617" y="0.0" type="line"/>
      <point x="548.1111111111111" y="0.0" type="line"/>
      <point x="736.320987654321" y="775.2098765432099" type="line"/>
      <point x="759.0123456790124" y="878.9012345679013"/>
      <point x="780.395061728395" y="977.8271604938273"/>
      <point x="801.0864197530864" y="1080.8641975308642" type="curve"/>
      <point x="809.7407407407408" y="1080.8641975308642" type="line"/>
      <point x="827.4691358024692" y="977.8271604938273"/>
      <point x="849.1604938271605" y="878.9012345679013"/>
      <point x="871.5061728395061" y="775.2098765432099" type="curve"/>
      <point x="1063.0617283950617" y="0.0" type="line"/>
      <point x="1297.7283950617284" y="0.0" type="line"/>
      <point x="1569.716049382716" y="1342.0740740740741" type="line"/>
      <point x="1383.9876543209878" y="1342.0740740740741" type="line"/>
      <point x="1249.962962962963" y="628.9135802469135" type="line"/>
      <point x="1227.2345679012346" y="486.53086419753083"/>
      <point x="1202.8518518518517" y="342.18518518518516"/>
      <point x="1178.7777777777778" y="196.4938271604938" type="curve"/>
      <point x="1169.7777777777778" y="196.4938271604938" type="line"/>
      <point x="1138.7407407407406" y="342.18518518518516"/>
      <point x="1107.358024691358" y="488.18518518518516"/>
      <point x="1076.320987654321" y="628.9135802469135" type="curve"/>
      <point x="896.9876543209876" y="1342.0740740740741" type="line"/>
      <point x="724.7654320987655" y="1342.0740740740741" type="line"/>
      <point x="545.4320987654321" y="628.9135802469135" type="line"/>
      <point x="513.395061728395" y="485.8765432098765"/>
      <point x="482.01234567901236" y="341.18518518518516"/>
      <point x="453.9753086419753" y="196.4938271604938" type="curve"/>
      <point x="445.32098765432096" y="196.4938271604938" type="line"/>
      <point x="420.59259259259255" y="341.18518518518516"/>
      <point x="395.2098765432099" y="484.8765432098765"/>
      <point x="369.7901234567901" y="628.9135802469135" type="curve"/>
      <point x="237.1111111111111" y="1342.0740740740741" type="line"/>
      <point x="38.76543209876544" y="1342.0740740740741" type="line"/>
    </contour>
  </outline>
</glyph>
<glyph name="X" format="2">
  <advance width="1060.111111111111"/>
  <unicode hex="0058"/>
  <anchor x="530.5555555555555" y="0.0" name="bottom"/>
  <anchor x="530.5555555555555" y="1342.0740740740741" name="top"/>
  <outline>
    <contour>
      <point x="26.037037037037038" y="0.0" type="line"/>
      <point x="228.27160493827157" y="0.0" type="line"/>
      <point x="410.7901234567901" y="347.01234567901236" type="line"/>
      <point x="444.82716049382714" y="414.01234567901236"/>
      <point x="477.2098765432099" y="481.6666666666667"/>
      <point x="515.2469135802469" y="563.6666666666667" type="curve"/>
      <point x="523.2469135802469" y="563.6666666666667" type="line"/>
      <point x="564.9753086419753" y="481.6666666666667"/>
      <point x="601.0123456790124" y="414.01234567901236"/>
      <point x="636.358024691358" y="347.01234567901236" type="curve" smooth="yes"/>
      <point x="822.5308641975308" y="0.0" type="line"/>
      <point x="1035.7283950617284" y="0.0" type="line"/>
      <point x="648.8888888888888" y="683.7654320987655" type="line"/>
      <point x="1010.037037037037" y="1342.0740740740741" type="line"/>
      <point x="806.4567901234568" y="1342.0740740740741" type="line"/>
      <point x="639.9012345679013" y="1013.3703703703703" type="line"/>
      <point x="608.2098765432098" y="952.3703703703703"/>
      <point x="582.8641975308642" y="894.1358024691358"/>
      <point x="547.8271604938271" y="815.5185185185185" type="curve"/>
      <point x="538.8271604938271" y="815.5185185185185" type="line"/>
      <point x="496.7901234567901" y="894.1358024691358"/>
      <point x="468.1358024691358" y="952.3703703703703"/>
      <point x="435.4444444444444" y="1013.3703703703703" type="curve" smooth="yes"/>
      <point x="263.5802469135802" y="1342.0740740740741" type="line"/>
      <point x="49.7283950617284" y="1342.0740740740741" type="line"/>
      <point x="413.5308641975309" y="692.7283950617284" type="line"/>
    </contour>
  </outline>
</glyph>
<glyph name="Y" format="2">
  <advance width="982.8395061728395"/>
  <unicode hex="0059"/>
  <anchor x="491.59259259259255" y="0.0" name="bottom"/>
  <anchor x="491.59259259259255" y="1342.0740740740741" name="top"/>
  <outline>
    <contour>
      <point x="394.41975308641975" y="0.0" type="line"/>
      <point x="586.7654320987654" y="0.0" type="line"/>
      <point x="586.7654320987654" y="512.679012345679" type="line"/>
      <point x="990.7654320987654" y="1342.0740740740741" type="line"/>
      <point x="791.4938271604939" y="1342.0740740740741" type="line"/>
      <point x="626.7407407407408" y="975.5185185185185" type="line"/>
      <point x="586.7037037037037" y="876.5185185185185"/>
      <point x="539.9753086419753" y="782.5185185185185"/>
      <point x="496.2469135802469" y="682.2098765432098" type="curve"/>
      <point x="487.9012345679012" y="682.2098765432098" type="line"/>
      <point x="442.5185185185185" y="782.5185185185185"/>
      <point x="402.7901234567901" y="876.5185185185185"/>
      <point x="361.4074074074074" y="975.5185185185185" type="curve" smooth="yes"/>
      <point x="196.99999999999997" y="1342.0740740740741" type="line"/>
      <point x="-9.271604938271603" y="1342.0740740740741" type="line"/>
      <point x="394.41975308641975" y="512.679012345679" type="line"/>
    </contour>
  </outline>
</glyph>
<glyph name="Z" format="2">
  <advance width="1096.2345679012346"/>
  <unicode hex="005A"/>
  <anchor x="548.6172839506173" y="0.0" name="bottom"/>
  <anchor x="548.6172839506173" y="1342.0740740740741" name="top"/>
  <outline>
    <contour>
      <point x="83.76543209876543" y="0.0" type="line"/>
      <point x="1016.4691358024692" y="0.0" type="line"/>
      <point x="1016.4691358024692" y="163.4938271604938" type="line"/>
      <point x="321.88888888888886" y="163.4938271604938" type="line"/>
      <point x="1010.7777777777777" y="1228.0123456790125" type="line"/>
      <point x="1010.7777777777777" y="1342.0740740740741" type="line"/>
      <point x="146.1851851851852" y="1342.0740740740741" type="line"/>
      <point x="146.1851851851852" y="1180.2345679012346" type="line"/>
      <point x="772.6913580246915" y="1180.2345679012346" type="line"/>
      <point x="83.76543209876543" y="115.71604938271602" type="line"/>
    </contour>
  </outline>
</glyph>
<glyph name="bracketleft" format="2">
  <advance width="634.679012345679"/>
  <unicode hex="005B"/>
  <outline>
    <contour>
      <point x="190.11111111111111" y="-311.0" type="line"/>
      <point x="566.9382716049382" y="-311.0" type="line"/>
      <point x="566.9382716049382" y="-204.4814814814815" type="line"/>
      <point x="333.3703703703703" y="-204.4814814814815" type="line"/>
      <point x="333.3703703703703" y="1341.1358024691358" type="line"/>
      <point x="566.9382716049382" y="1341.1358024691358" type="line"/>
      <point x="566.9382716049382" y="1450.0" type="line"/>
      <point x="190.11111111111111" y="1450.0" type="line"/>
    </contour>
  </outline>
</glyph>
<glyph name="backslash" format="2">
  <advance width="713.1851851851852"/>
  <unicode hex="005C"/>
  <outline>
    <contour>
      <point x="555.4691358024692" y="-328.0" type="line"/>
      <point x="691.5679012345679" y="-328.0" type="line"/>
      <point x="167.53086419753083" y="1454.0" type="line"/>
      <point x="33.43209876543209" y="1454.0" type="line"/>
    </contour>
  </outline>
</glyph>
<glyph name="asciicircum" format="2">
  <advance width="1028.5185185185185"/>
  <unicode hex="005E"/>
  <outline>
    <contour>
      <point x="119.49382716049384" y="578.4938271604939" type="line"/>
      <point x="283.71604938271605" y="578.4938271604939" type="line"/>
      <point x="410.358024691358" y="922.2345679012346" type="line"/>
      <point x="510.7407407407407" y="1194.888888888889" type="line"/>
      <point x="519.0864197530864" y="1194.888888888889" type="line"/>
      <point x="617.8148148148148" y="922.2345679012346" type="line"/>
      <point x="745.4567901234568" y="578.4938271604939" type="line"/>
      <point x="909.0246913580247" y="578.4938271604939" type="line"/>
      <point x="597.0617283950617" y="1372.0" type="line"/>
      <point x="431.7654320987654" y="1372.0" type="line"/>
    </contour>
  </outline>
</glyph>
<glyph name="underscore" format="2">
  <advance width="1024.0"/>
  <unicode hex="005F"/>
  <outline>
    <contour>
      <point x="5.3703703703703844" y="-262.77777777777777" type="line"/>
      <point x="1025.1728395061727" y="-262.77777777777777" type="line"/>
      <point x="1025.1728395061727" y="-140.22222222222223" type="line"/>
      <point x="5.3703703703703844" y="-140.22222222222223" type="line"/>
    </contour>
  </outline>
</glyph>
<glyph name="grave" format="2">
  <advance width="1114.469135802469"/>
  <unicode hex="0060"/>
  <anchor x="626.9259259259259" y="886.4197530864199" name="_top"/>
  <outline>
    <contour>
      <point x="551.9876543209876" y="1174.3086419753085" type="line"/>
      <point x="695.9753086419753" y="1174.3086419753085" type="line"/>
      <point x="511.9382716049383" y="1465.5061728395062" type="line"/>
      <point x="317.17283950617286" y="1465.5061728395062" type="line"/>
    </contour>
  </outline>
</glyph>
<glyph name="a" format="2">
  <advance width="1056.320987654321"/>
  <unicode hex="0061"/>
  <anchor x="525.9012345679013" y="-234.56790123456796" name="btm"/>
  <anchor x="525.9012345679013" y="886.4197530864199" name="top"/>
  <outline>
    <contour>
      <point x="737.679012345679" y="116.11111111111111" type="line"/>
      <point x="753.9506172839506" y="0.0" type="line"/>
      <point x="910.7901234567901" y="0.0" type="line"/>
      <point x="910.7901234567901" y="605.5679012345679" type="line"/>
      <point x="910.7901234567901" y="872.7407407407408"/>
      <point x="803.0493827160494" y="1023.5061728395061"/>
      <point x="554.2345679012345" y="1023.5061728395061" type="curve" smooth="yes"/>
      <point x="394.2345679012346" y="1023.5061728395061"/>
      <point x="248.96296296296296" y="967.7037037037037"/>
      <point x="150.9135802469136" y="905.8518518518518" type="curve"/>
      <point x="224.2716049382716" y="775.4814814814815" type="line"/>
      <point x="305.77777777777777" y="829.4444444444445"/>
      <point x="409.58024691358025" y="867.283950617284"/>
      <point x="521.1481481481482" y="867.283950617284" type="curve" smooth="yes"/>
      <point x="676.1728395061729" y="867.283950617284"/>
      <point x="721.1728395061729" y="777.6172839506173"/>
      <point x="720.4814814814815" y="630.8888888888889" type="curve"/>
      <point x="296.33333333333337" y="608.7037037037037"/>
      <point x="115.18518518518519" y="480.1604938271605"/>
      <point x="115.18518518518519" y="264.4691358024691" type="curve" smooth="yes"/>
      <point x="115.18518518518519" y="86.74074074074073"/>
      <point x="238.9135802469136" y="-25.0"/>
      <point x="417.7283950617284" y="-25.0" type="curve" smooth="yes"/>
      <point x="552.1111111111111" y="-25.0"/>
      <point x="638.9506172839506" y="38.41975308641975"/>
      <point x="733.0246913580247" y="116.11111111111111" type="curve"/>
    </contour>
    <contour>
      <point x="720.4814814814815" y="251.93827160493825" type="line"/>
      <point x="634.1111111111111" y="172.02469135802465"/>
      <point x="563.8888888888889" y="126.91358024691355"/>
      <point x="472.01234567901236" y="126.91358024691355" type="curve" smooth="yes"/>
      <point x="371.48148148148147" y="126.91358024691355"/>
      <point x="300.91358024691357" y="172.02469135802465"/>
      <point x="300.91358024691357" y="277.04938271604937" type="curve" smooth="yes"/>
      <point x="300.91358024691357" y="395.7654320987654"/>
      <point x="398.358024691358" y="496.14814814814815"/>
      <point x="720.4814814814815" y="511.3703703703704" type="curve"/>
    </contour>
  </outline>
</glyph>
<glyph name="b" format="2">
  <advance width="1143.0493827160494"/>
  <unicode hex="0062"/>
  <anchor x="604.9259259259259" y="-234.56790123456796" name="btm"/>
  <anchor x="728.4691358024692" y="886.4197530864199" name="top"/>
  <outline>
    <contour>
      <point x="352.25925925925924" y="1064.1604938271605" type="line"/>
      <point x="352.25925925925924" y="1454.8395061728395" type="line"/>
      <point x="162.25925925925927" y="1454.8395061728395" type="line"/>
      <point x="162.25925925925927" y="0.0" type="line"/>
      <point x="313.82716049382714" y="0.0" type="line"/>
      <point x="329.75308641975306" y="99.27160493827161" type="line"/>
      <point x="336.75308641975306" y="99.27160493827161" type="line"/>
      <point x="423.1358024691358" y="20.0"/>
      <point x="523.9012345679013" y="-25.0"/>
      <point x="618.9012345679013" y="-25.0" type="curve" smooth="yes"/>
      <point x="851.283950617284" y="-25.0"/>
      <point x="1047.5925925925926" y="162.07407407407408"/>
      <point x="1047.5925925925926" y="514.2345679012345" type="curve" smooth="yes"/>
      <point x="1047.5925925925926" y="831.7777777777777"/>
      <point x="917.358024691358" y="1023.5061728395061"/>
      <point x="653.6296296296296" y="1023.5061728395061" type="curve" smooth="yes"/>
      <point x="542.5185185185185" y="1023.5061728395061"/>
      <point x="435.71604938271605" y="967.0493827160494"/>
      <point x="347.25925925925924" y="888.9753086419753" type="curve"/>
    </contour>
    <contour>
      <point x="352.25925925925924" y="735.641975308642" type="line"/>
      <point x="440.8641975308642" y="820.1728395061729"/>
      <point x="520.8148148148148" y="864.9753086419753"/>
      <point x="604.0" y="864.9753086419753" type="curve" smooth="yes"/>
      <point x="786.1358024691358" y="864.9753086419753"/>
      <point x="850.283950617284" y="729.5308641975308"/>
      <point x="850.283950617284" y="511.9259259259259" type="curve" smooth="yes"/>
      <point x="850.283950617284" y="267.01234567901236"/>
      <point x="740.0246913580247" y="134.53086419753083"/>
      <point x="582.2345679012345" y="134.53086419753083" type="curve" smooth="yes"/>
      <point x="517.1234567901234" y="134.53086419753083"/>
      <point x="434.5185185185185" y="159.95061728395058"/>
      <point x="352.25925925925924" y="231.82716049382714" type="curve"/>
    </contour>
  </outline>
</glyph>
<glyph name="c" format="2">
  <advance width="937.1604938271605"/>
  <unicode hex="0063"/>
  <anchor x="557.2098765432098" y="-234.56790123456796" name="btm"/>
  <anchor x="572.6172839506173" y="886.4197530864199" name="top"/>
  <outline>
    <contour>
      <point x="799.8024691358024" y="220.09876543209873" type="line"/>
      <point x="741.7283950617284" y="169.64197530864195"/>
      <point x="669.5802469135803" y="132.53086419753083"/>
      <point x="578.4320987654321" y="132.53086419753083" type="curve" smooth="yes"/>
      <point x="404.02469135802465" y="132.53086419753083"/>
      <point x="285.8024691358024" y="273.8641975308642"/>
      <point x="285.8024691358024" y="500.2345679012346" type="curve" smooth="yes"/>
      <point x="285.8024691358024" y="728.2962962962963"/>
      <point x="409.4444444444444" y="866.6296296296297"/>
      <point x="584.0493827160494" y="866.6296296296297" type="curve" smooth="yes"/>
      <point x="657.6172839506173" y="866.6296296296297"/>
      <point x="719.7283950617284" y="835.8271604938271"/>
      <point x="777.1481481481482" y="786.0617283950618" type="curve"/>
      <point x="869.7407407407408" y="907.4691358024692" type="line"/>
      <point x="802.7407407407408" y="972.4320987654321"/>
      <point x="705.5061728395061" y="1023.5061728395061"/>
      <point x="575.1234567901234" y="1023.5061728395061" type="curve" smooth="yes"/>
      <point x="315.30864197530866" y="1023.5061728395061"/>
      <point x="90.49382716049384" y="845.1604938271605"/>
      <point x="90.49382716049384" y="500.2345679012346" type="curve" smooth="yes"/>
      <point x="90.49382716049384" y="159.0"/>
      <point x="293.38271604938274" y="-25.0"/>
      <point x="560.5802469135803" y="-25.0" type="curve" smooth="yes"/>
      <point x="678.3086419753087" y="-25.0"/>
      <point x="791.1975308641976" y="16.111111111111114"/>
      <point x="882.1234567901234" y="96.38271604938272" type="curve"/>
    </contour>
  </outline>
</glyph>
<glyph name="d" format="2">
  <advance width="1143.0493827160494"/>
  <unicode hex="0064"/>
  <anchor x="536.7777777777777" y="-234.56790123456796" name="btm"/>
  <anchor x="1168.0617283950617" y="1019.358024691358" name="car"/>
  <anchor x="367.679012345679" y="886.4197530864199" name="top"/>
  <outline>
    <contour>
      <point x="807.9876543209876" y="114.4567901234568" type="line"/>
      <point x="823.2592592592592" y="0.0" type="line"/>
      <point x="980.4444444444445" y="0.0" type="line"/>
      <point x="980.4444444444445" y="1454.8395061728395" type="line"/>
      <point x="789.1358024691358" y="1454.8395061728395" type="line"/>
      <point x="789.1358024691358" y="1077.888888888889" type="line"/>
      <point x="798.0987654320987" y="909.7777777777777" type="line"/>
      <point x="712.9506172839506" y="980.1604938271605"/>
      <point x="638.5679012345679" y="1023.5061728395061"/>
      <point x="523.5308641975308" y="1023.5061728395061" type="curve" smooth="yes"/>
      <point x="292.11111111111114" y="1023.5061728395061"/>
      <point x="93.4567901234568" y="832.5061728395061"/>
      <point x="93.4567901234568" y="499.2345679012346" type="curve" smooth="yes"/>
      <point x="93.4567901234568" y="158.58024691358025"/>
      <point x="257.7654320987654" y="-25.0"/>
      <point x="505.41975308641975" y="-25.0" type="curve" smooth="yes"/>
      <point x="619.9135802469136" y="-25.0"/>
      <point x="724.9506172839506" y="38.41975308641975"/>
      <point x="801.9876543209876" y="114.4567901234568" type="curve"/>
    </contour>
    <contour>
      <point x="789.1358024691358" y="263.8641975308642" type="line"/>
      <point x="712.5308641975308" y="176.02469135802465"/>
      <point x="637.3086419753087" y="134.53086419753083"/>
      <point x="549.4320987654321" y="134.53086419753083" type="curve" smooth="yes"/>
      <point x="378.98765432098764" y="134.53086419753083"/>
      <point x="288.7654320987654" y="263.9382716049383"/>
      <point x="288.7654320987654" y="501.5432098765432" type="curve" smooth="yes"/>
      <point x="288.7654320987654" y="729.1481481481482"/>
      <point x="404.4074074074074" y="864.9753086419753"/>
      <point x="559.2345679012345" y="864.9753086419753" type="curve" smooth="yes"/>
      <point x="636.4197530864197" y="864.9753086419753"/>
      <point x="710.2222222222223" y="838.5555555555555"/>
      <point x="789.1358024691358" y="766.679012345679" type="curve"/>
    </contour>
  </outline>
</glyph>
<glyph name="e" format="2">
  <advance width="1023.320987654321"/>
  <unicode hex="0065"/>
  <anchor x="517.8888888888889" y="-234.56790123456796" name="btm"/>
  <anchor x="529.9876543209876" y="886.4197530864199" name="top"/>
  <outline>
    <contour>
      <point x="839.9259259259259" y="196.37037037037035" type="line"/>
      <point x="765.9259259259259" y="149.33333333333331"/>
      <point x="689.1975308641976" y="126.25925925925924"/>
      <point x="598.0493827160494" y="126.25925925925924" type="curve" smooth="yes"/>
      <point x="416.29629629629625" y="126.25925925925924"/>
      <point x="289.8024691358024" y="245.46913580246914"/>
      <point x="277.53086419753083" y="454.91358024691357" type="curve"/>
      <point x="939.0123456790124" y="454.91358024691357" type="line"/>
      <point x="943.0123456790124" y="479.2592592592593"/>
      <point x="945.9753086419753" y="514.8024691358024"/>
      <point x="945.9753086419753" y="553.0" type="curve" smooth="yes"/>
      <point x="945.9753086419753" y="842.7283950617284"/>
      <point x="811.9753086419753" y="1023.8518518518518"/>
      <point x="541.5802469135803" y="1023.8518518518518" type="curve" smooth="yes"/>
      <point x="301.03703703703707" y="1023.8518518518518"/>
      <point x="90.14814814814815" y="832.8148148148148"/>
      <point x="90.14814814814815" y="498.58024691358025" type="curve" smooth="yes"/>
      <point x="90.14814814814815" y="164.30864197530863"/>
      <point x="303.7283950617284" y="-25.0"/>
      <point x="573.5432098765432" y="-25.0" type="curve" smooth="yes"/>
      <point x="707.3086419753087" y="-25.0"/>
      <point x="817.0864197530864" y="17.037037037037038"/>
      <point x="905.6296296296296" y="74.58024691358024" type="curve"/>
    </contour>
    <contour>
      <point x="275.8765432098765" y="578.358024691358" type="line"/>
      <point x="294.8765432098765" y="772.4567901234568"/>
      <point x="408.2098765432099" y="874.2469135802469"/>
      <point x="546.2345679012345" y="874.2469135802469" type="curve" smooth="yes"/>
      <point x="701.4938271604939" y="874.2469135802469"/>
      <point x="780.1358024691358" y="772.679012345679"/>
      <point x="780.1358024691358" y="578.358024691358" type="curve"/>
    </contour>
  </outline>
</glyph>
<glyph name="f" format="2">
  <advance width="614.5679012345679"/>
  <unicode hex="0066"/>
  <anchor x="336.9753086419753" y="-234.56790123456796" name="btm"/>
  <anchor x="222.76543209876542" y="1201.1975308641977" name="top"/>
  <outline>
    <contour>
      <point x="194.41975308641975" y="0.0" type="line"/>
      <point x="384.72839506172835" y="0.0" type="line"/>
      <point x="384.72839506172835" y="844.9382716049383" type="line"/>
      <point x="589.9506172839506" y="844.9382716049383" type="line"/>
      <point x="589.9506172839506" y="998.5061728395061" type="line"/>
      <point x="384.72839506172835" y="998.5061728395061" type="line"/>
      <point x="384.72839506172835" y="1142.2469135802469" type="line"/>
      <point x="384.72839506172835" y="1266.0864197530864"/>
      <point x="429.7654320987654" y="1325.6172839506173"/>
      <point x="519.9135802469135" y="1325.6172839506173" type="curve" smooth="yes"/>
      <point x="556.2592592592592" y="1325.6172839506173"/>
      <point x="594.9506172839506" y="1316.6172839506173"/>
      <point x="631.6419753086419" y="1301.5802469135804" type="curve"/>
      <point x="671.4938271604938" y="1445.530864197531" type="line"/>
      <point x="626.4938271604938" y="1463.2222222222222"/>
      <point x="564.604938271605" y="1479.1851851851852"/>
      <point x="498.7901234567901" y="1479.1851851851852" type="curve" smooth="yes"/>
      <point x="288.03703703703707" y="1479.1851851851852"/>
      <point x="194.41975308641975" y="1346.20987654321"/>
      <point x="194.41975308641975" y="1140.9753086419753" type="curve" smooth="yes"/>
      <point x="194.41975308641975" y="997.8518518518518" type="line"/>
      <point x="58.76543209876544" y="988.1975308641976" type="line"/>
      <point x="58.76543209876544" y="844.9382716049383" type="line"/>
      <point x="194.41975308641975" y="844.9382716049383" type="line"/>
    </contour>
  </outline>
</glyph>
<glyph name="g" format="2">
  <advance width="1042.8641975308642"/>
  <unicode hex="0067"/>
  <anchor x="536.9876543209876" y="-234.56790123456796" name="btm"/>
  <anchor x="552.5432098765432" y="886.4197530864199" name="top"/>
  <outline>
    <contour>
      <point x="474.32098765432096" y="145.09876543209873" type="line"/>
      <point x="343.48148148148147" y="145.09876543209873"/>
      <point x="302.48148148148147" y="186.59259259259258"/>
      <point x="302.48148148148147" y="248.01234567901233" type="curve" smooth="yes"/>
      <point x="302.48148148148147" y="300.1604938271605"/>
      <point x="327.28395061728395" y="321.61728395061726"/>
      <point x="361.358024691358" y="351.34567901234567" type="curve"/>
      <point x="406.358024691358" y="330.61728395061726"/>
      <point x="456.4691358024691" y="319.2345679012346"/>
      <point x="506.2345679012346" y="319.2345679012346" type="curve" smooth="yes"/>
      <point x="718.7407407407408" y="319.2345679012346"/>
      <point x="877.283950617284" y="439.7654320987654"/>
      <point x="877.283950617284" y="663.9259259259259" type="curve" smooth="yes"/>
      <point x="877.283950617284" y="752.0246913580247"/>
      <point x="845.1358024691358" y="818.4074074074074"/>
      <point x="802.2592592592592" y="858.7901234567902" type="curve"/>
      <point x="999.9012345679013" y="858.7901234567902" type="line"/>
      <point x="999.9012345679013" y="998.5061728395061" type="line"/>
      <point x="650.0864197530864" y="998.5061728395061" type="line"/>
      <point x="611.8148148148148" y="1013.1604938271605"/>
      <point x="567.5432098765432" y="1023.5061728395061"/>
      <point x="506.2345679012346" y="1023.5061728395061" type="curve" smooth="yes"/>
      <point x="294.69135802469134" y="1023.5061728395061"/>
      <point x="123.9135802469136" y="903.8148148148148"/>
      <point x="123.9135802469136" y="669.8888888888889" type="curve" smooth="yes"/>
      <point x="123.9135802469136" y="545.8888888888889"/>
      <point x="188.22222222222223" y="454.5432098765432"/>
      <point x="254.83950617283952" y="402.1975308641975" type="curve"/>
      <point x="254.83950617283952" y="394.1975308641975" type="line"/>
      <point x="200.95061728395063" y="356.9259259259259"/>
      <point x="145.22222222222223" y="298.96296296296293"/>
      <point x="145.22222222222223" y="217.23456790123456" type="curve" smooth="yes"/>
      <point x="145.22222222222223" y="137.6172839506173"/>
      <point x="183.53086419753086" y="89.85185185185185"/>
      <point x="234.1851851851852" y="57.888888888888886" type="curve"/>
      <point x="234.1851851851852" y="49.888888888888886" type="line"/>
      <point x="142.53086419753086" y="-7.839506172839512"/>
      <point x="88.8395061728395" y="-100.4567901234568"/>
      <point x="88.8395061728395" y="-187.80246913580248" type="curve" smooth="yes"/>
      <point x="88.8395061728395" y="-360.7283950617284"/>
      <point x="237.6172839506173" y="-454.5308641975309"/>
      <point x="501.7283950617284" y="-454.5308641975309" type="curve" smooth="yes"/>
      <point x="826.0864197530864" y="-454.5308641975309"/>
      <point x="1016.9012345679013" y="-295.4938271604938"/>
      <point x="1016.9012345679013" y="-107.02469135802471" type="curve" smooth="yes"/>
      <point x="1016.9012345679013" y="61.518518518518505"/>
      <point x="912.4691358024692" y="145.09876543209873"/>
      <point x="675.5432098765432" y="145.09876543209873" type="curve" smooth="yes"/>
    </contour>
    <contour>
      <point x="639.4938271604939" y="0.0" type="line"/>
      <point x="766.1358024691358" y="0.0"/>
      <point x="832.5185185185186" y="-47.617283950617285"/>
      <point x="832.5185185185186" y="-135.49382716049382" type="curve" smooth="yes"/>
      <point x="832.5185185185186" y="-234.40740740740742"/>
      <point x="717.2962962962963" y="-324.08641975308643"/>
      <point x="530.8888888888889" y="-324.08641975308643" type="curve" smooth="yes"/>
      <point x="349.7901234567901" y="-324.08641975308643"/>
      <point x="254.06172839506172" y="-262.2098765432099"/>
      <point x="254.06172839506172" y="-160.98765432098767" type="curve" smooth="yes"/>
      <point x="254.06172839506172" y="-94.37037037037038"/>
      <point x="280.82716049382714" y="-32.4567901234568"/>
      <point x="347.08641975308643" y="14.69135802469136" type="curve"/>
      <point x="388.5061728395062" y="4.0"/>
      <point x="434.2345679012346" y="0.0"/>
      <point x="478.32098765432096" y="0.0" type="curve" smooth="yes"/>
    </contour>
    <contour>
      <point x="506.2345679012346" y="443.3703703703703" type="curve" smooth="yes"/>
      <point x="396.9382716049383" y="443.3703703703703"/>
      <point x="306.3333333333333" y="522.9753086419753"/>
      <point x="306.3333333333333" y="669.8888888888889" type="curve" smooth="yes"/>
      <point x="306.3333333333333" y="817.2592592592592"/>
      <point x="388.9382716049383" y="887.1358024691358"/>
      <point x="506.2345679012346" y="887.1358024691358" type="curve" smooth="yes"/>
      <point x="623.1851851851852" y="887.1358024691358"/>
      <point x="705.4444444444445" y="817.641975308642"/>
      <point x="705.4444444444445" y="669.8888888888889" type="curve" smooth="yes"/>
      <point x="705.4444444444445" y="520.9753086419753"/>
      <point x="614.4938271604939" y="443.3703703703703"/>
    </contour>
  </outline>
</glyph>
<glyph name="h" format="2">
  <advance width="1122.9012345679012"/>
  <unicode hex="0068"/>
  <anchor x="570.4691358024692" y="-234.56790123456796" name="btm"/>
  <anchor x="254.04938271604937" y="1024.7901234567903" name="top"/>
  <outline>
    <contour>
      <point x="162.25925925925927" y="0.0" type="line"/>
      <point x="352.25925925925924" y="0.0" type="line"/>
      <point x="352.25925925925924" y="715.2592592592592" type="line"/>
      <point x="446.5185185185185" y="809.5555555555555"/>
      <point x="513.358024691358" y="859.0123456790124"/>
      <point x="610.8888888888889" y="859.0123456790124" type="curve" smooth="yes"/>
      <point x="737.9135802469136" y="859.0123456790124"/>
      <point x="788.3703703703704" y="787.7530864197531"/>
      <point x="788.3703703703704" y="607.4567901234568" type="curve" smooth="yes"/>
      <point x="788.3703703703704" y="0.0" type="line"/>
      <point x="978.679012345679" y="0.0" type="line"/>
      <point x="978.679012345679" y="633.0" type="line"/>
      <point x="978.679012345679" y="887.0"/>
      <point x="888.0246913580247" y="1023.5061728395061"/>
      <point x="673.4444444444445" y="1023.5061728395061" type="curve" smooth="yes"/>
      <point x="535.7901234567901" y="1023.5061728395061"/>
      <point x="435.4444444444444" y="949.8148148148148"/>
      <point x="344.98765432098764" y="863.320987654321" type="curve"/>
      <point x="352.25925925925924" y="1064.1604938271605" type="line"/>
      <point x="352.25925925925924" y="1454.8395061728395" type="line"/>
      <point x="162.25925925925927" y="1454.8395061728395" type="line"/>
    </contour>
  </outline>
</glyph>
<glyph name="i" format="2">
  <advance width="514.2098765432098"/>
  <unicode hex="0069"/>
  <outline>
    <contour>
      <point x="162.25925925925927" y="0.0" type="line"/>
      <point x="352.25925925925924" y="0.0" type="line"/>
      <point x="352.25925925925924" y="998.5061728395061" type="line"/>
      <point x="162.25925925925927" y="998.5061728395061" type="line"/>
    </contour>
    <contour>
      <point x="258.77777777777777" y="1194.6049382716049" type="curve" smooth="yes"/>
      <point x="329.82716049382714" y="1194.6049382716049"/>
      <point x="384.98765432098764" y="1242.7654320987654"/>
      <point x="384.98765432098764" y="1310.888888888889" type="curve" smooth="yes"/>
      <point x="384.98765432098764" y="1381.358024691358"/>
      <point x="329.82716049382714" y="1427.8641975308642"/>
      <point x="258.77777777777777" y="1427.8641975308642" type="curve" smooth="yes"/>
      <point x="187.03703703703704" y="1427.8641975308642"/>
      <point x="132.22222222222223" y="1381.358024691358"/>
      <point x="132.22222222222223" y="1310.888888888889" type="curve" smooth="yes"/>
      <point x="132.22222222222223" y="1242.7654320987654"/>
      <point x="187.03703703703704" y="1194.6049382716049"/>
    </contour>
  </outline>
</glyph>
<glyph name="j" format="2">
  <advance width="516.5185185185185"/>
  <unicode hex="006A"/>
  <anchor x="150.0864197530864" y="-234.56790123456796" name="btm"/>
  <anchor x="188.4567901234568" y="886.4197530864199" name="top"/>
  <outline>
    <contour>
      <point x="354.25925925925924" y="998.5061728395061" type="line"/>
      <point x="163.9135802469136" y="998.5061728395061" type="line"/>
      <point x="163.9135802469136" y="-97.5061728395062" type="line"/>
      <point x="163.9135802469136" y="-216.8888888888889"/>
      <point x="138.95061728395063" y="-283.4197530864198"/>
      <point x="43.802469135802475" y="-283.4197530864198" type="curve" smooth="yes"/>
      <point x="9.419753086419757" y="-283.4197530864198"/>
      <point x="-23.308641975308642" y="-275.7283950617284"/>
      <point x="-47.96296296296296" y="-267.7283950617284" type="curve"/>
      <point x="-85.1604938271605" y="-410.67901234567904" type="line"/>
      <point x="-49.5432098765432" y="-424.98765432098764"/>
      <point x="1.7654320987654355" y="-436.98765432098764"/>
      <point x="66.92592592592592" y="-436.98765432098764" type="curve" smooth="yes"/>
      <point x="277.98765432098764" y="-436.98765432098764"/>
      <point x="354.25925925925924" y="-302.4320987654321"/>
      <point x="354.25925925925924" y="-96.58024691358028" type="curve" smooth="yes"/>
    </contour>
    <contour>
      <point x="261.08641975308643" y="1194.6049382716049" type="curve" smooth="yes"/>
      <point x="330.48148148148147" y="1194.6049382716049"/>
      <point x="385.98765432098764" y="1242.7654320987654"/>
      <point x="385.98765432098764" y="1310.888888888889" type="curve" smooth="yes"/>
      <point x="385.98765432098764" y="1381.358024691358"/>
      <point x="330.48148148148147" y="1427.8641975308642"/>
      <point x="261.08641975308643" y="1427.8641975308642" type="curve" smooth="yes"/>
      <point x="189.03703703703704" y="1427.8641975308642"/>
      <point x="134.53086419753086" y="1381.358024691358"/>
      <point x="134.53086419753086" y="1310.888888888889" type="curve" smooth="yes"/>
      <point x="134.53086419753086" y="1242.7654320987654"/>
      <point x="189.03703703703704" y="1194.6049382716049"/>
    </contour>
  </outline>
</glyph>
<glyph name="k" format="2">
  <advance width="1031.8395061728395"/>
  <unicode hex="006B"/>
  <anchor x="579.716049382716" y="-234.56790123456796" name="btm"/>
  <anchor x="476.35802469135785" y="941.0370370370372" name="top"/>
  <outline>
    <contour>
      <point x="162.25925925925927" y="0.0" type="line"/>
      <point x="348.9506172839506" y="0.0" type="line"/>
      <point x="348.9506172839506" y="259.41975308641975" type="line"/>
      <point x="525.7407407407408" y="464.6296296296297" type="line"/>
      <point x="806.5308641975308" y="0.0" type="line"/>
      <point x="1014.1111111111111" y="0.0" type="line"/>
      <point x="634.4938271604938" y="596.3086419753087" type="line"/>
      <point x="972.3086419753085" y="998.5061728395061" type="line"/>
      <point x="762.7283950617284" y="998.5061728395061" type="line"/>
      <point x="355.6049382716049" y="494.5802469135802" type="line"/>
      <point x="348.9506172839506" y="494.5802469135802" type="line"/>
      <point x="348.9506172839506" y="1454.8395061728395" type="line"/>
      <point x="162.25925925925927" y="1454.8395061728395" type="line"/>
    </contour>
  </outline>
</glyph>
<glyph name="l" format="2">
  <advance width="532.5185185185185"/>
  <unicode hex="006C"/>
  <anchor x="266.4320987654321" y="0.0" name="bottom"/>
  <anchor x="266.4320987654321" y="499.58024691358025" name="center"/>
  <anchor x="266.4320987654321" y="998.5061728395061" name="top"/>
  <anchor x="512.5185185185185" y="998.5061728395061" name="topright"/>
  <outline>
    <contour>
      <point x="437.53086419753083" y="136.53086419753083" type="line"/>
      <point x="418.8395061728395" y="132.53086419753083"/>
      <point x="410.8395061728395" y="132.53086419753083"/>
      <point x="400.53086419753083" y="132.53086419753083" type="curve" smooth="yes"/>
      <point x="375.53086419753083" y="132.53086419753083"/>
      <point x="352.25925925925924" y="152.8765432098765"/>
      <point x="352.25925925925924" y="207.1111111111111" type="curve" smooth="yes"/>
      <point x="352.25925925925924" y="1454.8395061728395" type="line"/>
      <point x="162.25925925925927" y="1454.8395061728395" type="line"/>
      <point x="162.25925925925927" y="219.76543209876542" type="line"/>
      <point x="162.25925925925927" y="64.59259259259258"/>
      <point x="216.45679012345678" y="-25.0"/>
      <point x="356.5185185185185" y="-25.0" type="curve" smooth="yes"/>
      <point x="404.98765432098764" y="-25.0"/>
      <point x="437.8395061728395" y="-17.037037037037038"/>
      <point x="462.1111111111111" y="-6.728395061728397" type="curve"/>
    </contour>
  </outline>
</glyph>
<glyph name="m" format="2">
  <advance width="1707.5555555555554"/>
  <unicode hex="006D"/>
  <anchor x="873.5185185185185" y="-234.56790123456796" name="btm"/>
  <anchor x="859.1234567901234" y="886.4197530864199" name="top"/>
  <outline>
    <contour>
      <point x="162.25925925925927" y="0.0" type="line"/>
      <point x="352.25925925925924" y="0.0" type="line"/>
      <point x="352.25925925925924" y="715.2592592592592" type="line"/>
      <point x="439.7901234567901" y="811.2098765432099"/>
      <point x="519.320987654321" y="859.0123456790124"/>
      <point x="589.5061728395061" y="859.0123456790124" type="curve" smooth="yes"/>
      <point x="715.4938271604939" y="859.0123456790124"/>
      <point x="764.641975308642" y="791.3703703703704"/>
      <point x="764.641975308642" y="611.0740740740741" type="curve" smooth="yes"/>
      <point x="764.641975308642" y="0.0" type="line"/>
      <point x="954.9506172839506" y="0.0" type="line"/>
      <point x="954.9506172839506" y="718.2592592592592" type="line"/>
      <point x="1042.8271604938273" y="814.2098765432099"/>
      <point x="1119.0123456790122" y="859.0123456790124"/>
      <point x="1192.5432098765432" y="859.0123456790124" type="curve" smooth="yes"/>
      <point x="1317.1851851851852" y="859.0123456790124"/>
      <point x="1366.9876543209878" y="788.7530864197531"/>
      <point x="1366.9876543209878" y="608.4567901234568" type="curve" smooth="yes"/>
      <point x="1366.9876543209878" y="0.0" type="line"/>
      <point x="1556.9876543209875" y="0.0" type="line"/>
      <point x="1556.9876543209875" y="634.0" type="line"/>
      <point x="1556.9876543209875" y="888.0"/>
      <point x="1465.641975308642" y="1023.5061728395061"/>
      <point x="1251.7530864197531" y="1023.5061728395061" type="curve" smooth="yes"/>
      <point x="1128.8641975308642" y="1023.5061728395061"/>
      <point x="1027.1358024691358" y="948.5061728395061"/>
      <point x="925.0246913580247" y="839.358024691358" type="curve"/>
      <point x="884.0617283950617" y="960.0123456790124"/>
      <point x="807.7530864197531" y="1023.5061728395061"/>
      <point x="651.3703703703703" y="1023.5061728395061" type="curve" smooth="yes"/>
      <point x="530.4814814814814" y="1023.5061728395061"/>
      <point x="427.4074074074074" y="949.8148148148148"/>
      <point x="341.71604938271605" y="857.395061728395" type="curve"/>
      <point x="334.0617283950617" y="857.395061728395" type="line"/>
      <point x="318.7901234567901" y="998.5061728395061" type="line"/>
      <point x="162.25925925925927" y="998.5061728395061" type="line"/>
    </contour>
  </outline>
</glyph>
<glyph name="n" format="2">
  <advance width="1128.2839506172838"/>
  <unicode hex="006E"/>
  <anchor x="584.2098765432098" y="-234.56790123456796" name="btm"/>
  <anchor x="597.0" y="886.4197530864199" name="top"/>
  <outline>
    <contour>
      <point x="162.25925925925927" y="0.0" type="line"/>
      <point x="352.25925925925924" y="0.0" type="line"/>
      <point x="352.25925925925924" y="715.2592592592592" type="line"/>
      <point x="446.5185185185185" y="809.5555555555555"/>
      <point x="513.358024691358" y="859.0123456790124"/>
      <point x="610.8888888888889" y="859.0123456790124" type="curve" smooth="yes"/>
      <point x="740.9135802469136" y="859.0123456790124"/>
      <point x="788.3703703703704" y="788.7530864197531"/>
      <point x="788.3703703703704" y="608.4567901234568" type="curve" smooth="yes"/>
      <point x="788.3703703703704" y="0.0" type="line"/>
      <point x="978.679012345679" y="0.0" type="line"/>
      <point x="978.679012345679" y="634.0" type="line"/>
      <point x="978.679012345679" y="888.0"/>
      <point x="890.0246913580247" y="1023.5061728395061"/>
      <point x="673.4444444444445" y="1023.5061728395061" type="curve" smooth="yes"/>
      <point x="535.7901234567901" y="1023.5061728395061"/>
      <point x="433.7901234567901" y="949.8148148148148"/>
      <point x="341.71604938271605" y="857.395061728395" type="curve"/>
      <point x="334.0617283950617" y="857.395061728395" type="line"/>
      <point x="318.7901234567901" y="998.5061728395061" type="line"/>
      <point x="162.25925925925927" y="998.5061728395061" type="line"/>
    </contour>
  </outline>
</glyph>
<glyph name="o" format="2">
  <advance width="1114.469135802469"/>
  <unicode hex="006F"/>
  <anchor x="557.2345679012345" y="-234.56790123456796" name="btm"/>
  <anchor x="557.2345679012345" y="886.4197530864199" name="top"/>
  <outline>
    <contour>
      <point x="556.8888888888889" y="-25.0" type="curve" smooth="yes"/>
      <point x="807.4691358024692" y="-25.0"/>
      <point x="1023.9753086419753" y="163.30864197530863"/>
      <point x="1023.9753086419753" y="499.2345679012346" type="curve" smooth="yes"/>
      <point x="1023.9753086419753" y="838.1975308641976"/>
      <point x="807.4691358024692" y="1023.5061728395061"/>
      <point x="556.8888888888889" y="1023.5061728395061" type="curve" smooth="yes"/>
      <point x="306.0" y="1023.5061728395061"/>
      <point x="91.49382716049384" y="838.1975308641976"/>
      <point x="91.49382716049384" y="499.2345679012346" type="curve" smooth="yes"/>
      <point x="91.49382716049384" y="163.30864197530863"/>
      <point x="306.0" y="-25.0"/>
    </contour>
    <contour>
      <point x="556.8888888888889" y="132.53086419753083" type="curve" smooth="yes"/>
      <point x="390.8641975308642" y="132.53086419753083"/>
      <point x="288.1111111111111" y="277.1728395061728"/>
      <point x="288.1111111111111" y="499.2345679012346" type="curve" smooth="yes"/>
      <point x="288.1111111111111" y="722.641975308642"/>
      <point x="390.8641975308642" y="866.6296296296297"/>
      <point x="556.8888888888889" y="866.6296296296297" type="curve" smooth="yes"/>
      <point x="723.9135802469136" y="866.6296296296297"/>
      <point x="828.0123456790124" y="722.641975308642"/>
      <point x="828.0123456790124" y="499.2345679012346" type="curve" smooth="yes"/>
      <point x="828.0123456790124" y="277.1728395061728"/>
      <point x="723.9135802469136" y="132.53086419753083"/>
    </contour>
  </outline>
</glyph>
<glyph name="p" format="2">
  <advance width="1143.0493827160494"/>
  <unicode hex="0070"/>
  <anchor x="377.8765432098767" y="-234.56790123456796" name="btm"/>
  <anchor x="604.9259259259259" y="886.4197530864199" name="top"/>
  <outline>
    <contour>
      <point x="162.25925925925927" y="-412.98765432098764" type="line"/>
      <point x="352.25925925925924" y="-412.98765432098764" type="line"/>
      <point x="352.25925925925924" y="-83.03703703703704" type="line"/>
      <point x="347.29629629629625" y="88.72839506172839" type="line"/>
      <point x="435.4444444444444" y="17.037037037037038"/>
      <point x="523.8641975308642" y="-25.0"/>
      <point x="617.2098765432098" y="-25.0" type="curve" smooth="yes"/>
      <point x="846.9382716049382" y="-25.0"/>
      <point x="1047.5925925925926" y="168.30864197530863"/>
      <point x="1047.5925925925926" y="512.5802469135803" type="curve" smooth="yes"/>
      <point x="1047.5925925925926" y="827.1975308641976"/>
      <point x="912.0123456790124" y="1023.5061728395061"/>
      <point x="652.9382716049382" y="1023.5061728395061" type="curve" smooth="yes"/>
      <point x="536.2098765432098" y="1023.5061728395061"/>
      <point x="429.1358024691358" y="961.0864197530864"/>
      <point x="341.71604938271605" y="886.395061728395" type="curve"/>
      <point x="334.0617283950617" y="886.395061728395" type="line"/>
      <point x="318.7901234567901" y="998.5061728395061" type="line"/>
      <point x="162.25925925925927" y="998.5061728395061" type="line"/>
    </contour>
    <contour>
      <point x="352.25925925925924" y="735.641975308642" type="line"/>
      <point x="443.8641975308642" y="820.1728395061729"/>
      <point x="520.7777777777777" y="864.9753086419753"/>
      <point x="601.9629629629629" y="864.9753086419753" type="curve" smooth="yes"/>
      <point x="782.7901234567902" y="864.9753086419753"/>
      <point x="850.283950617284" y="729.2222222222223"/>
      <point x="850.283950617284" y="511.9259259259259" type="curve" smooth="yes"/>
      <point x="850.283950617284" y="269.32098765432096"/>
      <point x="736.9876543209876" y="134.53086419753083"/>
      <point x="580.5432098765432" y="134.53086419753083" type="curve" smooth="yes"/>
      <point x="516.0864197530864" y="134.53086419753083"/>
      <point x="436.2098765432099" y="159.95061728395058"/>
      <point x="352.25925925925924" y="231.82716049382714" type="curve"/>
    </contour>
  </outline>
</glyph>
<glyph name="q" format="2">
  <advance width="1133.320987654321"/>
  <unicode hex="0071"/>
  <anchor x="536.7777777777777" y="-234.56790123456796" name="btm"/>
  <anchor x="536.7777777777777" y="886.4197530864199" name="top"/>
  <outline>
    <contour>
      <point x="789.1358024691358" y="-412.98765432098764" type="line"/>
      <point x="980.4444444444445" y="-412.98765432098764" type="line"/>
      <point x="980.4444444444445" y="998.5061728395061" type="line"/>
      <point x="829.2222222222223" y="998.5061728395061" type="line"/>
      <point x="810.9506172839506" y="903.2345679012345" type="line"/>
      <point x="805.641975308642" y="903.2345679012345" type="line"/>
      <point x="717.9135802469136" y="982.1604938271605"/>
      <point x="641.5679012345679" y="1023.5061728395061"/>
      <point x="524.5308641975308" y="1023.5061728395061" type="curve" smooth="yes"/>
      <point x="295.11111111111114" y="1023.5061728395061"/>
      <point x="93.4567901234568" y="827.5061728395061"/>
      <point x="93.4567901234568" y="496.58024691358025" type="curve" smooth="yes"/>
      <point x="93.4567901234568" y="158.58024691358025"/>
      <point x="251.11111111111111" y="-25.0"/>
      <point x="506.41975308641975" y="-25.0" type="curve" smooth="yes"/>
      <point x="620.604938271605" y="-25.0"/>
      <point x="719.9876543209876" y="34.76543209876544"/>
      <point x="798.0987654320987" y="107.18518518518519" type="curve"/>
      <point x="789.1358024691358" y="-66.65432098765432" type="line"/>
    </contour>
    <contour>
      <point x="789.1358024691358" y="263.8641975308642" type="line"/>
      <point x="712.5308641975308" y="176.02469135802465"/>
      <point x="640.6543209876543" y="134.53086419753083"/>
      <point x="551.4320987654321" y="134.53086419753083" type="curve" smooth="yes"/>
      <point x="381.98765432098764" y="134.53086419753083"/>
      <point x="290.1111111111111" y="261.9382716049383"/>
      <point x="290.1111111111111" y="498.88888888888886" type="curve" smooth="yes"/>
      <point x="290.1111111111111" y="724.4938271604939"/>
      <point x="408.4074074074074" y="864.9753086419753"/>
      <point x="560.8888888888889" y="864.9753086419753" type="curve" smooth="yes"/>
      <point x="640.4197530864197" y="864.9753086419753"/>
      <point x="710.2222222222223" y="838.5555555555555"/>
      <point x="789.1358024691358" y="766.679012345679" type="curve"/>
    </contour>
  </outline>
</glyph>
<glyph name="r" format="2">
  <advance width="728.5308641975308"/>
  <unicode hex="0072"/>
  <anchor x="315.3333333333333" y="-234.56790123456796" name="btm"/>
  <anchor x="447.7407407407407" y="886.4197530864199" name="top"/>
  <outline>
    <contour>
      <point x="162.25925925925927" y="0.0" type="line"/>
      <point x="352.25925925925924" y="0.0" type="line"/>
      <point x="352.25925925925924" y="631.0617283950618" type="line"/>
      <point x="417.02469135802465" y="793.283950617284"/>
      <point x="517.4074074074074" y="852.7037037037037"/>
      <point x="599.1358024691358" y="852.7037037037037" type="curve" smooth="yes"/>
      <point x="640.4444444444445" y="852.7037037037037"/>
      <point x="664.716049382716" y="847.0493827160494"/>
      <point x="698.3703703703703" y="836.7037037037037" type="curve"/>
      <point x="733.2222222222222" y="1002.5061728395061" type="line"/>
      <point x="701.8765432098766" y="1017.1975308641976"/>
      <point x="670.5679012345679" y="1023.5061728395061"/>
      <point x="624.3333333333333" y="1023.5061728395061" type="curve" smooth="yes"/>
      <point x="513.604938271605" y="1023.5061728395061"/>
      <point x="409.679012345679" y="946.0864197530864"/>
      <point x="341.71604938271605" y="818.8148148148148" type="curve"/>
      <point x="334.0617283950617" y="818.8148148148148" type="line"/>
      <point x="318.7901234567901" y="998.5061728395061" type="line"/>
      <point x="162.25925925925927" y="998.5061728395061" type="line"/>
    </contour>
  </outline>
</glyph>
<glyph name="s" format="2">
  <advance width="866.283950617284"/>
  <unicode hex="0073"/>
  <anchor x="445.8641975308642" y="-234.56790123456796" name="btm"/>
  <anchor x="443.2469135802469" y="886.4197530864199" name="top"/>
  <outline>
    <contour>
      <point x="772.3703703703703" y="910.3086419753087" type="line"/>
      <point x="693.4444444444445" y="973.2716049382716"/>
      <point x="583.8271604938271" y="1023.5061728395061"/>
      <point x="454.7407407407407" y="1023.5061728395061" type="curve" smooth="yes"/>
      <point x="235.88888888888889" y="1023.5061728395061"/>
      <point x="103.76543209876543" y="900.8888888888889"/>
      <point x="103.76543209876543" y="736.7654320987655" type="curve" smooth="yes"/>
      <point x="103.76543209876543" y="568.7654320987655"/>
      <point x="258.8395061728395" y="494.5679012345679"/>
      <point x="395.641975308642" y="444.5308641975309" type="curve" smooth="yes"/>
      <point x="504.67901234567904" y="403.5308641975309"/>
      <point x="620.1358024691358" y="360.41975308641975"/>
      <point x="620.1358024691358" y="263.1604938271605" type="curve" smooth="yes"/>
      <point x="620.1358024691358" y="182.9012345679012"/>
      <point x="561.5679012345679" y="121.29629629629628"/>
      <point x="434.96296296296293" y="121.29629629629628" type="curve" smooth="yes"/>
      <point x="321.358024691358" y="121.29629629629628"/>
      <point x="237.66666666666666" y="169.71604938271602"/>
      <point x="150.04938271604937" y="238.71604938271602" type="curve"/>
      <point x="58.111111111111114" y="113.96296296296296" type="line"/>
      <point x="153.3827160493827" y="34.69135802469136"/>
      <point x="289.58024691358025" y="-25.0"/>
      <point x="428.96296296296293" y="-25.0" type="curve" smooth="yes"/>
      <point x="671.0123456790124" y="-25.0"/>
      <point x="802.5555555555555" y="109.92592592592592"/>
      <point x="802.5555555555555" y="274.08641975308643" type="curve" smooth="yes"/>
      <point x="802.5555555555555" y="463.12345679012344"/>
      <point x="644.4444444444445" y="527.0123456790124"/>
      <point x="502.98765432098764" y="578.7407407407408" type="curve" smooth="yes"/>
      <point x="392.25925925925924" y="621.0864197530864"/>
      <point x="286.4938271604938" y="661.8518518518518"/>
      <point x="286.4938271604938" y="751.0370370370371" type="curve" smooth="yes"/>
      <point x="286.4938271604938" y="823.8765432098766"/>
      <point x="339.02469135802465" y="877.2098765432099"/>
      <point x="456.7037037037037" y="877.2098765432099" type="curve" smooth="yes"/>
      <point x="547.7407407407408" y="877.2098765432099"/>
      <point x="613.8148148148148" y="843.1728395061729"/>
      <point x="682.7777777777777" y="791.8641975308642" type="curve"/>
    </contour>
  </outline>
</glyph>
<glyph name="t" format="2">
  <advance width="707.2962962962963"/>
  <unicode hex="0074"/>
  <anchor x="374.11111111111114" y="-234.56790123456796" name="btm"/>
  <anchor x="640.9012345679013" y="1020.0123456790124" name="car"/>
  <anchor x="297.28395061728395" y="1097.4444444444446" name="top"/>
  <outline>
    <contour>
      <point x="644.1358024691358" y="154.29629629629628" type="line"/>
      <point x="612.7530864197531" y="142.6049382716049"/>
      <point x="569.0246913580247" y="128.91358024691357"/>
      <point x="534.3333333333333" y="128.91358024691357" type="curve" smooth="yes"/>
      <point x="425.72839506172835" y="128.91358024691357"/>
      <point x="384.8395061728395" y="194.75308641975306"/>
      <point x="384.8395061728395" y="316.1358024691358" type="curve" smooth="yes"/>
      <point x="384.8395061728395" y="844.9382716049383" type="line"/>
      <point x="649.3703703703703" y="844.9382716049383" type="line"/>
      <point x="649.3703703703703" y="998.5061728395061" type="line"/>
      <point x="384.8395061728395" y="998.5061728395061" type="line"/>
      <point x="384.8395061728395" y="1276.5802469135801" type="line"/>
      <point x="225.0" y="1276.5802469135801" type="line"/>
      <point x="202.11111111111111" y="998.5061728395061" type="line"/>
      <point x="46.76543209876544" y="988.1975308641976" type="line"/>
      <point x="46.76543209876544" y="844.9382716049383" type="line"/>
      <point x="193.1851851851852" y="844.9382716049383" type="line"/>
      <point x="193.1851851851852" y="317.8641975308642" type="line"/>
      <point x="193.1851851851852" y="114.1604938271605"/>
      <point x="268.96296296296293" y="-25.0"/>
      <point x="488.01234567901236" y="-25.0" type="curve" smooth="yes"/>
      <point x="557.0617283950617" y="-25.0"/>
      <point x="624.3333333333333" y="-5.691358024691359"/>
      <point x="679.679012345679" y="12.0" type="curve"/>
    </contour>
  </outline>
</glyph>
<glyph name="u" format="2">
  <advance width="1121.9382716049383"/>
  <unicode hex="0075"/>
  <anchor x="554.1234567901234" y="-234.56790123456796" name="btm"/>
  <anchor x="554.1234567901234" y="886.4197530864199" name="top"/>
  <outline>
    <contour>
      <point x="788.2222222222223" y="153.11111111111111" type="line"/>
      <point x="803.4938271604939" y="0.0" type="line"/>
      <point x="960.3333333333333" y="0.0" type="line"/>
      <point x="960.3333333333333" y="998.5061728395061" type="line"/>
      <point x="770.0246913580247" y="998.5061728395061" type="line"/>
      <point x="770.0246913580247" y="298.2469135802469" type="line"/>
      <point x="681.4197530864197" y="187.29629629629628"/>
      <point x="620.8888888888889" y="139.4938271604938"/>
      <point x="517.358024691358" y="139.4938271604938" type="curve" smooth="yes"/>
      <point x="387.02469135802465" y="139.4938271604938"/>
      <point x="340.2222222222222" y="211.4074074074074"/>
      <point x="340.2222222222222" y="391.04938271604937" type="curve" smooth="yes"/>
      <point x="340.2222222222222" y="998.5061728395061" type="line"/>
      <point x="148.9135802469136" y="998.5061728395061" type="line"/>
      <point x="148.9135802469136" y="365.5061728395062" type="line"/>
      <point x="148.9135802469136" y="111.50617283950616"/>
      <point x="236.9135802469136" y="-25.0"/>
      <point x="455.4938271604938" y="-25.0" type="curve" smooth="yes"/>
      <point x="598.8024691358024" y="-25.0"/>
      <point x="690.8395061728395" y="45.7283950617284"/>
      <point x="781.5679012345679" y="153.11111111111111" type="curve"/>
    </contour>
  </outline>
</glyph>
<glyph name="v" format="2">
  <advance width="975.4567901234568"/>
  <unicode hex="0076"/>
  <anchor x="487.55555555555554" y="-234.56790123456796" name="btm"/>
  <anchor x="487.55555555555554" y="886.4197530864199" name="top"/>
  <outline>
    <contour>
      <point x="380.4567901234568" y="0.0" type="line"/>
      <point x="602.6172839506172" y="0.0" type="line"/>
      <point x="951.1111111111111" y="998.5061728395061" type="line"/>
      <point x="764.7283950617284" y="998.5061728395061" type="line"/>
      <point x="585.9753086419753" y="447.8395061728395" type="line"/>
      <point x="556.9382716049382" y="349.53086419753083"/>
      <point x="524.9012345679013" y="247.91358024691357"/>
      <point x="496.8641975308642" y="150.98765432098764" type="curve"/>
      <point x="488.8641975308642" y="150.98765432098764" type="line"/>
      <point x="459.5185185185185" y="247.91358024691357"/>
      <point x="427.1358024691358" y="349.53086419753083"/>
      <point x="398.4444444444444" y="447.8395061728395" type="curve"/>
      <point x="220.34567901234564" y="998.5061728395061" type="line"/>
      <point x="25.0" y="998.5061728395061" type="line"/>
    </contour>
  </outline>
</glyph>
<glyph name="w" format="2">
  <advance width="1490.111111111111"/>
  <unicode hex="0077"/>
  <anchor x="744.5555555555555" y="-234.56790123456796" name="btm"/>
  <anchor x="744.5555555555555" y="886.4197530864199" name="top"/>
  <outline>
    <contour>
      <point x="322.1851851851852" y="0.0" type="line"/>
      <point x="543.037037037037" y="0.0" type="line"/>
      <point x="674.7530864197531" y="510.962962962963" type="line"/>
      <point x="699.4814814814814" y="605.962962962963"/>
      <point x="719.2098765432098" y="699.962962962963"/>
      <point x="740.5555555555555" y="801.5802469135803" type="curve"/>
      <point x="748.5555555555555" y="801.5802469135803" type="line"/>
      <point x="771.9382716049382" y="699.962962962963"/>
      <point x="790.283950617284" y="607.6543209876544"/>
      <point x="814.320987654321" y="513.6543209876544" type="curve" smooth="yes"/>
      <point x="949.0370370370371" y="0.0" type="line"/>
      <point x="1178.5802469135801" y="0.0" type="line"/>
      <point x="1441.111111111111" y="998.5061728395061" type="line"/>
      <point x="1262.0" y="998.5061728395061" type="line"/>
      <point x="1124.2839506172838" y="441.037037037037" type="line"/>
      <point x="1103.9382716049383" y="345.41975308641975"/>
      <point x="1086.8641975308642" y="254.4938271604938"/>
      <point x="1065.5185185185185" y="160.2222222222222" type="curve"/>
      <point x="1057.5185185185185" y="160.2222222222222" type="line"/>
      <point x="1034.8271604938273" y="254.4938271604938"/>
      <point x="1013.1358024691358" y="345.41975308641975"/>
      <point x="988.7901234567901" y="441.037037037037" type="curve" smooth="yes"/>
      <point x="839.4938271604938" y="998.5061728395061" type="line"/>
      <point x="659.8888888888889" y="998.5061728395061" type="line"/>
      <point x="512.9012345679013" y="441.037037037037" type="line"/>
      <point x="487.9012345679012" y="347.72839506172835"/>
      <point x="468.8641975308642" y="254.4938271604938"/>
      <point x="446.5185185185185" y="160.2222222222222" type="curve"/>
      <point x="438.5185185185185" y="160.2222222222222" type="line"/>
      <point x="420.82716049382714" y="254.4938271604938"/>
      <point x="402.4444444444444" y="345.41975308641975"/>
      <point x="381.75308641975306" y="441.037037037037" type="curve"/>
      <point x="242.037037037037" y="998.5061728395061" type="line"/>
      <point x="49.0" y="998.5061728395061" type="line"/>
    </contour>
  </outline>
</glyph>
<glyph name="x" format="2">
  <advance width="936.6172839506172"/>
  <unicode hex="0078"/>
  <anchor x="468.1358024691358" y="-234.56790123456796" name="btm"/>
  <anchor x="468.1358024691358" y="886.4197530864199" name="top"/>
  <outline>
    <contour>
      <point x="29.0" y="0.0" type="line"/>
      <point x="227.61728395061726" y="0.0" type="line"/>
      <point x="353.71604938271605" y="220.4814814814815" type="line"/>
      <point x="384.7901234567901" y="281.8271604938272"/>
      <point x="417.48148148148147" y="341.17283950617286"/>
      <point x="449.55555555555554" y="399.17283950617286" type="curve"/>
      <point x="458.55555555555554" y="399.17283950617286" type="line"/>
      <point x="494.59259259259255" y="341.17283950617286"/>
      <point x="529.9753086419753" y="280.17283950617286"/>
      <point x="564.320987654321" y="220.4814814814815" type="curve"/>
      <point x="701.6913580246913" y="0.0" type="line"/>
      <point x="908.2716049382716" y="0.0" type="line"/>
      <point x="585.5061728395061" y="500.7283950617284" type="line"/>
      <point x="885.8888888888888" y="998.5061728395061" type="line"/>
      <point x="687.2716049382716" y="998.5061728395061" type="line"/>
      <point x="574.8641975308642" y="788.7530864197531" type="line"/>
      <point x="546.1358024691358" y="734.4444444444445"/>
      <point x="515.7901234567901" y="677.1358024691358"/>
      <point x="488.71604938271605" y="621.4814814814814" type="curve"/>
      <point x="480.71604938271605" y="621.4814814814814" type="line"/>
      <point x="446.679012345679" y="677.1358024691358"/>
      <point x="413.98765432098764" y="734.4444444444445"/>
      <point x="384.29629629629625" y="788.7530864197531" type="curve" smooth="yes"/>
      <point x="258.61728395061726" y="998.5061728395061" type="line"/>
      <point x="52.03703703703704" y="998.5061728395061" type="line"/>
      <point x="351.7654320987654" y="521.2716049382716" type="line"/>
    </contour>
  </outline>
</glyph>
<glyph name="y" format="2">
  <advance width="974.4938271604938"/>
  <unicode hex="0079"/>
  <anchor x="743.4938271604938" y="-290.1851851851852" name="btm"/>
  <anchor x="487.2469135802469" y="886.4197530864199" name="top"/>
  <outline>
    <contour>
      <point x="950.4938271604938" y="998.5061728395061" type="line"/>
      <point x="763.1111111111111" y="998.5061728395061" type="line"/>
      <point x="595.358024691358" y="466.96296296296293" type="line"/>
      <point x="569.0123456790124" y="377.037037037037"/>
      <point x="543.283950617284" y="276.3086419753086"/>
      <point x="515.2469135802469" y="185.037037037037" type="curve"/>
      <point x="507.2469135802469" y="185.037037037037" type="line"/>
      <point x="476.8641975308642" y="278.61728395061726"/>
      <point x="443.7901234567901" y="379.3456790123456"/>
      <point x="412.7901234567901" y="466.96296296296293" type="curve" smooth="yes"/>
      <point x="220.34567901234564" y="998.5061728395061" type="line"/>
      <point x="25.0" y="998.5061728395061" type="line"/>
      <point x="422.7283950617284" y="2.7777777777777697" type="line"/>
      <point x="401.0" y="-67.37037037037038" type="line"/>
      <point x="362.88888888888886" y="-184.04938271604942"/>
      <point x="294.7407407407407" y="-267.6543209876544"/>
      <point x="183.9753086419753" y="-267.6543209876544" type="curve" smooth="yes"/>
      <point x="159.93827160493825" y="-267.6543209876544"/>
      <point x="129.59259259259258" y="-259.6543209876544"/>
      <point x="109.59259259259258" y="-252.962962962963" type="curve"/>
      <point x="73.74074074074073" y="-402.91358024691357" type="line"/>
      <point x="107.01234567901233" y="-414.91358024691357"/>
      <point x="146.320987654321" y="-423.2592592592593"/>
      <point x="194.86419753086417" y="-423.2592592592593" type="curve" smooth="yes"/>
      <point x="401.5679012345679" y="-423.2592592592593"/>
      <point x="504.8395061728395" y="-276.7654320987654"/>
      <point x="579.3086419753085" y="-70.2098765432099" type="curve" smooth="yes"/>
    </contour>
  </outline>
</glyph>
<glyph name="z" format="2">
  <advance width="881.4444444444445"/>
  <unicode hex="007A"/>
  <anchor x="461.0617283950617" y="-234.56790123456796" name="btm"/>
  <anchor x="447.32098765432096" y="886.4197530864199" name="top"/>
  <outline>
    <contour>
      <point x="65.88888888888889" y="0.0" type="line"/>
      <point x="829.7530864197531" y="0.0" type="line"/>
      <point x="829.7530864197531" y="153.91358024691357" type="line"/>
      <point x="305.9753086419753" y="153.91358024691357" type="line"/>
      <point x="814.0617283950617" y="897.0617283950618" type="line"/>
      <point x="814.0617283950617" y="998.5061728395061" type="line"/>
      <point x="121.96296296296296" y="998.5061728395061" type="line"/>
      <point x="121.96296296296296" y="844.9382716049383" type="line"/>
      <point x="573.9753086419753" y="844.9382716049383" type="line"/>
      <point x="65.88888888888889" y="101.7901234567901" type="line"/>
    </contour>
  </outline>
</glyph>
<glyph name="braceleft" format="2">
  <advance width="634.679012345679"/>
  <unicode hex="007B"/>
  <outline>
    <contour>
      <point x="566.9382716049382" y="-311.0" type="line"/>
      <point x="566.9382716049382" y="-204.4814814814815" type="line"/>
      <point x="513.1358024691358" y="-204.4814814814815" type="line"/>
      <point x="408.9506172839506" y="-204.4814814814815"/>
      <point x="380.91358024691357" y="-154.64197530864197"/>
      <point x="380.91358024691357" y="-25.493827160493833" type="curve" smooth="yes"/>
      <point x="380.91358024691357" y="96.61728395061728"/>
      <point x="392.25925925925924" y="202.69135802469137"/>
      <point x="392.25925925925924" y="339.4567901234568" type="curve" smooth="yes"/>
      <point x="392.25925925925924" y="474.2716049382716"/>
      <point x="356.0617283950617" y="541.0"/>
      <point x="264.82716049382714" y="565.0" type="curve"/>
      <point x="264.82716049382714" y="573.0" type="line"/>
      <point x="356.0617283950617" y="598.0"/>
      <point x="392.25925925925924" y="662.3827160493827"/>
      <point x="392.25925925925924" y="799.1975308641976" type="curve" smooth="yes"/>
      <point x="392.25925925925924" y="924.2345679012345"/>
      <point x="380.91358024691357" y="1047.0740740740741"/>
      <point x="380.91358024691357" y="1163.4938271604938" type="curve" smooth="yes"/>
      <point x="380.91358024691357" y="1293.2962962962963"/>
      <point x="408.9506172839506" y="1341.1358024691358"/>
      <point x="513.1358024691358" y="1341.1358024691358" type="curve" smooth="yes"/>
      <point x="566.9382716049382" y="1341.1358024691358" type="line"/>
      <point x="566.9382716049382" y="1450.0" type="line"/>
      <point x="467.5432098765432" y="1450.0" type="line"/>
      <point x="304.03703703703707" y="1450.0"/>
      <point x="225.7283950617284" y="1384.7283950617284"/>
      <point x="225.7283950617284" y="1174.8024691358025" type="curve" smooth="yes"/>
      <point x="225.7283950617284" y="1032.4938271604938"/>
      <point x="245.03703703703704" y="913.4691358024692"/>
      <point x="245.03703703703704" y="784.7777777777777" type="curve" smooth="yes"/>
      <point x="245.03703703703704" y="708.0864197530864"/>
      <point x="206.41975308641975" y="631.0493827160494"/>
      <point x="68.38271604938272" y="628.395061728395" type="curve"/>
      <point x="68.38271604938272" y="510.60493827160496" type="line"/>
      <point x="206.41975308641975" y="507.95061728395063"/>
      <point x="245.03703703703704" y="430.2592592592593"/>
      <point x="245.03703703703704" y="351.5308641975309" type="curve" smooth="yes"/>
      <point x="245.03703703703704" y="215.80246913580248"/>
      <point x="225.7283950617284" y="112.88888888888889"/>
      <point x="225.7283950617284" y="-35.802469135802475" type="curve" smooth="yes"/>
      <point x="225.7283950617284" y="-248.7283950617284"/>
      <point x="304.03703703703707" y="-311.0"/>
      <point x="467.5432098765432" y="-311.0" type="curve" smooth="yes"/>
    </contour>
  </outline>
</glyph>
<glyph name="bar" format="2">
  <advance width="503.2469135802469"/>
  <unicode hex="007C"/>
  <outline>
    <contour>
      <point x="185.76543209876544" y="-512.0" type="line"/>
      <point x="317.82716049382714" y="-512.0" type="line"/>
      <point x="317.82716049382714" y="1536.0" type="line"/>
      <point x="185.76543209876544" y="1536.0" type="line"/>
    </contour>
  </outline>
</glyph>
<glyph name="asciitilde" format="2">
  <advance width="1028.5185185185185"/>
  <unicode hex="007E"/>
  <outline>
    <contour>
      <point x="852.5432098765432" y="785.320987654321" type="line"/>
      <point x="812.1234567901234" y="698.9012345679013"/>
      <point x="761.7407407407408" y="661.9382716049382"/>
      <point x="698.1234567901234" y="661.9382716049382" type="curve" smooth="yes"/>
      <point x="583.4320987654321" y="661.9382716049382"/>
      <point x="497.9382716049383" y="831.0864197530864"/>
      <point x="334.66666666666663" y="831.0864197530864" type="curve" smooth="yes"/>
      <point x="233.96296296296296" y="831.0864197530864"/>
      <point x="137.69135802469137" y="782.0864197530864"/>
      <point x="71.11111111111111" y="642.2716049382716" type="curve"/>
      <point x="175.9753086419753" y="565.679012345679" type="line"/>
      <point x="220.04938271604937" y="658.4444444444445"/>
      <point x="267.4320987654321" y="690.0617283950618"/>
      <point x="330.7037037037037" y="690.0617283950618" type="curve" smooth="yes"/>
      <point x="444.7407407407407" y="690.0617283950618"/>
      <point x="533.1604938271605" y="520.2592592592592"/>
      <point x="696.4320987654321" y="520.2592592592592" type="curve" smooth="yes"/>
      <point x="795.320987654321" y="520.2592592592592"/>
      <point x="886.7901234567901" y="574.9135802469136"/>
      <point x="957.0617283950617" y="707.3827160493827" type="curve"/>
    </contour>
  </outline>
</glyph>
<glyph name="cent" format="2">
  <advance width="1028.5185185185185"/>
  <unicode hex="00A2"/>
  <outline>
    <contour>
      <point x="541.4691358024692" y="-70.19753086419753" type="line"/>
      <point x="657.3333333333333" y="-70.19753086419753" type="line"/>
      <point x="657.3333333333333" y="138.25925925925927" type="line"/>
      <point x="762.1358024691358" y="147.22222222222223"/>
      <point x="862.1358024691358" y="194.60493827160494"/>
      <point x="941.4814814814814" y="264.641975308642" type="curve"/>
      <point x="859.5061728395061" y="386.01234567901236" type="line"/>
      <point x="806.395061728395" y="340.2098765432099"/>
      <point x="738.2098765432098" y="300.7901234567901"/>
      <point x="657.3333333333333" y="294.48148148148147" type="curve"/>
      <point x="657.3333333333333" y="972.9382716049383" type="line"/>
      <point x="723.5925925925926" y="968.9382716049383"/>
      <point x="779.4320987654321" y="938.8271604938271"/>
      <point x="831.5432098765432" y="893.0617283950618" type="curve"/>
      <point x="922.4444444444445" y="1012.4320987654321" type="line"/>
      <point x="860.7530864197531" y="1072.432098765432"/>
      <point x="774.4444444444445" y="1123.5061728395062"/>
      <point x="657.3333333333333" y="1130.469135802469" type="curve"/>
      <point x="657.3333333333333" y="1337.962962962963" type="line"/>
      <point x="541.4691358024692" y="1337.962962962963" type="line"/>
      <point x="541.4691358024692" y="1124.1604938271605" type="line"/>
      <point x="305.96296296296293" y="1089.9259259259259"/>
      <point x="124.69135802469135" y="918.3456790123457"/>
      <point x="124.69135802469135" y="634.0370370370371" type="curve" smooth="yes"/>
      <point x="124.69135802469135" y="344.11111111111114"/>
      <point x="293.96296296296293" y="168.87654320987656"/>
      <point x="541.4691358024692" y="139.60493827160494" type="curve"/>
    </contour>
    <contour>
      <point x="541.4691358024692" y="305.0617283950617" type="line"/>
      <point x="397.3703703703703" y="340.98765432098764"/>
      <point x="313.3827160493827" y="461.9382716049383"/>
      <point x="313.3827160493827" y="634.0370370370371" type="curve" smooth="yes"/>
      <point x="313.3827160493827" y="804.4814814814815"/>
      <point x="400.75308641975306" y="925.0864197530865"/>
      <point x="541.4691358024692" y="961.3580246913581" type="curve"/>
    </contour>
  </outline>
</glyph>
<glyph name="sterling" format="2">
  <advance width="1028.5185185185185"/>
  <unicode hex="00A3"/>
  <outline>
    <contour>
      <point x="107.11111111111111" y="0.0" type="line"/>
      <point x="962.2962962962963" y="0.0" type="line"/>
      <point x="962.2962962962963" y="163.4938271604938" type="line"/>
      <point x="372.6543209876543" y="163.4938271604938" type="line"/>
      <point x="372.6543209876543" y="171.8395061728395" type="line"/>
      <point x="452.8024691358024" y="253.91358024691357"/>
      <point x="494.25925925925924" y="338.09876543209873"/>
      <point x="494.25925925925924" y="473.77777777777777" type="curve" smooth="yes"/>
      <point x="494.25925925925924" y="510.61728395061726"/>
      <point x="490.5679012345679" y="545.0740740740741"/>
      <point x="484.53086419753083" y="579.2222222222223" type="curve"/>
      <point x="755.2469135802469" y="579.2222222222223" type="line"/>
      <point x="755.2469135802469" y="705.0123456790124" type="line"/>
      <point x="456.29629629629625" y="705.0123456790124" type="line"/>
      <point x="434.2222222222222" y="785.2716049382716"/>
      <point x="411.7654320987654" y="859.8395061728395"/>
      <point x="411.7654320987654" y="939.7901234567902" type="curve" smooth="yes"/>
      <point x="411.7654320987654" y="1085.79012345679"/>
      <point x="492.8024691358024" y="1171.5061728395062"/>
      <point x="633.7530864197531" y="1171.5061728395062" type="curve" smooth="yes"/>
      <point x="721.6296296296296" y="1171.5061728395062"/>
      <point x="779.7777777777777" y="1139.6296296296296"/>
      <point x="830.1604938271605" y="1076.5925925925926" type="curve"/>
      <point x="939.9876543209876" y="1189.3086419753085" type="line"/>
      <point x="864.1358024691358" y="1281.1604938271605"/>
      <point x="762.9012345679013" y="1330.037037037037"/>
      <point x="616.283950617284" y="1330.037037037037" type="curve" smooth="yes"/>
      <point x="384.12345679012344" y="1330.037037037037"/>
      <point x="225.3827160493827" y="1192.0"/>
      <point x="225.3827160493827" y="946.0617283950618" type="curve" smooth="yes"/>
      <point x="225.3827160493827" y="865.8024691358024"/>
      <point x="252.14814814814815" y="786.2345679012345"/>
      <point x="276.87654320987656" y="705.0123456790124" type="curve"/>
      <point x="244.69135802469137" y="705.0123456790124" type="line"/>
      <point x="111.96296296296296" y="697.358024691358" type="line"/>
      <point x="111.96296296296296" y="579.2222222222223" type="line"/>
      <point x="311.38271604938274" y="579.2222222222223" type="line"/>
      <point x="318.7654320987654" y="545.0740740740741"/>
      <point x="324.11111111111114" y="511.2716049382716"/>
      <point x="324.11111111111114" y="475.77777777777777" type="curve" smooth="yes"/>
      <point x="324.11111111111114" y="323.04938271604937"/>
      <point x="243.9135802469136" y="188.5185185185185"/>
      <point x="107.11111111111111" y="116.37037037037035" type="curve"/>
    </contour>
  </outline>
</glyph>
<glyph name="currency" format="2">
  <advance width="1028.5185185185185"/>
  <unicode hex="00A4"/>
  <outline>
    <contour>
      <point x="150.9753086419753" y="203.64197530864197" type="line"/>
      <point x="290.9382716049383" y="345.95061728395063" type="line"/>
      <point x="354.28395061728395" y="298.14814814814815"/>
      <point x="433.01234567901236" y="273.0740740740741"/>
      <point x="514.7407407407408" y="273.0740740740741" type="curve" smooth="yes"/>
      <point x="593.5061728395061" y="273.0740740740741"/>
      <point x="674.2345679012345" y="298.14814814814815"/>
      <point x="737.2345679012345" y="345.95061728395063" type="curve"/>
      <point x="876.5432098765432" y="203.64197530864197" type="line"/>
      <point x="977.4074074074074" y="305.85185185185185" type="line"/>
      <point x="845.3703703703703" y="438.2345679012346" type="line"/>
      <point x="891.716049382716" y="501.9259259259259"/>
      <point x="920.0617283950617" y="580.9629629629629"/>
      <point x="920.0617283950617" y="674.3086419753087" type="curve" smooth="yes"/>
      <point x="920.0617283950617" y="767.0370370370371"/>
      <point x="892.3703703703703" y="848.0740740740741"/>
      <point x="845.0246913580247" y="911.1111111111111" type="curve"/>
      <point x="977.4074074074074" y="1044.8395061728395" type="line"/>
      <point x="876.5432098765432" y="1147.0493827160494" type="line"/>
      <point x="737.8888888888889" y="1003.395061728395" type="line"/>
      <point x="674.2345679012345" y="1050.5061728395062"/>
      <point x="593.5061728395061" y="1075.5802469135801"/>
      <point x="514.7407407407408" y="1075.5802469135801" type="curve" smooth="yes"/>
      <point x="433.01234567901236" y="1075.5802469135801"/>
      <point x="353.9382716049383" y="1050.5061728395062"/>
      <point x="290.9382716049383" y="1003.395061728395" type="curve"/>
      <point x="150.9753086419753" y="1147.0493827160494" type="line"/>
      <point x="50.76543209876544" y="1044.8395061728395" type="line"/>
      <point x="180.49382716049382" y="911.1111111111111" type="line"/>
      <point x="134.45679012345678" y="848.0740740740741"/>
      <point x="108.11111111111111" y="767.0370370370371"/>
      <point x="108.11111111111111" y="674.3086419753087" type="curve" smooth="yes"/>
      <point x="108.11111111111111" y="580.9629629629629"/>
      <point x="134.45679012345678" y="501.9259259259259"/>
      <point x="181.14814814814815" y="438.2345679012346" type="curve"/>
      <point x="50.76543209876544" y="305.85185185185185" type="line"/>
    </contour>
    <contour>
      <point x="514.7407407407408" y="411.75308641975306" type="curve" smooth="yes"/>
      <point x="387.82716049382714" y="411.75308641975306"/>
      <point x="282.91358024691357" y="517.0123456790124"/>
      <point x="282.91358024691357" y="674.3086419753087" type="curve" smooth="yes"/>
      <point x="282.91358024691357" y="830.641975308642"/>
      <point x="387.82716049382714" y="936.5555555555555"/>
      <point x="514.7407407407408" y="936.5555555555555" type="curve" smooth="yes"/>
      <point x="640.6913580246913" y="936.5555555555555"/>
      <point x="745.9135802469136" y="830.641975308642"/>
      <point x="745.9135802469136" y="674.3086419753087" type="curve" smooth="yes"/>
      <point x="745.9135802469136" y="517.0123456790124"/>
      <point x="640.6913580246913" y="411.75308641975306"/>
    </contour>
  </outline>
</glyph>
<glyph name="yen" format="2">
  <advance width="1028.5185185185185"/>
  <unicode hex="00A5"/>
  <outline>
    <contour>
      <point x="417.91358024691357" y="0.0" type="line"/>
      <point x="608.2592592592592" y="0.0" type="line"/>
      <point x="608.2592592592592" y="320.1851851851852" type="line"/>
      <point x="939.716049382716" y="320.1851851851852" type="line"/>
      <point x="939.716049382716" y="425.1604938271605" type="line"/>
      <point x="608.2592592592592" y="425.1604938271605" type="line"/>
      <point x="608.2592592592592" y="555.3086419753087" type="line"/>
      <point x="939.716049382716" y="555.3086419753087" type="line"/>
      <point x="939.716049382716" y="659.283950617284" type="line"/>
      <point x="654.7283950617284" y="659.283950617284" type="line"/>
      <point x="985.3333333333333" y="1305.3827160493827" type="line"/>
      <point x="791.679012345679" y="1305.3827160493827" type="line"/>
      <point x="641.5802469135803" y="967.4444444444445" type="line"/>
      <point x="600.8518518518518" y="878.0987654320987"/>
      <point x="563.8148148148148" y="788.0987654320987"/>
      <point x="520.0864197530864" y="693.716049382716" type="curve"/>
      <point x="511.7407407407407" y="693.716049382716" type="line"/>
      <point x="470.01234567901236" y="787.4444444444445"/>
      <point x="431.6296296296296" y="877.4444444444445"/>
      <point x="392.2469135802469" y="967.4444444444445" type="curve" smooth="yes"/>
      <point x="241.4938271604938" y="1305.3827160493827" type="line"/>
      <point x="43.83950617283951" y="1305.3827160493827" type="line"/>
      <point x="372.0987654320988" y="659.283950617284" type="line"/>
      <point x="89.4567901234568" y="659.283950617284" type="line"/>
      <point x="89.4567901234568" y="555.3086419753087" type="line"/>
      <point x="417.91358024691357" y="555.3086419753087" type="line"/>
      <point x="417.91358024691357" y="425.1604938271605" type="line"/>
      <point x="89.4567901234568" y="425.1604938271605" type="line"/>
      <point x="89.4567901234568" y="320.1851851851852" type="line"/>
      <point x="417.91358024691357" y="320.1851851851852" type="line"/>
    </contour>
  </outline>
</glyph>
<glyph name="brokenbar" format="2">
  <advance width="503.2469135802469"/>
  <unicode hex="00A6"/>
  <outline>
    <contour>
      <point x="185.76543209876544" y="-512.0" type="line"/>
      <point x="317.82716049382714" y="-512.0" type="line"/>
      <point x="317.82716049382714" y="434.4938271604938" type="line"/>
      <point x="185.76543209876544" y="434.4938271604938" type="line"/>
    </contour>
    <contour>
      <point x="185.76543209876544" y="603.0123456790124" type="line"/>
      <point x="317.82716049382714" y="603.0123456790124" type="line"/>
      <point x="317.82716049382714" y="1536.0" type="line"/>
      <point x="185.76543209876544" y="1536.0" type="line"/>
    </contour>
  </outline>
</glyph>
<glyph name="section" format="2">
  <advance width="1028.5185185185185"/>
  <unicode hex="00A7"/>
  <outline>
    <contour>
      <point x="843.0246913580247" y="1283.037037037037" type="line"/>
      <point x="764.4074074074074" y="1347.3456790123457"/>
      <point x="652.8641975308642" y="1403.5802469135801"/>
      <point x="519.0864197530864" y="1403.5802469135801" type="curve" smooth="yes"/>
      <point x="309.61728395061726" y="1403.5802469135801"/>
      <point x="199.1851851851852" y="1277.2716049382716"/>
      <point x="199.1851851851852" y="1129.2592592592594" type="curve" smooth="yes"/>
      <point x="199.1851851851852" y="1057.2592592592594"/>
      <point x="223.53086419753086" y="1003.604938271605"/>
      <point x="263.22222222222223" y="960.9506172839506" type="curve"/>
      <point x="161.87654320987656" y="901.9876543209876"/>
      <point x="89.4567901234568" y="813.0617283950618"/>
      <point x="89.4567901234568" y="696.2592592592592" type="curve" smooth="yes"/>
      <point x="89.4567901234568" y="316.98765432098764"/>
      <point x="649.9876543209876" y="361.9382716049383"/>
      <point x="649.9876543209876" y="140.03703703703704" type="curve" smooth="yes"/>
      <point x="649.9876543209876" y="66.81481481481481"/>
      <point x="589.4567901234568" y="7.938271604938258"/>
      <point x="484.2716049382716" y="7.938271604938258" type="curve" smooth="yes"/>
      <point x="381.04938271604937" y="7.938271604938258"/>
      <point x="304.7407407407407" y="48.32098765432097"/>
      <point x="237.04938271604937" y="113.97530864197529" type="curve"/>
      <point x="122.9135802469136" y="12.111111111111114" type="line"/>
      <point x="208.53086419753086" y="-83.35802469135801"/>
      <point x="338.96296296296293" y="-138.01234567901233"/>
      <point x="484.2716049382716" y="-138.01234567901233" type="curve" smooth="yes"/>
      <point x="687.7901234567901" y="-138.01234567901233"/>
      <point x="824.4444444444445" y="-15.506172839506167"/>
      <point x="824.4444444444445" y="150.30864197530863" type="curve" smooth="yes"/>
      <point x="824.4444444444445" y="218.03703703703704"/>
      <point x="803.0617283950617" y="271.38271604938274"/>
      <point x="766.3333333333333" y="315.38271604938274" type="curve"/>
      <point x="870.9876543209876" y="376.34567901234567"/>
      <point x="939.716049382716" y="454.58024691358025"/>
      <point x="939.716049382716" y="582.0" type="curve" smooth="yes"/>
      <point x="939.716049382716" y="957.0370370370371"/>
      <point x="372.9506172839506" y="927.320987654321"/>
      <point x="372.9506172839506" y="1135.9135802469136" type="curve" smooth="yes"/>
      <point x="372.9506172839506" y="1201.7160493827162"/>
      <point x="419.3703703703703" y="1256.283950617284"/>
      <point x="527.0123456790124" y="1256.283950617284" type="curve" smooth="yes"/>
      <point x="614.1604938271605" y="1256.283950617284"/>
      <point x="687.4320987654321" y="1215.283950617284"/>
      <point x="752.7777777777777" y="1161.6296296296296" type="curve"/>
    </contour>
    <contour>
      <point x="659.1234567901234" y="402.01234567901236" type="curve"/>
      <point x="492.39506172839504" y="500.1604938271605"/>
      <point x="254.98765432098764" y="536.4320987654321"/>
      <point x="254.98765432098764" y="709.1851851851852" type="curve" smooth="yes"/>
      <point x="254.98765432098764" y="787.4444444444445"/>
      <point x="299.1728395061728" y="835.8641975308642"/>
      <point x="371.04938271604937" y="877.6296296296297" type="curve"/>
      <point x="538.4320987654321" y="781.8271604938271"/>
      <point x="773.5308641975308" y="743.2098765432099"/>
      <point x="773.5308641975308" y="566.4197530864197" type="curve" smooth="yes"/>
      <point x="773.5308641975308" y="482.8148148148148"/>
      <point x="734.0370370370371" y="438.08641975308643"/>
    </contour>
  </outline>
</glyph>
<glyph name="dieresis" format="2">
  <advance width="1114.469135802469"/>
  <unicode hex="00A8"/>
  <anchor x="557.2345679012345" y="886.4197530864199" name="_top"/>
  <outline>
    <contour>
      <point x="620.827160493827" y="1198.6049382716049" type="curve" smooth="yes"/>
      <point x="683.6049382716047" y="1198.6049382716049"/>
      <point x="727.8395061728394" y="1244.4567901234568"/>
      <point x="727.8395061728394" y="1306.2716049382716" type="curve" smooth="yes"/>
      <point x="727.8395061728394" y="1366.7407407407406"/>
      <point x="683.6049382716047" y="1412.9382716049383"/>
      <point x="620.827160493827" y="1412.9382716049383" type="curve" smooth="yes"/>
      <point x="558.7037037037036" y="1412.9382716049383"/>
      <point x="513.8148148148147" y="1366.7407407407406"/>
      <point x="513.8148148148147" y="1306.2716049382716" type="curve" smooth="yes"/>
      <point x="513.8148148148147" y="1244.4567901234568"/>
      <point x="558.7037037037036" y="1198.6049382716049"/>
    </contour>
    <contour>
      <point x="494.2962962962964" y="1198.6049382716049" type="curve" smooth="yes"/>
      <point x="557.1111111111113" y="1198.6049382716049"/>
      <point x="601.3086419753088" y="1244.4567901234568"/>
      <point x="601.3086419753088" y="1306.2716049382716" type="curve" smooth="yes"/>
      <point x="601.3086419753088" y="1366.7407407407406"/>
      <point x="557.1111111111113" y="1412.9382716049383"/>
      <point x="494.2962962962964" y="1412.9382716049383" type="curve" smooth="yes"/>
      <point x="432.172839506173" y="1412.9382716049383"/>
      <point x="387.97530864197546" y="1366.7407407407406"/>
      <point x="387.97530864197546" y="1306.2716049382716" type="curve" smooth="yes"/>
      <point x="387.97530864197546" y="1244.4567901234568"/>
      <point x="432.172839506173" y="1198.6049382716049"/>
    </contour>
  </outline>
</glyph>
<glyph name="copyright" format="2">
  <advance width="1526.5802469135801"/>
  <unicode hex="00A9"/>
  <outline>
    <contour>
      <point x="765.9629629629629" y="-44.50617283950616" type="curve" smooth="yes"/>
      <point x="1134.8148148148148" y="-44.50617283950616"/>
      <point x="1450.358024691358" y="230.14814814814815"/>
      <point x="1450.358024691358" y="662.6543209876543" type="curve" smooth="yes"/>
      <point x="1450.358024691358" y="1094.1604938271605"/>
      <point x="1134.8148148148148" y="1361.8148148148148"/>
      <point x="765.9629629629629" y="1361.8148148148148" type="curve" smooth="yes"/>
      <point x="397.41975308641975" y="1361.8148148148148"/>
      <point x="80.56790123456791" y="1094.8148148148148"/>
      <point x="80.56790123456791" y="662.6543209876543" type="curve" smooth="yes"/>
      <point x="80.56790123456791" y="230.14814814814815"/>
      <point x="397.41975308641975" y="-44.50617283950616"/>
    </contour>
    <contour>
      <point x="982.3333333333334" y="466.9753086419753" type="line"/>
      <point x="924.604938271605" y="417.55555555555554"/>
      <point x="863.8024691358024" y="380.48148148148147"/>
      <point x="780.6543209876543" y="380.48148148148147" type="curve" smooth="yes"/>
      <point x="639.395061728395" y="380.48148148148147"/>
      <point x="546.9012345679013" y="488.01234567901236"/>
      <point x="546.9012345679013" y="662.3086419753087" type="curve" smooth="yes"/>
      <point x="546.9012345679013" y="814.9506172839506"/>
      <point x="641.4691358024692" y="926.7530864197531"/>
      <point x="787.9629629629629" y="926.7530864197531" type="curve" smooth="yes"/>
      <point x="856.4197530864197" y="926.7530864197531"/>
      <point x="906.1481481481482" y="897.0617283950618"/>
      <point x="959.9135802469136" y="844.9876543209876" type="curve"/>
      <point x="1037.9259259259259" y="932.9629629629629" type="line"/>
      <point x="972.2716049382716" y="997.9629629629629"/>
      <point x="896.3086419753087" y="1049.9259259259259"/>
      <point x="779.3827160493827" y="1049.9259259259259" type="curve" smooth="yes"/>
      <point x="580.1111111111111" y="1049.9259259259259"/>
      <point x="398.1851851851852" y="899.9629629629629"/>
      <point x="398.1851851851852" y="662.3086419753087" type="curve" smooth="yes"/>
      <point x="398.1851851851852" y="409.2716049382716"/>
      <point x="563.8395061728395" y="256.96296296296293"/>
      <point x="775.0" y="256.96296296296293" type="curve" smooth="yes"/>
      <point x="894.4567901234568" y="256.96296296296293"/>
      <point x="974.0740740740741" y="306.69135802469134"/>
      <point x="1050.3827160493827" y="372.03703703703707" type="curve"/>
    </contour>
    <contour>
      <point x="765.3086419753087" y="50.197530864197525" type="curve" smooth="yes"/>
      <point x="447.65432098765433" y="50.197530864197525"/>
      <point x="186.23456790123456" y="295.58024691358025"/>
      <point x="186.23456790123456" y="662.6543209876543" type="curve" smooth="yes"/>
      <point x="186.23456790123456" y="1028.037037037037"/>
      <point x="447.65432098765433" y="1269.111111111111"/>
      <point x="765.3086419753087" y="1269.111111111111" type="curve" smooth="yes"/>
      <point x="1083.9259259259259" y="1269.111111111111"/>
      <point x="1345.3456790123457" y="1028.037037037037"/>
      <point x="1345.3456790123457" y="662.6543209876543" type="curve" smooth="yes"/>
      <point x="1345.3456790123457" y="295.58024691358025"/>
      <point x="1083.9259259259259" y="50.197530864197525"/>
    </contour>
  </outline>
</glyph>
<glyph name="ordfeminine" format="2">
  <advance width="711.7777777777777"/>
  <unicode hex="00AA"/>
  <outline>
    <contour>
      <point x="489.22222222222223" y="606.7283950617284" type="line"/>
      <point x="504.1851851851852" y="532.0" type="line"/>
      <point x="617.320987654321" y="532.0" type="line"/>
      <point x="617.320987654321" y="931.7654320987655" type="line"/>
      <point x="617.320987654321" y="1110.5432098765432"/>
      <point x="540.8888888888889" y="1210.888888888889"/>
      <point x="375.96296296296293" y="1210.888888888889" type="curve" smooth="yes"/>
      <point x="268.96296296296293" y="1210.888888888889"/>
      <point x="170.30864197530863" y="1166.8148148148148"/>
      <point x="98.49382716049384" y="1122.888888888889" type="curve"/>
      <point x="151.2716049382716" y="1026.641975308642" type="line"/>
      <point x="207.85185185185185" y="1060.9506172839506"/>
      <point x="285.30864197530866" y="1095.7160493827162"/>
      <point x="354.11111111111114" y="1095.7160493827162" type="curve" smooth="yes"/>
      <point x="445.33333333333337" y="1095.7160493827162"/>
      <point x="473.33333333333337" y="1037.4567901234568"/>
      <point x="475.98765432098764" y="954.8888888888889" type="curve"/>
      <point x="196.53086419753086" y="928.2345679012345"/>
      <point x="73.4567901234568" y="854.5802469135803"/>
      <point x="73.4567901234568" y="711.2345679012345" type="curve" smooth="yes"/>
      <point x="73.4567901234568" y="596.2345679012345"/>
      <point x="154.80246913580248" y="516.0"/>
      <point x="276.41975308641975" y="516.0" type="curve" smooth="yes"/>
      <point x="359.14814814814815" y="516.0"/>
      <point x="426.8395061728395" y="557.7283950617284"/>
      <point x="480.22222222222223" y="606.7283950617284" type="curve"/>
    </contour>
    <contour>
      <point x="475.98765432098764" y="704.7777777777777" type="line"/>
      <point x="421.4567901234568" y="652.9382716049382"/>
      <point x="372.2716049382716" y="627.8641975308642"/>
      <point x="319.1604938271605" y="627.8641975308642" type="curve" smooth="yes"/>
      <point x="253.320987654321" y="627.8641975308642"/>
      <point x="211.20987654320987" y="657.6296296296296"/>
      <point x="211.20987654320987" y="722.1975308641976" type="curve" smooth="yes"/>
      <point x="211.20987654320987" y="793.7283950617284"/>
      <point x="278.08641975308643" y="846.1851851851852"/>
      <point x="475.98765432098764" y="867.5679012345679" type="curve"/>
    </contour>
  </outline>
</glyph>
<glyph name="softhyphen" format="2">
  <advance width="644.0123456790124"/>
  <unicode hex="00AD"/>
  <outline>
    <contour>
      <point x="84.96296296296296" y="442.95061728395063" type="line"/>
      <point x="561.0493827160494" y="442.95061728395063" type="line"/>
      <point x="561.0493827160494" y="585.9753086419753" type="line"/>
      <point x="84.96296296296296" y="585.9753086419753" type="line"/>
    </contour>
  </outline>
</glyph>
<glyph name="registered" format="2">
  <advance width="880.0617283950617"/>
  <unicode hex="00AE"/>
  <outline>
    <contour>
      <point x="439.358024691358" y="650.8024691358024" type="curve" smooth="yes"/>
      <point x="652.9382716049382" y="650.8024691358024"/>
      <point x="828.8641975308642" y="815.7283950617284"/>
      <point x="828.8641975308642" y="1056.037037037037" type="curve" smooth="yes"/>
      <point x="828.8641975308642" y="1295.037037037037"/>
      <point x="652.9382716049382" y="1460.962962962963"/>
      <point x="439.358024691358" y="1460.962962962963" type="curve" smooth="yes"/>
      <point x="225.46913580246914" y="1460.962962962963"/>
      <point x="50.197530864197525" y="1295.037037037037"/>
      <point x="50.197530864197525" y="1056.037037037037" type="curve" smooth="yes"/>
      <point x="50.197530864197525" y="815.7283950617284"/>
      <point x="225.46913580246914" y="650.8024691358024"/>
    </contour>
    <contour>
      <point x="439.358024691358" y="730.2716049382716" type="curve" smooth="yes"/>
      <point x="267.358024691358" y="730.2716049382716"/>
      <point x="137.28395061728395" y="861.6913580246913"/>
      <point x="137.28395061728395" y="1056.037037037037" type="curve" smooth="yes"/>
      <point x="137.28395061728395" y="1247.7283950617284"/>
      <point x="267.358024691358" y="1382.8395061728395"/>
      <point x="439.358024691358" y="1382.8395061728395" type="curve" smooth="yes"/>
      <point x="611.358024691358" y="1382.8395061728395"/>
      <point x="741.7777777777777" y="1247.7283950617284"/>
      <point x="741.7777777777777" y="1056.037037037037" type="curve" smooth="yes"/>
      <point x="741.7777777777777" y="861.6913580246913"/>
      <point x="611.358024691358" y="730.2716049382716"/>
    </contour>
    <contour>
      <point x="288.1604938271605" y="853.6913580246913" type="line"/>
      <point x="377.9012345679012" y="853.6913580246913" type="line"/>
      <point x="377.9012345679012" y="993.8395061728395" type="line"/>
      <point x="457.08641975308643" y="993.8395061728395" type="line"/>
      <point x="527.5061728395061" y="853.6913580246913" type="line"/>
      <point x="626.283950617284" y="853.6913580246913" type="line"/>
      <point x="533.8641975308642" y="1021.7654320987655" type="line"/>
      <point x="579.8641975308642" y="1039.0740740740741"/>
      <point x="609.2469135802469" y="1085.111111111111"/>
      <point x="609.2469135802469" y="1134.4567901234568" type="curve" smooth="yes"/>
      <point x="609.2469135802469" y="1231.1851851851852"/>
      <point x="535.5555555555555" y="1267.111111111111"/>
      <point x="448.6296296296296" y="1267.111111111111" type="curve" smooth="yes"/>
      <point x="288.1604938271605" y="1267.111111111111" type="line"/>
    </contour>
    <contour>
      <point x="377.9012345679012" y="1062.3827160493827" type="line"/>
      <point x="377.9012345679012" y="1194.6049382716049" type="line"/>
      <point x="433.01234567901236" y="1194.6049382716049" type="line"/>
      <point x="490.5061728395062" y="1194.6049382716049"/>
      <point x="513.1975308641976" y="1168.567901234568"/>
      <point x="513.1975308641976" y="1129.8024691358025" type="curve" smooth="yes"/>
      <point x="513.1975308641976" y="1086.037037037037"/>
      <point x="482.08641975308643" y="1062.3827160493827"/>
      <point x="429.32098765432096" y="1062.3827160493827" type="curve" smooth="yes"/>
    </contour>
  </outline>
</glyph>
<glyph name="macron" format="2">
  <advance width="1114.469135802469"/>
  <unicode hex="00AF"/>
  <anchor x="557.8888888888889" y="886.4197530864199" name="_top"/>
  <outline>
    <contour>
      <point x="301.8024691358025" y="1227.8024691358025" type="line"/>
      <point x="814.320987654321" y="1227.8024691358025" type="line"/>
      <point x="814.320987654321" y="1356.9012345679012" type="line"/>
      <point x="301.8024691358025" y="1356.9012345679012" type="line"/>
    </contour>
  </outline>
</glyph>
<glyph name="degree" format="2">
  <advance width="689.7901234567901"/>
  <unicode hex="00B0"/>
  <outline>
    <contour>
      <point x="345.39506172839504" y="868.4814814814815" type="curve" smooth="yes"/>
      <point x="487.5185185185185" y="868.4814814814815"/>
      <point x="608.7530864197531" y="973.9876543209876"/>
      <point x="608.7530864197531" y="1134.2222222222222" type="curve" smooth="yes"/>
      <point x="608.7530864197531" y="1297.1481481481483"/>
      <point x="487.5185185185185" y="1403.3086419753085"/>
      <point x="345.39506172839504" y="1403.3086419753085" type="curve" smooth="yes"/>
      <point x="204.2716049382716" y="1403.3086419753085"/>
      <point x="83.03703703703704" y="1297.1481481481483"/>
      <point x="83.03703703703704" y="1134.2222222222222" type="curve" smooth="yes"/>
      <point x="83.03703703703704" y="973.9876543209876"/>
      <point x="204.2716049382716" y="868.4814814814815"/>
    </contour>
    <contour>
      <point x="345.39506172839504" y="970.1111111111111" type="curve" smooth="yes"/>
      <point x="257.32098765432096" y="970.1111111111111"/>
      <point x="194.93827160493825" y="1038.8395061728395"/>
      <point x="194.93827160493825" y="1134.2222222222222" type="curve" smooth="yes"/>
      <point x="194.93827160493825" y="1231.641975308642"/>
      <point x="257.32098765432096" y="1300.3703703703704"/>
      <point x="345.39506172839504" y="1300.3703703703704" type="curve" smooth="yes"/>
      <point x="434.4691358024691" y="1300.3703703703704"/>
      <point x="496.85185185185185" y="1231.641975308642"/>
      <point x="496.85185185185185" y="1134.2222222222222" type="curve" smooth="yes"/>
      <point x="496.85185185185185" y="1038.8395061728395"/>
      <point x="434.4691358024691" y="970.1111111111111"/>
    </contour>
  </outline>
</glyph>
<glyph name="plusminus" format="2">
  <advance width="1028.5185185185185"/>
  <unicode hex="00B1"/>
  <outline>
    <contour>
      <point x="439.7654320987654" y="270.5185185185185" type="line"/>
      <point x="587.7530864197531" y="270.5185185185185" type="line"/>
      <point x="587.7530864197531" y="619.4938271604939" type="line"/>
      <point x="958.5185185185185" y="619.4938271604939" type="line"/>
      <point x="958.5185185185185" y="760.8271604938271" type="line"/>
      <point x="587.7530864197531" y="760.8271604938271" type="line"/>
      <point x="587.7530864197531" y="1142.5061728395062" type="line"/>
      <point x="439.7654320987654" y="1142.5061728395062" type="line"/>
      <point x="439.7654320987654" y="760.8271604938271" type="line"/>
      <point x="70.0" y="760.8271604938271" type="line"/>
      <point x="70.0" y="619.4938271604939" type="line"/>
      <point x="439.7654320987654" y="619.4938271604939" type="line"/>
    </contour>
    <contour>
      <point x="70.0" y="0.0" type="line"/>
      <point x="958.5185185185185" y="0.0" type="line"/>
      <point x="958.5185185185185" y="141.33333333333331" type="line"/>
      <point x="70.0" y="141.33333333333331" type="line"/>
    </contour>
  </outline>
</glyph>
<glyph name="two.sups" format="2">
  <advance width="754.8518518518518"/>
  <unicode hex="00B2"/>
  <outline>
    <contour>
      <point x="104.11111111111111" y="901.0" type="line"/>
      <point x="659.7777777777777" y="901.0" type="line"/>
      <point x="659.7777777777777" y="1025.4444444444443" type="line"/>
      <point x="338.037037037037" y="1025.4444444444443" type="line"/>
      <point x="498.48148148148147" y="1191.1604938271605"/>
      <point x="621.0123456790124" y="1315.2345679012346"/>
      <point x="621.0123456790124" y="1463.7654320987654" type="curve" smooth="yes"/>
      <point x="621.0123456790124" y="1632.7283950617284"/>
      <point x="512.4320987654321" y="1724.0"/>
      <point x="350.58024691358025" y="1724.0" type="curve" smooth="yes"/>
      <point x="239.69135802469137" y="1724.0"/>
      <point x="142.03703703703704" y="1662.2716049382716"/>
      <point x="77.53086419753087" y="1567.7283950617284" type="curve"/>
      <point x="163.50617283950618" y="1489.0617283950617" type="line"/>
      <point x="208.50617283950618" y="1553.4444444444446"/>
      <point x="265.2716049382716" y="1602.20987654321"/>
      <point x="331.03703703703707" y="1602.20987654321" type="curve" smooth="yes"/>
      <point x="421.5308641975309" y="1602.20987654321"/>
      <point x="477.98765432098764" y="1540.7530864197531"/>
      <point x="477.98765432098764" y="1441.2222222222222" type="curve" smooth="yes"/>
      <point x="477.98765432098764" y="1323.7283950617284"/>
      <point x="344.44444444444446" y="1197.4197530864199"/>
      <point x="104.11111111111111" y="984.0123456790124" type="curve"/>
    </contour>
  </outline>
</glyph>
<glyph name="three.sups" format="2">
  <advance width="754.8518518518518"/>
  <unicode hex="00B3"/>
  <outline>
    <contour>
      <point x="188.77777777777777" y="1516.0246913580247" type="line"/>
      <point x="232.50617283950618" y="1569.4444444444446"/>
      <point x="287.96296296296293" y="1609.4814814814815"/>
      <point x="345.69135802469134" y="1609.4814814814815" type="curve" smooth="yes"/>
      <point x="429.5679012345679" y="1609.4814814814815"/>
      <point x="484.0246913580247" y="1561.679012345679"/>
      <point x="484.0246913580247" y="1489.1851851851852" type="curve" smooth="yes"/>
      <point x="484.0246913580247" y="1409.7283950617284"/>
      <point x="406.5679012345679" y="1353.1604938271605"/>
      <point x="275.2716049382716" y="1353.1604938271605" type="curve"/>
      <point x="275.2716049382716" y="1262.4938271604938" type="line"/>
      <point x="427.14814814814815" y="1262.4938271604938"/>
      <point x="513.716049382716" y="1215.3827160493827"/>
      <point x="513.716049382716" y="1126.5432098765432" type="curve" smooth="yes"/>
      <point x="513.716049382716" y="1039.9753086419753"/>
      <point x="444.87654320987656" y="991.5185185185185"/>
      <point x="361.03703703703707" y="991.5185185185185" type="curve" smooth="yes"/>
      <point x="281.2345679012346" y="991.5185185185185"/>
      <point x="213.4320987654321" y="1034.2839506172838"/>
      <point x="164.4320987654321" y="1107.0123456790122" type="curve"/>
      <point x="69.4567901234568" y="1032.962962962963" type="line"/>
      <point x="131.7283950617284" y="940.7283950617284"/>
      <point x="240.30864197530863" y="877.0"/>
      <point x="371.2345679012346" y="877.0" type="curve" smooth="yes"/>
      <point x="527.5061728395061" y="877.0"/>
      <point x="659.0493827160494" y="970.2716049382716"/>
      <point x="659.0493827160494" y="1117.2716049382716" type="curve" smooth="yes"/>
      <point x="659.0493827160494" y="1222.037037037037"/>
      <point x="580.5925925925926" y="1289.037037037037"/>
      <point x="491.5185185185185" y="1313.962962962963" type="curve"/>
      <point x="572.2469135802469" y="1353.2716049382716"/>
      <point x="628.358024691358" y="1415.3086419753085"/>
      <point x="628.358024691358" y="1507.7283950617284" type="curve" smooth="yes"/>
      <point x="628.358024691358" y="1644.037037037037"/>
      <point x="508.4691358024691" y="1724.0"/>
      <point x="369.1975308641975" y="1724.0" type="curve" smooth="yes"/>
      <point x="256.30864197530866" y="1724.0"/>
      <point x="174.30864197530863" y="1674.2716049382716"/>
      <point x="101.80246913580247" y="1592.037037037037" type="curve"/>
    </contour>
  </outline>
</glyph>
<glyph name="acute" format="2">
  <advance width="1114.469135802469"/>
  <unicode hex="00B4"/>
  <anchor x="486.8395061728395" y="886.4197530864199" name="_top"/>
  <outline>
    <contour>
      <point x="379.2345679012346" y="1174.3086419753085" type="line"/>
      <point x="523.5308641975308" y="1174.3086419753085" type="line"/>
      <point x="758.0370370370371" y="1465.5061728395062" type="line"/>
      <point x="563.5802469135803" y="1465.5061728395062" type="line"/>
    </contour>
  </outline>
</glyph>
<glyph name="micro" format="2">
  <advance width="1133.9753086419753"/>
  <unicode hex="00B5"/>
  <outline>
    <contour>
      <point x="162.25925925925927" y="-410.0" type="line"/>
      <point x="352.25925925925924" y="-410.0" type="line"/>
      <point x="352.25925925925924" y="-118.74074074074073" type="line"/>
      <point x="340.98765432098764" y="65.9135802469136" type="line"/>
      <point x="386.4074074074074" y="0.0"/>
      <point x="443.8641975308642" y="-15.074074074074076"/>
      <point x="518.7777777777777" y="-15.074074074074076" type="curve" smooth="yes"/>
      <point x="629.9629629629629" y="-15.074074074074076"/>
      <point x="721.7283950617284" y="48.03703703703704"/>
      <point x="794.9135802469136" y="153.11111111111111" type="curve"/>
      <point x="799.9135802469136" y="153.11111111111111" type="line"/>
      <point x="815.8395061728395" y="0.0" type="line"/>
      <point x="972.3703703703703" y="0.0" type="line"/>
      <point x="972.3703703703703" y="998.5061728395061" type="line"/>
      <point x="782.716049382716" y="998.5061728395061" type="line"/>
      <point x="782.716049382716" y="298.2469135802469" type="line"/>
      <point x="694.1111111111111" y="187.29629629629628"/>
      <point x="628.2716049382716" y="139.4938271604938"/>
      <point x="529.7407407407408" y="139.4938271604938" type="curve" smooth="yes"/>
      <point x="406.71604938271605" y="139.4938271604938"/>
      <point x="352.25925925925924" y="214.4074074074074"/>
      <point x="352.25925925925924" y="393.04938271604937" type="curve" smooth="yes"/>
      <point x="352.25925925925924" y="998.5061728395061" type="line"/>
      <point x="162.25925925925927" y="998.5061728395061" type="line"/>
    </contour>
  </outline>
</glyph>
<glyph name="paragraph" format="2">
  <advance width="1173.1234567901233"/>
  <unicode hex="00B6"/>
  <outline>
    <contour>
      <point x="653.5061728395061" y="453.1358024691358" type="line"/>
      <point x="653.5061728395061" y="1342.0740740740741" type="line"/>
      <point x="581.1604938271605" y="1342.0740740740741" type="line"/>
      <point x="298.5061728395062" y="1342.0740740740741"/>
      <point x="83.03703703703704" y="1228.037037037037"/>
      <point x="83.03703703703704" y="902.2222222222223" type="curve" smooth="yes"/>
      <point x="83.03703703703704" y="592.2592592592592"/>
      <point x="305.2345679012346" y="453.1358024691358"/>
      <point x="601.2716049382716" y="453.1358024691358" type="curve"/>
    </contour>
    <contour>
      <point x="782.4691358024692" y="-164.0" type="line"/>
      <point x="976.1234567901234" y="-164.0" type="line"/>
      <point x="976.1234567901234" y="1342.0740740740741" type="line"/>
      <point x="782.4691358024692" y="1342.0740740740741" type="line"/>
    </contour>
  </outline>
</glyph>
<glyph name="cedilla" format="2">
  <advance width="1114.469135802469"/>
  <unicode hex="00B8"/>
  <outline>
    <contour>
      <point x="407.22222222222223" y="-438.5432098765432" type="line"/>
      <point x="567.5802469135803" y="-425.5061728395062"/>
      <point x="714.358024691358" y="-368.88888888888886"/>
      <point x="714.358024691358" y="-246.7283950617284" type="curve" smooth="yes"/>
      <point x="714.358024691358" y="-162.7283950617284"/>
      <point x="660.0123456790124" y="-122.76543209876543"/>
      <point x="593.0123456790124" y="-100.11111111111111" type="curve"/>
      <point x="643.7777777777777" y="6.308641975308641" type="line"/>
      <point x="522.604938271605" y="6.308641975308641" type="line"/>
      <point x="440.60493827160496" y="-154.30864197530863" type="line"/>
      <point x="525.2222222222223" y="-174.96296296296296"/>
      <point x="570.0246913580247" y="-201.96296296296296"/>
      <point x="570.0246913580247" y="-251.41975308641975" type="curve" smooth="yes"/>
      <point x="570.0246913580247" y="-306.7654320987654"/>
      <point x="494.98765432098764" y="-335.4567901234568"/>
      <point x="389.2592592592593" y="-348.4938271604938" type="curve"/>
    </contour>
  </outline>
</glyph>
<glyph name="one.sups" format="2">
  <advance width="754.8518518518518"/>
  <unicode hex="00B9"/>
  <outline>
    <contour>
      <point x="349.7654320987654" y="901.0" type="line"/>
      <point x="496.4074074074074" y="901.0" type="line"/>
      <point x="496.4074074074074" y="1700.0" type="line"/>
      <point x="378.2716049382716" y="1700.0" type="line"/>
      <point x="321.03703703703707" y="1658.037037037037"/>
      <point x="267.69135802469134" y="1633.037037037037"/>
      <point x="174.83950617283952" y="1617.037037037037" type="curve"/>
      <point x="174.83950617283952" y="1523.0987654320988" type="line"/>
      <point x="349.7654320987654" y="1523.0987654320988" type="line"/>
    </contour>
  </outline>
</glyph>
<glyph name="ordmasculine" format="2">
  <advance width="750.1975308641976"/>
  <unicode hex="00BA"/>
  <outline>
    <contour>
      <point x="374.2716049382716" y="516.0" type="curve" smooth="yes"/>
      <point x="542.8888888888889" y="516.0"/>
      <point x="688.7777777777777" y="645.3086419753087"/>
      <point x="688.7777777777777" y="862.6172839506173" type="curve" smooth="yes"/>
      <point x="688.7777777777777" y="1082.9259259259259"/>
      <point x="542.8888888888889" y="1210.888888888889"/>
      <point x="374.2716049382716" y="1210.888888888889" type="curve" smooth="yes"/>
      <point x="203.96296296296296" y="1210.888888888889"/>
      <point x="58.76543209876544" y="1082.9259259259259"/>
      <point x="58.76543209876544" y="862.6172839506173" type="curve" smooth="yes"/>
      <point x="58.76543209876544" y="645.3086419753087"/>
      <point x="203.96296296296296" y="516.0"/>
    </contour>
    <contour>
      <point x="374.2716049382716" y="631.5185185185185" type="curve" smooth="yes"/>
      <point x="267.01234567901236" y="631.5185185185185"/>
      <point x="202.75308641975306" y="725.7037037037037"/>
      <point x="202.75308641975306" y="862.6172839506173" type="curve" smooth="yes"/>
      <point x="202.75308641975306" y="1003.5308641975308"/>
      <point x="267.01234567901236" y="1095.7160493827162"/>
      <point x="374.2716049382716" y="1095.7160493827162" type="curve" smooth="yes"/>
      <point x="480.8395061728395" y="1095.7160493827162"/>
      <point x="544.0987654320987" y="1003.5308641975308"/>
      <point x="544.0987654320987" y="862.6172839506173" type="curve" smooth="yes"/>
      <point x="544.0987654320987" y="725.7037037037037"/>
      <point x="480.8395061728395" y="631.5185185185185"/>
    </contour>
  </outline>
</glyph>
<glyph name="AE" format="2">
  <advance width="1682.2469135802469"/>
  <unicode hex="00C6"/>
  <anchor x="841.1234567901234" y="1342.0740740740741" name="top"/>
  <outline>
    <contour>
      <point x="4.987654320987666" y="0.0" type="line"/>
      <point x="204.91358024691357" y="0.0" type="line"/>
      <point x="397.08641975308643" y="377.01234567901236" type="line"/>
      <point x="812.2222222222223" y="377.01234567901236" type="line"/>
      <point x="812.2222222222223" y="0.0" type="line"/>
      <point x="1586.0123456790122" y="0.0" type="line"/>
      <point x="1586.0123456790122" y="163.4938271604938" type="line"/>
      <point x="1004.8765432098766" y="163.4938271604938" type="line"/>
      <point x="1004.8765432098766" y="621.5555555555555" type="line"/>
      <point x="1473.5555555555554" y="621.5555555555555" type="line"/>
      <point x="1473.5555555555554" y="783.7407407407408" type="line"/>
      <point x="1004.8765432098766" y="783.7407407407408" type="line"/>
      <point x="1004.8765432098766" y="1180.2345679012346" type="line"/>
      <point x="1566.0123456790122" y="1180.2345679012346" type="line"/>
      <point x="1566.0123456790122" y="1342.0740740740741" type="line"/>
      <point x="698.1975308641976" y="1342.0740740740741" type="line"/>
    </contour>
    <contour>
      <point x="473.7901234567901" y="529.9259259259259" type="line"/>
      <point x="592.0864197530864" y="762.9876543209876" type="line"/>
      <point x="661.5802469135803" y="903.8641975308642"/>
      <point x="734.4197530864197" y="1049.0123456790125"/>
      <point x="804.2222222222223" y="1191.7777777777778" type="curve"/>
      <point x="812.2222222222223" y="1191.7777777777778" type="line"/>
      <point x="812.2222222222223" y="529.9259259259259" type="line"/>
    </contour>
  </outline>
</glyph>
